<svg xmlns="http://www.w3.org/2000/svg" height="189.453" width="840.173" xml:space="preserve"><path style="fill:#231f20;fill-opacity:1;fill-rule:nonzero;stroke:none" d="M452.883 521.176H55.277L0 365.148h508.063c-3.79 7.454-7.637 14.84-11.153 22.493-19.996 43.472-34.582 88.191-44.027 133.535M230.629 1016.15l-34.813-98.267h298.36a764.463 764.463 0 0 0 49.422 98.267H230.629M454.008 788.484H149.98l-47.253-133.367h336.914c.273 44.668 5.183 89.305 14.367 133.367M3824.4 911.035l-440.67-18.586c-36.2 0-69.94-11.246-101.1-32.453-21.24-14.992-38.7-38.699-58.69-68.691l393.29-18.586-33.7-123.891-393.3-17.332c6.25-29.961 13.71-53.699 28.71-69.902 21.2-21.25 49.95-32.5 87.4-32.5h479.09l-73.42-167.305h-469.33c-106.15 0-182.3 29.992-227.25 91.191-46.2 59.915-57.44 146.055-33.74 258.422 23.74 112.395 71.2 198.539 142.35 259.7 72.44 59.948 161.05 89.938 267.19 89.938l506.55-18.59-73.38-131.415M4695.93 901.043l-444.42-18.59c-41.2 0-77.4-13.75-108.64-42.414-32.45-27.488-54.9-69.937-67.4-128.637-12.5-58.668-8.75-101.156 12.5-131.105 19.99-27.453 49.94-41.203 91.1-41.203h481.63l-74.66-177.305h-471.87c-106.14 0-182.29 29.992-228.5 91.191-46.2 59.915-57.41 146.055-33.7 258.422 23.7 112.395 71.15 198.539 142.31 259.7 72.44 59.948 161.09 89.938 267.23 89.938l510.3-18.59-75.88-141.407M2404.89 892.449l544.23 18.586 72.21 131.415-622.69 18.59c-44.95 0-86.15-8.75-123.6-27.49-78.65-39.952-126.1-109.859-142.34-188.546-13.75-62.41-5-113.606 26.2-153.559 31.2-41.211 81.19-61.199 149.85-61.199h359.43c46.24 0 63.7-17.461 56.23-51.199-3.74-18.703-12.49-31.203-24.99-38.703-12.5-7.5-29.95-11.25-52.45-11.25h-574.86c-21.42-58.067-50.34-114.344-86.31-167.305h667.42c44.95 0 86.16 8.75 123.61 27.492 37.49 18.719 68.73 43.707 93.64 76.16 23.74 32.454 39.95 69.903 48.74 111.106 13.71 62.437 4.96 113.648-26.25 153.601-31.24 41.204-81.14 61.157-149.84 61.157h-359.47c-22.46 0-38.7 3.785-48.66 11.246-8.75 7.5-12.5 19.996-8.75 39.953 7.5 32.488 32.45 49.945 78.65 49.945" transform="matrix(.13333 0 0 -.13333 0 189.453)"/><path style="fill:#231f20;fill-opacity:1;fill-rule:nonzero;stroke:none" d="M1984.3 1039.29h.04c-73.03 158.59-208.85 279.53-382.4 340.53-192.3 67.6-415.09 54.25-611.213-36.59-388.067-179.68-573.633-608.355-413.836-955.589C705.313 108.719 1018.14-33.961 1337.38 13.738c27.61 74.531 46.27 140.313 58.44 189.891-270.28-76.02-550.289 28.152-656.668 259.156-119.773 260.293 25.618 584.545 324.138 722.795 153.44 71.03 326.67 81.85 475.26 29.6 129.15-45.38 229.87-134.54 283.45-251.032h.04c53.58-116.492 55.96-251.183 6.64-379.207-7.85-20.347-16.99-40.222-27.21-59.636H1669.3l56.12 262.289c10.04 47.41 13.75 87.398 11.25 119.847h-1.21c-2.54 32.457-16.29 61.2-39.99 87.407-22.46 26.202-47.45 43.692-76.15 52.442-28.75 8.71-64.91 13.75-108.65 13.75l-445.04-20-93.411-148.591h452.301c23.75 0 41.2-2.5 53.66-6.207 11.29-2.5 21.28-11.25 30.03-26.246 8.71-16.242 11.21-37.449 5-64.906v-3.785h-394.89c-71.16 0-129.859-18.703-176.058-57.407-47.446-39.953-77.403-92.414-91.11-157.351-13.746-64.902-6.246-117.356 23.707-156.059 31.2-39.957 82.403-59.91 153.561-59.91l884.67.434 6.07 10.898c24.31 41.75 60.43 115.348 75.61 154.645 66.3 172.043 62.55 354.101-10.47 512.735zm-526.08-510.196h-339.9c-42.46 0-58.66 17.5-51.16 51.203 6.2 33.738 29.95 51.199 73.65 51.199l338.66-1.25-21.25-101.152" transform="matrix(.13333 0 0 -.13333 0 189.453)"/><path style="fill:#231f20;fill-opacity:1;fill-rule:nonzero;stroke:none" d="m1555.87 138.551-3.02-13.672h-34.95l-10.62-46.848c-.61-2.37-1.14-5.02-1.59-8.09-.52-3.113-.72-5.53-.72-7.363 0-4.418 1.07-7.7 3.3-9.867 2.23-2.172 6.33-3.223 12.24-3.223 2.44 0 5.37.434 8.73 1.313 3.36.86 5.68 1.5 6.85 1.968h.92l-3.18-14.66c-3.32-.84-6.87-1.539-10.66-2.09-3.81-.5-7.19-.84-10.09-.84-8.25 0-14.63 1.86-19.16 5.551-4.53 3.66-6.78 9.418-6.78 17.348 0 1.98.14 3.89.43 5.774.24 1.91.63 4.117 1.1 6.539l12.41 54.488h-11.32l3.03 13.672h11.46l6.6 28.961h16.73l-6.6-28.961h34.89M1653.54 115.5c0-1.512-.09-3.398-.39-5.898-.27-2.481-.64-4.653-1.11-6.551l-15.11-65.742h-16.66l13.03 57.722c.72 3.16 1.28 5.969 1.66 8.399.37 2.398.56 4.761.56 7.121 0 5.097-1.23 8.918-3.71 11.48-2.46 2.559-6.95 3.867-13.41 3.867-4.53 0-9.53-1.269-15.02-3.808a121.15 121.15 0 0 1-15.99-9.02l-17.32-75.761h-16.85l32.22 140.941h16.85l-11.62-50.809c6.39 4.489 12.38 7.969 17.98 10.348 5.59 2.422 11.33 3.691 17.25 3.691 8.68 0 15.46-2.218 20.36-6.699 4.84-4.453 7.28-10.883 7.28-19.281M1716.87 35.012c-13.87 0-24.74 3.316-32.59 9.867-7.91 6.582-11.83 16.25-11.83 28.95 0 18.523 5.78 34.441 17.37 47.71 11.58 13.281 25.94 19.941 43.04 19.941 11.38 0 20.07-2.89 26.09-8.628 6.07-5.68 9.12-13.711 9.12-23.993 0-1.8-.3-4.687-.82-8.597-.45-3.961-1.31-8.48-2.45-13.711h-73.96a39.84 39.84 0 0 1-.74-5.14c-.14-1.72-.24-3.282-.24-4.692 0-8.559 2.58-15.278 7.78-20.117 5.11-4.864 12.41-7.332 21.84-7.332 6.6 0 13.38 1.308 20.39 3.89 6.99 2.578 12.79 5.512 17.51 8.77h1.06l-3.73-18.399c-2.99-1.101-5.68-2.082-8.06-3.011a81.064 81.064 0 0 0-9.14-2.72c-3.71-.921-6.97-1.562-9.86-2.09-2.89-.491-6.47-.698-10.78-.698zm33.96 63.957c.31 1.761.48 3.242.62 4.422.14 1.168.2 2.539.2 3.941 0 6.449-1.76 11.457-5.32 15.027-3.49 3.59-9.13 5.411-16.91 5.411-8.49 0-16.08-2.641-22.69-7.93-6.59-5.238-11.09-12.199-13.41-20.871h57.51M1890.22 138.551 1867.1 37.309h-16.85l23.12 101.242zm9.24 34.539-4.03-17.57h-19.15l4.06 17.57h19.12M2001.03 115.5c0-1.512-.16-3.398-.41-5.898-.29-2.481-.64-4.653-1.09-6.551l-15.06-65.742h-16.63l13 57.722c.66 3.16 1.19 5.969 1.62 8.399.35 2.359.53 4.761.53 7.121 0 5.097-1.19 8.918-3.71 11.48-2.44 2.559-6.95 3.867-13.42 3.867-4.52 0-9.54-1.269-15.01-3.808-5.47-2.539-10.78-5.539-16.01-9.02l-17.32-75.761h-16.85l23.16 101.242h16.84l-2.53-11.172c6.38 4.449 12.36 7.93 17.96 10.371 5.55 2.461 11.31 3.73 17.21 3.73 8.72 0 15.54-2.218 20.42-6.699 4.84-4.453 7.3-10.883 7.3-19.281M2098.43 162.352h-.88c-1.74.589-4.1 1.128-6.97 1.679-2.87.547-5.47.821-7.73.821-7.43 0-12.97-1.872-16.64-5.622-3.75-3.71-6.54-9.492-8.36-17.261l-.82-3.418h30.78l-3.23-13.672h-30.17l-19.56-87.57h-16.81l19.6 87.57h-11.4l3.2 13.672h11.35l.7 3.34c2.4 11.828 7.21 20.968 14.37 27.488 7.13 6.492 16.35 9.73 27.61 9.73 3.79 0 7.15-.16 10.21-.531 3.05-.387 5.84-.797 8.28-1.269l-3.53-14.957M2180.09 102.762c0-9.102-1.35-17.813-4.1-26.16-2.76-8.32-6.64-15.633-11.64-21.801-5.27-6.403-11.29-11.403-18.06-14.992-6.82-3.61-14.81-5.43-23.88-5.43-11.96 0-21.19 3.422-27.89 10.3-6.67 6.88-9.97 16.372-9.97 28.442 0 9.09 1.32 17.77 4.06 25.988 2.71 8.223 6.63 15.582 11.81 21.961 4.96 6.168 11.05 11.11 18.24 14.852 7.22 3.629 15.11 5.558 23.7 5.558 11.54 0 20.7-3.339 27.51-10.019 6.82-6.68 10.22-16.242 10.22-28.699zm-27.38-38.313c3.24 4.84 5.7 10.43 7.4 16.79 1.72 6.331 2.58 13.081 2.58 20.152 0 8.48-1.99 14.871-6.01 19.211-4.01 4.339-9.69 6.57-17.03 6.57-5.84 0-11.06-1.41-15.66-4.262-4.63-2.832-8.57-6.648-11.97-11.558-3.2-4.762-5.72-10.372-7.44-16.774-1.76-6.387-2.62-13.066-2.62-19.95 0-8.339 2.01-14.788 6.04-19.276 3.98-4.454 9.68-6.68 17.08-6.68 5.74 0 10.96 1.406 15.66 4.18 4.69 2.789 8.69 6.636 11.97 11.597M2274.13 120.699h-.92c-2.38.653-4.59 1-6.66 1.313-2.05.269-4.49.347-7.44.347-5.6 0-11.17-1.289-16.68-3.847-5.5-2.551-10.81-5.633-15.87-9.133l-16.31-72.07h-17.02l22.92 101.242h17.03l-3.4-14.981c7.99 5.59 14.7 9.532 20.21 11.68 5.51 2.191 10.78 3.301 15.89 3.301 2.88 0 5.02-.102 6.33-.25 1.33-.141 3.2-.43 5.72-.821l-3.8-16.781M2434.59 116.199c0-1.949-.16-4.078-.43-6.328-.25-2.23-.64-4.492-1.21-6.82l-15.09-65.742h-16.76l13.16 57.722c.73 3.16 1.31 6.168 1.78 8.86.45 2.781.63 5.32.63 7.718 0 4.551-1.14 8.09-3.36 10.563-2.31 2.5-6.62 3.726-13.07 3.726-4.72 0-9.7-1.347-14.99-3.968-5.24-2.692-10.47-5.809-15.7-9.36-.1-1.531-.27-3.23-.6-5.238-.24-1.891-.53-3.594-.9-5.121l-14.81-64.902h-16.89l13.15 57.722c.77 3.75 1.4 6.828 1.89 9.231.47 2.41.72 4.789.72 7.347 0 5.493-1.48 9.192-4.49 11.219-3.01 2.051-7.03 3.07-12.09 3.07-3.63 0-7.63-.957-12-2.757-4.46-1.871-10.34-5.211-17.68-10.071l-17.3-75.761h-16.87l23.12 101.242h16.86l-2.54-11.172c6.28 4.359 12.12 7.793 17.45 10.25a38.565 38.565 0 0 0 16.91 3.851c6.75 0 12.24-1.5 16.44-4.351 4.22-2.969 6.99-7 8.46-12.109 7.85 5.82 14.92 10 21.22 12.539 6.27 2.589 12.46 3.921 18.53 3.921 8.79 0 15.41-2.218 19.82-6.66 4.41-4.41 6.64-10.621 6.64-18.621M2514.06 48.078a189.95 189.95 0 0 1-6.62-4.18 69.037 69.037 0 0 0-8.51-4.597c-3.01-1.36-6.43-2.551-10.19-3.473-3.75-.957-8.11-1.45-12.97-1.45-7.99 0-14.41 2.352-19.39 7.071-4.96 4.64-7.42 10.813-7.42 18.352 0 8.09 1.7 14.87 5.2 20.418 3.51 5.531 8.68 10.082 15.56 13.601 6.72 3.45 14.87 5.91 24.41 7.481 9.54 1.539 20.34 2.5 32.55 2.871.4 1.68.72 3.16 1.01 4.449.27 1.211.39 2.5.39 3.809 0 2.949-.57 5.281-1.7 7.082-1.09 1.847-2.71 3.277-4.82 4.386a22.706 22.706 0 0 1-7.32 2.211c-2.81.411-5.84.61-9.2.61-5.08 0-10.89-.821-17.42-2.481-6.48-1.679-11.75-3.316-15.83-4.968h-.9l3.32 16.96c3.36.899 8.37 1.93 14.9 3.079 6.66 1.16 12.94 1.722 18.98 1.722 12.39 0 21.73-1.953 27.94-5.922 6.21-3.937 9.33-10.168 9.33-18.64 0-1.68-.14-3.399-.41-5.207a65.834 65.834 0 0 0-.96-5.262l-15.67-68.691h-16.74zm9.57 42.402c-9.2-.34-17.34-1.039-24.49-2.09-7.08-1.058-13-2.6-17.63-4.57-4.82-2-8.45-4.71-10.99-8.082-2.48-3.36-3.75-7.66-3.75-12.66 0-4.347 1.44-7.648 4.41-9.957 2.93-2.262 7.44-3.441 13.59-3.441 5.43 0 11 1.261 16.64 3.742a85.215 85.215 0 0 1 15.82 8.758l6.4 28.3M2636.1 138.551l-3.09-13.672h-34.95l-10.6-46.848c-.6-2.37-1.13-5.02-1.6-8.09-.51-3.113-.72-5.53-.72-7.363 0-4.418 1.07-7.7 3.34-9.867 2.18-2.172 6.28-3.223 12.24-3.223 2.46 0 5.39.434 8.75 1.313 3.35.86 5.62 1.5 6.81 1.968h.96l-3.19-14.66c-3.34-.84-6.93-1.539-10.7-2.09-3.82-.5-7.16-.84-10.11-.84-8.22 0-14.63 1.86-19.14 5.551-4.49 3.66-6.77 9.418-6.77 17.348 0 1.98.17 3.89.41 5.774.25 1.91.66 4.117 1.09 6.539l12.44 54.488h-11.34l3.04 13.672h11.44l6.61 28.961h16.75l-6.62-28.961h34.95M2673.39 138.551l-23.14-101.242h-16.83l23.16 101.242zm9.26 34.539-4.02-17.57h-19.16l4.03 17.57h19.15M2782.33 102.762c0-9.102-1.37-17.813-4.14-26.16-2.71-8.32-6.64-15.633-11.64-21.801-5.21-6.403-11.22-11.403-18.06-14.992-6.83-3.61-14.76-5.43-23.88-5.43-11.93 0-21.22 3.422-27.84 10.3-6.68 6.88-10.02 16.372-10.02 28.442 0 9.09 1.33 17.77 4.1 25.988 2.68 8.223 6.64 15.582 11.78 21.961 4.95 6.168 11.07 11.11 18.27 14.852 7.22 3.629 15.08 5.558 23.63 5.558 11.56 0 20.77-3.339 27.59-10.019s10.21-16.242 10.21-28.699zm-27.41-38.313c3.2 4.84 5.72 10.43 7.43 16.79 1.7 6.331 2.52 13.081 2.52 20.152 0 8.48-1.97 14.871-5.99 19.211-4.04 4.339-9.69 6.57-17 6.57-5.83 0-11.06-1.41-15.65-4.262-4.65-2.832-8.65-6.648-11.97-11.558-3.26-4.762-5.78-10.372-7.52-16.774-1.7-6.387-2.55-13.066-2.55-19.95 0-8.339 1.97-14.788 5.97-19.276 4.06-4.454 9.75-6.68 17.13-6.68 5.76 0 10.97 1.406 15.65 4.18 4.69 2.789 8.66 6.636 11.98 11.597M2895.76 115.5c0-1.512-.14-3.398-.41-5.898-.28-2.481-.67-4.653-1.14-6.551l-14.99-65.742h-16.62l12.93 57.722c.72 3.16 1.29 5.969 1.66 8.399.37 2.359.56 4.761.56 7.121 0 5.097-1.23 8.918-3.69 11.48-2.54 2.559-6.96 3.867-13.43 3.867-4.55 0-9.53-1.269-15.01-3.808-5.43-2.539-10.84-5.539-16-9.02l-17.33-75.761h-16.86l23.14 101.242h16.87l-2.54-11.172c6.37 4.449 12.36 7.93 17.91 10.371 5.58 2.461 11.38 3.73 17.28 3.73 8.73 0 15.5-2.218 20.39-6.699 4.86-4.453 7.28-10.883 7.28-19.281M3014.01 34.809c-7.54 0-14.21.941-20.11 2.78-5.9 1.911-10.8 3.923-14.78 6.083l3.76 18.258h.92a66.321 66.321 0 0 1 4.88-3.91c2.03-1.5 4.59-2.98 7.7-4.43 2.85-1.41 6.07-2.621 9.68-3.59 3.63-1.059 7.48-1.531 11.62-1.531 8.43 0 15.11 1.57 19.9 4.77 4.82 3.12 7.2 7.812 7.2 13.91 0 3.242-1.25 5.703-3.69 7.46-2.5 1.68-6.03 3.122-10.64 4.192-2.36.558-5.16 1.148-8.44 1.808-3.24.672-6.59 1.45-9.97 2.372-7.02 1.968-12.21 4.898-15.57 8.648-3.35 3.793-5.03 8.441-5.03 13.851 0 4.68 1.01 9.122 3.06 13.211 2.01 4.098 5.06 7.887 9.08 11.368 3.85 3.242 8.69 5.882 14.67 7.929 5.93 1.992 12.57 3.043 19.82 3.043 5.99 0 11.96-.781 17.92-2.222 5.97-1.547 10.86-3.438 14.63-5.668l-3.56-17.391h-.92c-.99.801-2.4 1.852-4.37 3.211-1.94 1.328-4.4 2.699-7.4 4.098-2.62 1.179-5.62 2.152-9.08 3.011-3.46.86-7.03 1.27-10.78 1.27-7.48 0-13.55-1.578-18.25-4.781-4.63-3.168-7.04-7.547-7.04-13.118 0-3.011 1.2-5.55 3.48-7.543 2.27-2.027 5.76-3.668 10.46-4.757 2.88-.75 6-1.45 9.16-2.07 3.23-.61 6.35-1.29 9.32-2.052 6.97-1.738 12.2-4.48 15.75-8.167 3.44-3.692 5.26-8.293 5.26-13.84 0-4.684-1.12-9.223-3.3-13.672-2.19-4.41-5.33-8.32-9.49-11.559-4.24-3.472-9.4-6.14-15.47-8.082-6.09-1.91-12.85-2.89-20.38-2.89M3125.93 35.012c-13.88 0-24.74 3.316-32.63 9.867-7.9 6.582-11.87 16.25-11.87 28.95 0 18.523 5.84 34.441 17.42 47.71 11.62 13.281 25.95 19.941 43.05 19.941 11.37 0 20.07-2.89 26.11-8.628 6.07-5.68 9.08-13.711 9.08-23.993 0-1.8-.29-4.687-.8-8.597-.49-3.961-1.33-8.48-2.46-13.711h-73.93c-.35-1.742-.64-3.48-.78-5.14a58.193 58.193 0 0 1-.21-4.692c0-8.559 2.54-15.278 7.71-20.117 5.16-4.864 12.42-7.332 21.93-7.332 6.58 0 13.35 1.308 20.35 3.89 6.95 2.578 12.82 5.512 17.51 8.77h1.03l-3.69-18.399a667.22 667.22 0 0 1-8.11-3.011c-2.37-.88-5.38-1.84-9.09-2.72-3.69-.921-6.97-1.562-9.88-2.09-2.83-.491-6.43-.698-10.74-.698zm33.91 63.957c.28 1.761.53 3.242.61 4.422.14 1.168.19 2.539.19 3.941 0 6.449-1.71 11.457-5.22 15.027-3.55 3.59-9.18 5.411-16.95 5.411-8.55 0-16.09-2.641-22.71-7.93-6.64-5.238-11.09-12.199-13.44-20.871h57.52M3231.61 35.012c-6.39 0-11.97.777-16.85 2.257-4.83 1.493-9.11 3.91-12.76 7.16-3.51 3.13-6.26 7.11-8.17 11.9-1.92 4.722-2.83 10.331-2.83 16.683 0 9.398 1.42 18.27 4.35 26.468 2.92 8.219 7.08 15.469 12.45 21.629 5.18 6.063 11.66 10.86 19.3 14.379 7.65 3.59 15.85 5.332 24.76 5.332 5.84 0 11.38-.84 16.56-2.48 5.12-1.641 9.72-3.559 13.68-5.801l-3.69-18.488h-1.02a78.464 78.464 0 0 1-4.49 3.859c-1.75 1.442-3.88 2.77-6.34 4.02a41.665 41.665 0 0 1-8.12 3.281c-3.01.859-6.49 1.309-10.26 1.309-11.62 0-21.04-4.942-28.37-14.77-7.34-9.891-10.99-21.879-10.99-36.012 0-8.5 2.17-15.039 6.48-19.61 4.38-4.526 10.51-6.858 18.53-6.858 3.79 0 7.54.55 11.31 1.628 3.77 1.09 6.97 2.262 9.55 3.512 2.97 1.41 5.68 2.852 8.18 4.418 2.52 1.563 4.38 2.73 5.51 3.512h.96l-3.56-18.63c-5.19-2.339-10.7-4.41-16.54-6.12-5.8-1.68-11.66-2.578-17.63-2.578M3390.04 138.551l-23.21-101.242h-16.9l2.56 11.16c-6.36-4.348-12.33-7.797-17.88-10.34-5.51-2.5-11.37-3.75-17.56-3.75-8.63 0-15.36 2.23-20.17 6.562-4.82 4.387-7.24 10.82-7.24 19.207 0 2.051.08 4.051.39 5.98.25 1.911.64 4.142 1.13 6.661l15.06 65.762h16.89l-13.27-57.782c-.52-2.328-1.05-5.03-1.52-8.078-.49-3.043-.72-5.41-.72-7.18 0-5.222 1.29-9.07 3.9-11.683 2.58-2.617 7-3.906 13.3-3.906 4.42 0 9.46 1.289 15.16 3.906 5.72 2.613 10.99 5.582 15.81 8.902l17.42 75.821h16.85M3481.05 120.699h-.83c-2.37.653-4.63 1-6.68 1.313-2.06.269-4.56.347-7.47.347-5.6 0-11.1-1.289-16.65-3.847-5.52-2.551-10.82-5.633-15.88-9.133l-16.29-72.07h-17.05l22.94 101.242h17.03l-3.36-14.981c7.87 5.59 14.63 9.532 20.16 11.68 5.51 2.191 10.84 3.301 15.9 3.301 2.89 0 5.02-.102 6.35-.25 1.31-.141 3.22-.43 5.7-.821l-3.87-16.781M3518.64 138.551l-23.16-101.242h-16.83l23.18 101.242zm9.22 34.539-4.06-17.57h-19.08l4.06 17.57h19.08M3604.21 138.551l-3.05-13.672h-34.97l-10.6-46.848a95.83 95.83 0 0 1-1.63-8.09c-.44-3.113-.68-5.53-.68-7.363 0-4.418 1.08-7.7 3.3-9.867 2.23-2.172 6.33-3.223 12.27-3.223 2.45 0 5.36.434 8.7 1.313 3.36.86 5.66 1.5 6.85 1.968h.92l-3.14-14.66c-3.34-.84-6.92-1.539-10.74-2.09-3.76-.5-7.12-.84-10.05-.84-8.27 0-14.67 1.86-19.16 5.551-4.51 3.66-6.78 9.418-6.78 17.348 0 1.98.14 3.89.43 5.774.25 1.91.6 4.117 1.09 6.539l12.41 54.488h-11.33l3.04 13.672h11.47l6.64 28.961h16.73l-6.67-28.961h34.95M3619.59 0h-18.86l29.29 43.488-17.99 95.063h17.13l14.1-75.41 47.99 75.41h18.67L3619.59 0M3883.02 106.59c0-10.059-1.58-19.512-4.65-28.36-3.09-8.82-7.15-16.3-12.22-22.53-5.17-6.329-11.15-11.329-17.95-14.97-6.81-3.69-14.14-5.55-21.82-5.55-5.43 0-10.35.672-14.83 1.898-4.55 1.25-8.67 3.012-12.38 5.39L3789.49 0h-16.85l31.63 138.551h16.85l-2.44-10.641c5.57 3.918 11.05 7.199 16.44 9.719 5.41 2.519 11.36 3.851 17.89 3.851 9.74 0 17.2-3.101 22.27-9.218 5.16-6.133 7.74-14.684 7.74-25.672zm-17.41-3.238c0 7.199-1.61 12.769-4.73 16.707-3.11 3.882-8.11 5.839-14.94 5.839-5.02 0-10.2-1.226-15.55-3.726a112.825 112.825 0 0 1-14.97-8.41l-13.11-57.57c3.89-2.133 7.64-3.692 11.16-4.77 3.55-.992 7.89-1.5 12.91-1.5 6.2 0 11.76 1.5 16.73 4.527 4.94 3.032 9.04 6.95 12.26 11.84 3.42 5.07 6 10.742 7.7 16.98 1.66 6.27 2.54 12.97 2.54 20.083M3976.66 120.699h-.85c-2.4.653-4.65 1-6.7 1.313-2.05.269-4.55.347-7.44.347-5.59 0-11.17-1.289-16.7-3.847-5.46-2.551-10.73-5.633-15.81-9.133l-16.33-72.07h-17.02l22.92 101.242h17.03l-3.4-14.981c7.93 5.59 14.66 9.532 20.17 11.68 5.49 2.191 10.84 3.301 15.9 3.301 2.93 0 5.02-.102 6.33-.25 1.35-.141 3.21-.43 5.75-.821l-3.85-16.781M4072.7 102.762c0-9.102-1.37-17.813-4.11-26.16-2.75-8.32-6.6-15.633-11.66-21.801-5.25-6.403-11.26-11.403-18.07-14.992-6.78-3.61-14.75-5.43-23.9-5.43-11.91 0-21.17 3.422-27.87 10.3-6.68 6.88-10.02 16.372-10.02 28.442 0 9.09 1.37 17.77 4.06 25.988 2.8 8.223 6.72 15.582 11.86 21.961 4.94 6.168 11.07 11.11 18.3 14.852 7.2 3.629 15.03 5.558 23.62 5.558 11.53 0 20.75-3.339 27.59-10.019 6.82-6.68 10.2-16.242 10.2-28.699zm-27.38-38.313c3.22 4.84 5.64 10.43 7.4 16.79a80.268 80.268 0 0 1 2.57 20.152c0 8.48-2.03 14.871-6 19.211-4.03 4.339-9.75 6.57-17.03 6.57-5.86 0-11.08-1.41-15.67-4.262-4.6-2.832-8.62-6.648-12.02-11.558-3.18-4.762-5.7-10.372-7.42-16.774a76.575 76.575 0 0 1-2.64-19.95c0-8.339 2.03-14.788 6.06-19.276 4-4.454 9.7-6.68 17.06-6.68 5.76 0 11.03 1.406 15.68 4.18 4.69 2.789 8.69 6.636 12.01 11.597M4194.35 138.551l-63.69-101.242h-16.74l-17.27 101.242h17.09l12.78-81.031 49.33 81.031h18.5M4234.41 138.551l-23.16-101.242h-16.87l23.18 101.242zm9.27 34.539-4.08-17.57h-19.15l4.1 17.57h19.13M4358.42 178.25l-32.45-140.941h-16.89l2.48 10.62c-7.63-5.308-13.71-8.878-18.36-10.738-4.68-1.87-9.7-2.812-15.09-2.812-9.47 0-16.95 3.031-22.51 9.062-5.51 6.047-8.3 14.918-8.3 26.457 0 9.704 1.52 18.961 4.51 27.614 3 8.726 7.03 16.34 12.18 22.84 5.14 6.457 11.15 11.617 18.1 15.41 6.89 3.769 14.34 5.718 22.05 5.718 5.33 0 10.26-.64 14.7-1.761 4.53-1.168 8.73-2.867 12.62-5.168l10.07 43.699zm-30.17-57.73c-4.06 2.109-8.03 3.718-11.85 4.691-3.9.98-8.02 1.508-12.42 1.508-6.26 0-11.85-1.547-16.73-4.547-4.91-3.07-9.09-7.184-12.54-12.492-3.22-4.789-5.66-10.57-7.38-17.328-1.73-6.743-2.52-13.262-2.52-19.524 0-7.457 1.53-13.129 4.65-17.047 3.21-3.91 8.31-5.86 15.36-5.86 5.08 0 10.18 1.27 15.43 3.79 5.22 2.617 10.08 5.309 14.49 8.32l13.51 58.489M4406.75 35.012c-13.85 0-24.78 3.316-32.67 9.867-7.89 6.582-11.81 16.25-11.81 28.95 0 18.523 5.8 34.441 17.46 47.71 11.55 13.281 25.91 19.941 42.99 19.941 11.36 0 20.07-2.89 26.13-8.628 6.01-5.68 9.06-13.711 9.06-23.993 0-1.8-.27-4.687-.8-8.597-.47-3.961-1.31-8.48-2.44-13.711h-73.97c-.33-1.742-.64-3.48-.76-5.14a67.406 67.406 0 0 1-.17-4.692c0-8.559 2.53-15.278 7.64-20.117 5.2-4.864 12.5-7.332 21.94-7.332 6.62 0 13.37 1.308 20.3 3.89 7.01 2.578 12.83 5.512 17.6 8.77h.97l-3.65-18.399a600.383 600.383 0 0 1-8.09-3.011c-2.38-.88-5.43-1.84-9.12-2.72-3.71-.921-6.98-1.562-9.89-2.09-2.85-.491-6.39-.698-10.72-.698zm33.89 63.957c.36 1.761.53 3.242.65 4.422.14 1.168.21 2.539.21 3.941 0 6.449-1.79 11.457-5.27 15.027-3.57 3.59-9.2 5.411-16.9 5.411-8.6 0-16.16-2.641-22.76-7.93-6.58-5.238-11.08-12.199-13.43-20.871h57.5M4549.8 120.699h-.88c-2.41.653-4.59 1-6.68 1.313-2.07.269-4.53.347-7.49.347-5.55 0-11.14-1.289-16.68-3.847-5.43-2.551-10.75-5.633-15.86-9.133l-16.2-72.07h-17.11l22.93 101.242h17.06l-3.42-14.981c7.95 5.59 14.69 9.532 20.23 11.68 5.51 2.191 10.77 3.301 15.83 3.301 2.95 0 5.08-.102 6.35-.25 1.39-.141 3.28-.43 5.76-.821l-3.84-16.781M4734.04 521.176l-55.27-156.047h986.87l.31 1.043c60.86 0 106.71.226 108.25.859 135.34 55.782 206.08 154.145 206.08 154.145H4734.04M4869.39 1016.14l-34.79-98.269h1190.66l-74.59-.008c84.95-.078 190.95.008 192.92.52 135.33 35.39 157.76 97.757 157.76 97.757H4869.39M4808.75 788.469l-47.26-133.352h1096.95l.31.879c65.98-.016 109.87.156 111.51.742 135.32 47.688 183.2 131.731 183.2 131.731H4808.75" transform="matrix(.13333 0 0 -.13333 0 189.453)"/></svg>