<svg id="Blaze_Avatars" xmlns="http://www.w3.org/2000/svg" viewBox="0 0 500 500"><title>Blaze_Information_Security_Avatar_Alternative_White_Vector</title><g id="Blaze_Avatar_Black_On_White"><path id="Blaze_Avatar_Black" d="M396.74,185.24l-.62-10.32-9.73-3.46C310.67,144.55,261.23,96,260.75,95.52l-10.59-9.8-10.61,9.79c-.49.46-49.92,49-125.65,76l-9.71,3.46-.64,10.32c-.09,1.59-2.1,36.07,14,83.07,14.92,43.46,48.83,103.35,125.58,141.83l7,3.5,7-3.5c76.74-38.48,110.63-98.37,125.55-141.83C398.84,221.31,396.83,186.83,396.74,185.24Zm-43.69,78.9a176,176,0,0,1-45.95,71,61.47,61.47,0,0,0-14.5-67.73l.08.08h0a102.17,102.17,0,0,1-30.89-73.33V184a61.53,61.53,0,0,0-32,69.87h0a61.09,61.09,0,0,0,7.8,18.11c.16.23.31.46.45.7a20.49,20.49,0,1,1-37.9,11.73v-8.29a61.52,61.52,0,0,0-7,59.05,176.07,176.07,0,0,1-46-71c-12.53-36.48-12.9-63.25-12.83-64.49l.5-8,7.54-2.69c58.79-20.88,99.09-55.13,99.47-55.48l8.24-7.61,8.22,7.62c.37.34,40.68,34.59,99.47,55.47l7.55,2.69.48,8C366,200.89,365.58,227.66,353.05,264.14Z"/></g></svg>