<svg version="1.1" id="Layer_1" xmlns="http://www.w3.org/2000/svg" xmlns:xlink="http://www.w3.org/1999/xlink" x="0px" y="0px"
	 width="100%" viewBox="0 0 5000 1865" enable-background="new 0 0 5000 1865" xml:space="preserve">
<path fill="#000000" opacity="1.000000" stroke="none" 
	d="
M3464.000000,1868.000000 
	C2309.333496,1868.000000 1155.666992,1868.000000 2.000310,1868.000000 
	C2.000206,1246.000244 2.000206,624.000427 2.000103,2.000477 
	C1668.666138,2.000318 3335.332275,2.000318 5001.999023,2.000159 
	C5001.999023,623.999512 5001.999023,1245.999023 5001.999512,1867.999268 
	C4489.666504,1868.000000 3977.333252,1868.000000 3464.000000,1868.000000 
M4311.893066,1020.932678 
	C4297.746582,1022.088745 4284.282715,1018.584534 4270.572266,1014.901062 
	C4271.016113,1016.045776 4271.786133,1016.614746 4272.636230,1017.011108 
	C4289.287598,1024.772339 4306.303711,1031.295776 4324.901367,1032.524414 
	C4359.277832,1034.795288 4379.365723,1016.946594 4385.728027,987.452393 
	C4389.433594,970.272095 4388.202637,953.024658 4384.952148,935.938171 
	C4377.321289,895.825073 4360.632324,859.351685 4339.390137,824.821594 
	C4315.882324,786.607849 4287.393066,752.505127 4254.279785,722.202576 
	C4228.746582,698.836609 4200.643066,679.641602 4168.151367,667.242615 
	C4154.025879,661.852295 4139.476074,658.682678 4124.300781,659.057983 
	C4100.208496,659.653809 4083.402100,671.895081 4075.166504,694.427856 
	C4070.255127,707.865601 4069.441650,721.836853 4070.594482,735.789307 
	C4071.287354,744.174377 4071.260986,752.992554 4075.654297,760.829224 
	C4076.405273,753.134338 4075.494385,745.386780 4076.567383,737.924500 
	C4080.659424,709.459595 4094.480957,693.366028 4122.283691,691.483521 
	C4127.840820,691.107178 4133.583984,691.929321 4139.111328,692.925110 
	C4162.169922,697.079407 4182.407227,707.805664 4201.583984,720.698364 
	C4228.515137,738.804688 4252.044434,760.717957 4273.255371,785.231262 
	C4306.326172,823.449951 4331.555176,866.194092 4346.952637,914.380127 
	C4353.440430,934.683777 4357.490723,955.589111 4354.195801,977.216675 
	C4350.749023,999.838989 4337.298340,1017.368225 4315.156738,1020.139771 
	C4314.542480,1020.221802 4313.998535,1020.462585 4311.893066,1020.932678 
M4409.867188,1101.224121 
	C4409.317383,1101.090454 4408.767578,1100.956787 4408.218262,1100.822998 
	C4408.219727,1101.076660 4408.163086,1101.532593 4408.231934,1101.552246 
	C4408.830078,1101.723755 4409.451172,1101.817383 4410.669922,1103.190796 
	C4452.386719,1124.798096 4495.896973,1139.311157 4544.350586,1137.042236 
	C4544.947266,1136.764893 4545.543457,1136.487549 4547.815918,1136.055054 
	C4552.410156,1135.298828 4557.072266,1134.826782 4561.586914,1133.739990 
	C4592.119629,1126.390015 4614.866699,1109.198242 4629.158203,1080.864990 
	C4644.704590,1050.043823 4647.361328,1017.021790 4645.311035,983.552124 
	C4642.959473,945.174438 4634.045410,907.917908 4621.576660,871.603577 
	C4596.744629,799.277039 4560.587402,732.733643 4516.894043,670.231812 
	C4478.051758,614.669189 4433.637207,563.871704 4383.851074,517.801758 
	C4358.428711,494.276886 4332.487793,471.412292 4303.515137,452.235474 
	C4264.757324,426.581085 4224.281250,404.429779 4179.433105,391.178558 
	C4151.011719,382.781128 4122.156250,378.848541 4092.651367,384.040436 
	C4072.501953,387.586090 4054.949219,396.196350 4040.093262,410.711975 
	C4021.891357,428.496918 4012.623779,450.532959 4007.913086,474.812744 
	C4001.553711,507.589233 4003.593262,540.362488 4009.334229,573.007202 
	C4010.746338,581.037720 4012.682861,588.976013 4014.344482,596.797241 
	C4014.344482,584.381775 4014.249268,572.109741 4014.366699,559.839783 
	C4014.542969,541.391174 4017.322266,523.358093 4024.021729,506.098175 
	C4034.925049,478.007996 4054.144043,458.721161 4083.527100,450.144348 
	C4103.929199,444.188934 4124.407227,445.317322 4144.835938,449.304871 
	C4176.858398,455.555389 4206.493652,468.269867 4234.853027,484.043060 
	C4274.606445,506.153351 4310.466309,533.539001 4344.275391,563.931885 
	C4381.553223,597.442810 4415.344238,634.099426 4445.688965,673.852844 
	C4491.616699,734.020508 4528.480469,799.419861 4555.091797,870.360596 
	C4568.108398,905.058777 4577.562500,940.801941 4579.952637,977.951843 
	C4581.602539,1003.609680 4580.971680,1029.244141 4571.755371,1053.835327 
	C4559.997070,1085.208008 4538.230469,1105.551636 4505.171387,1112.243530 
	C4493.882812,1114.528564 4482.038086,1114.067139 4469.697266,1114.380737 
	C4469.136230,1114.142700 4468.553223,1114.060303 4466.261719,1114.012817 
	C4451.969238,1111.056274 4437.672852,1108.119873 4423.387207,1105.131592 
	C4418.886719,1104.190186 4414.415039,1103.109375 4409.867188,1101.224121 
M4088.922852,878.011414 
	C4088.131592,877.949646 4087.340088,877.887878 4086.391846,875.979248 
	C4086.019775,852.181030 4086.851562,828.349915 4085.922363,804.747498 
	C4063.497803,802.620972 3936.297363,803.545715 3929.068848,805.759216 
	C3929.068848,967.506348 3929.068848,1129.275269 3929.068848,1291.354492 
	C3981.609375,1291.354492 4033.406250,1291.354492 4086.326172,1291.354492 
	C4086.326172,1286.475952 4086.326172,1282.230713 4086.326172,1277.985474 
	C4086.326416,1201.010010 4086.321777,1124.034424 4086.343994,1047.058960 
	C4086.344971,1043.401489 4086.142090,1039.663452 4086.787109,1036.099121 
	C4093.362793,999.751770 4112.403809,972.243652 4145.411621,955.103088 
	C4174.033203,940.240173 4204.823242,936.518311 4236.584961,938.436096 
	C4238.797363,938.569702 4241.023926,938.453552 4243.678711,938.453552 
	C4243.678711,891.128418 4243.678711,844.691711 4243.678711,798.002991 
	C4237.789062,798.002991 4232.533691,797.652039 4227.338867,798.062378 
	C4201.837402,800.076660 4177.634766,806.622253 4154.899414,818.623962 
	C4128.055664,832.794800 4107.134277,853.270508 4088.922852,878.011414 
M3565.728027,798.971985 
	C3500.135254,803.984558 3439.094727,824.462524 3379.641846,852.560425 
	C3394.779541,887.777405 3409.439697,921.883850 3424.211426,956.250061 
	C3427.493408,954.767700 3429.630371,953.874451 3431.705322,952.854309 
	C3452.959473,942.404724 3474.918457,933.788818 3497.651611,927.105835 
	C3525.660400,918.871887 3554.161377,914.281860 3583.392334,916.109131 
	C3600.110352,917.154297 3616.131348,921.033569 3631.112549,929.220886 
	C3650.455322,939.791809 3667.865234,966.082642 3662.805908,998.004639 
	C3659.076416,998.004639 3655.153076,997.968689 3651.230469,998.010132 
	C3602.620850,998.523926 3553.952393,996.231750 3505.416748,1000.118530 
	C3475.346680,1002.526550 3446.234863,1009.175842 3419.339844,1023.620667 
	C3395.560547,1036.392212 3376.545898,1053.890625 3364.316162,1078.298950 
	C3347.457520,1111.945190 3345.509766,1147.417236 3353.328125,1183.332397 
	C3365.397949,1238.777100 3400.466309,1273.650024 3454.037354,1290.264404 
	C3493.142334,1302.392578 3532.862793,1301.632324 3572.516357,1293.263916 
	C3607.722412,1285.834106 3637.864990,1269.154785 3662.967285,1241.917847 
	C3663.792725,1242.004028 3664.618164,1242.090210 3665.600342,1244.022827 
	C3665.622070,1252.018921 3665.430176,1260.022949 3665.726074,1268.008911 
	C3666.015625,1275.818481 3664.342285,1283.807861 3667.019287,1291.412720 
	C3717.396484,1291.412720 3767.241211,1291.412720 3818.342041,1291.412720 
	C3818.342041,1286.633057 3818.341797,1282.395996 3818.341797,1278.158813 
	C3818.340088,1176.206177 3818.416016,1074.253296 3818.225342,972.300964 
	C3818.204834,961.370911 3817.421387,950.314819 3815.650146,939.537720 
	C3808.261963,894.586731 3786.121582,858.838989 3747.988770,833.338806 
	C3719.104736,814.023682 3686.757080,804.655029 3652.774414,800.026611 
	C3625.299805,796.284607 3597.712158,796.413513 3569.179199,798.120544 
	C3568.538086,798.174927 3567.986816,798.426636 3565.728027,798.971985 
M2373.178955,998.120911 
	C2372.537598,998.175476 2371.986572,998.427368 2369.712646,998.964233 
	C2361.077637,999.314392 2352.410156,999.305420 2343.812988,1000.078247 
	C2310.329590,1003.088196 2278.156006,1010.750549 2249.217529,1028.693604 
	C2221.500488,1045.879395 2202.749512,1070.050903 2193.830811,1101.601807 
	C2187.312500,1124.661255 2186.314941,1148.064941 2189.739746,1171.685669 
	C2195.722412,1212.950317 2215.045654,1246.241333 2249.604980,1270.049683 
	C2275.494873,1287.885864 2304.771484,1295.876831 2336.513184,1299.022461 
	C2336.513184,1299.022461 2337.442627,1299.268433 2337.442627,1299.268433 
	C2337.442627,1299.268433 2338.378906,1299.050049 2339.981445,1299.019653 
	C2353.598145,1298.680908 2367.259033,1298.918823 2380.822510,1297.883301 
	C2408.957764,1295.735107 2435.702393,1288.501587 2460.488281,1274.543945 
	C2476.016602,1265.799683 2489.247314,1254.391968 2502.252197,1241.804688 
	C2502.640625,1241.924438 2503.029297,1242.044067 2503.575684,1244.011841 
	C2503.597900,1252.001953 2503.411133,1259.999756 2503.701660,1267.980103 
	C2503.985596,1275.788086 2502.342773,1283.769897 2504.950684,1291.306641 
	C2523.509521,1293.160522 2649.470947,1292.378296 2657.674316,1290.165894 
	C2657.674316,1286.164673 2657.674072,1281.898682 2657.674072,1277.632690 
	C2657.674316,1204.387451 2657.694336,1131.142090 2657.666016,1057.896851 
	C2657.653564,1025.937012 2657.542480,993.977112 2657.593506,960.998535 
	C2657.168457,960.481628 2656.743652,959.964783 2656.329102,957.872864 
	C2656.285400,955.247620 2656.241699,952.622437 2656.482178,949.501953 
	C2656.569092,948.878479 2656.364746,948.382385 2655.703857,946.394409 
	C2655.101318,942.798828 2654.584473,939.186401 2653.882812,935.610168 
	C2647.782471,904.518921 2634.745605,876.989319 2612.265625,854.249146 
	C2585.340332,827.011414 2551.987305,812.143616 2515.217773,804.184570 
	C2472.800537,795.002991 2430.032715,795.508789 2387.168213,800.657837 
	C2338.898193,806.456238 2292.888184,820.377563 2248.248047,839.213440 
	C2238.502930,843.325439 2228.889893,847.750244 2218.320801,852.427246 
	C2233.346680,887.349426 2247.998047,921.401428 2262.839111,955.893677 
	C2266.860107,954.260803 2269.995361,953.207581 2272.935303,951.758789 
	C2296.599609,940.097473 2321.200439,930.956787 2346.725098,924.330566 
	C2376.631836,916.566772 2406.895508,912.823059 2437.642090,918.099304 
	C2456.356689,921.310852 2473.530029,928.104370 2486.429688,942.977905 
	C2499.868164,958.472900 2503.197998,977.037292 2503.056396,998.175598 
	C2459.850342,998.175598 2416.975342,998.175598 2373.178955,998.120911 
M716.129883,789.076782 
	C726.075134,789.623413 736.156860,789.309265 745.942566,790.861816 
	C795.057556,798.654053 835.788330,822.265259 869.947815,857.887451 
	C874.023132,862.137268 878.121887,866.364502 882.940430,871.359497 
	C914.348877,834.161072 945.145203,797.687561 976.407104,760.662720 
	C972.697388,756.865173 969.616516,753.419373 966.236694,750.297302 
	C936.905701,723.202881 903.833435,701.754150 867.354309,685.634888 
	C832.471436,670.221130 796.201172,659.664368 757.669800,655.227234 
	C757.005859,655.193237 756.341980,655.159302 754.234436,655.045044 
	C752.307983,654.985413 750.381531,654.925781 747.707947,654.346069 
	C747.129272,654.101318 746.532837,654.045349 744.058960,654.037231 
	C724.165588,654.359009 704.272278,654.680847 683.700806,654.642151 
	C683.053650,654.958984 682.406555,655.275879 680.029419,655.849731 
	C600.638367,664.451233 531.157288,694.328674 473.876038,751.018921 
	C435.592285,788.907776 409.387848,833.763794 394.911316,885.457825 
	C385.349487,919.602112 381.594330,954.353821 383.374847,989.969543 
	C385.136475,1025.207275 391.704224,1059.192139 403.863190,1092.187012 
	C418.922272,1133.051880 441.746582,1168.936401 472.096191,1200.263916 
	C500.983795,1230.082397 534.347656,1253.178467 572.232422,1269.891357 
	C609.438843,1286.304932 648.394104,1295.375244 688.956848,1298.152344 
	C718.697021,1300.188599 748.168701,1298.945557 777.363892,1292.881836 
	C841.204956,1279.622070 897.843689,1251.339355 948.161926,1210.192383 
	C958.136902,1202.035522 967.315186,1192.904297 977.701660,1183.457642 
	C945.832703,1149.760498 914.621460,1116.758789 883.197449,1083.532104 
	C880.271179,1085.797119 877.714722,1087.408325 875.598328,1089.470947 
	C855.372620,1109.184082 832.395813,1124.878296 806.834229,1136.827026 
	C779.997375,1149.372070 752.149170,1157.553223 722.157715,1157.045410 
	C660.114807,1155.994751 612.002075,1129.216064 578.240723,1077.617676 
	C552.865051,1038.835571 544.603455,995.592041 549.606323,949.728638 
	C554.802429,902.092712 574.356628,861.593811 610.956787,830.227234 
	C639.891846,805.429749 673.626892,791.737793 713.148682,789.701904 
	C713.532593,789.536072 713.916504,789.370178 716.129883,789.076782 
M3100.625732,863.795593 
	C3100.625732,863.795593 3099.967041,864.024353 3098.748291,863.461609 
	C3073.392090,833.112549 3041.721680,812.931580 3003.068604,803.936829 
	C2962.957031,794.602661 2923.205811,796.361389 2883.714600,807.552917 
	C2852.729004,816.334045 2825.233154,831.518372 2801.720459,853.424133 
	C2769.657471,883.295715 2749.593750,920.402039 2738.367676,962.448181 
	C2727.958496,1001.435059 2725.712158,1041.081055 2729.685791,1081.145874 
	C2733.536865,1119.975586 2743.469971,1156.973389 2763.043213,1191.029297 
	C2791.602295,1240.718994 2833.441650,1273.582642 2888.474854,1289.477051 
	C2913.313721,1296.650879 2938.787598,1298.830688 2964.576904,1298.016846 
	C3006.203613,1296.703003 3043.576904,1283.906616 3075.324707,1256.510376 
	C3084.088379,1248.947754 3091.869141,1240.245972 3100.699219,1232.256836 
	C3100.699219,1232.256836 3101.325684,1232.220825 3101.559326,1234.054565 
	C3102.030518,1253.177979 3101.054199,1272.351807 3102.109619,1291.416260 
	C3154.730713,1291.416260 3205.901855,1291.416260 3256.951660,1291.416260 
	C3259.234131,1280.029907 3258.787598,629.355103 3256.554688,621.865112 
	C3255.348145,621.634399 3254.055176,621.172668 3252.761475,621.170837 
	C3205.125488,621.103699 3157.489258,621.070129 3109.853271,621.080872 
	C3107.883057,621.081360 3105.910645,621.535278 3103.945557,621.822998 
	C3103.659180,621.864868 3103.385010,622.131714 3103.149902,622.344116 
	C3102.905273,622.565613 3102.714844,622.847107 3101.658447,624.105774 
	C3101.658447,627.381104 3101.658447,631.665161 3101.658447,635.949219 
	C3101.658447,707.570862 3101.664062,779.192566 3101.644043,850.814209 
	C3101.642822,855.139282 3101.434570,859.464355 3100.625732,863.795593 
M1572.294922,880.999878 
	C1572.474854,1017.305725 1572.654419,1153.611572 1572.860840,1289.917358 
	C1572.861206,1290.172363 1573.249634,1290.434204 1573.471436,1290.679688 
	C1573.690674,1290.922241 1573.928467,1291.148193 1574.165283,1291.374268 
	C1593.174194,1293.261230 1726.485840,1292.408203 1734.333008,1290.140015 
	C1734.333008,1261.059937 1734.291626,1231.761230 1734.344482,1202.462769 
	C1734.397095,1173.263550 1734.107788,1144.057007 1734.532104,1114.443359 
	C1777.095825,1114.443359 1818.312622,1114.443359 1860.251831,1114.443359 
	C1891.477295,1173.516724 1922.715576,1232.614380 1953.749756,1291.325684 
	C2015.064697,1291.325684 2075.487793,1291.325684 2137.541992,1291.325684 
	C2093.067871,1221.465698 2049.367432,1152.820923 2005.352783,1083.682861 
	C2009.308960,1081.304810 2012.339355,1079.355347 2015.484863,1077.614014 
	C2031.618408,1068.682739 2046.287109,1057.644897 2059.153564,1044.584351 
	C2086.216797,1017.112793 2103.478760,984.056213 2111.993652,946.527344 
	C2119.332031,914.184509 2121.555908,881.479797 2117.694824,848.437195 
	C2114.499268,821.088440 2107.605469,794.845886 2094.517578,770.472961 
	C2072.107666,728.740173 2037.525879,700.817505 1994.310791,682.913818 
	C1955.018921,666.635437 1913.646851,659.611877 1871.507690,659.266602 
	C1775.189697,658.477356 1678.860840,659.014343 1582.536377,659.072998 
	C1579.381714,659.074890 1576.227539,659.730347 1572.294922,660.167603 
	C1572.294922,733.793152 1572.294922,806.396484 1572.294922,880.999878 
M1081.622681,1055.507935 
	C1109.946533,1122.298340 1138.312500,1189.071045 1166.541260,1255.901489 
	C1170.133301,1264.405518 1175.815308,1273.339478 1175.430054,1281.843506 
	C1175.040771,1290.439087 1168.465088,1298.823486 1164.319214,1307.161255 
	C1159.829834,1316.190308 1153.987549,1324.201782 1145.889648,1330.463501 
	C1128.386108,1343.999146 1108.526001,1345.127563 1087.893066,1341.322021 
	C1073.505493,1338.668579 1061.260986,1331.141357 1049.428589,1322.928101 
	C1046.833862,1321.126953 1044.147461,1319.457642 1041.024536,1317.414307 
	C1019.032532,1353.485352 997.611450,1388.619995 975.931519,1424.179077 
	C993.114258,1438.112305 1011.046814,1448.787109 1030.372437,1457.115723 
	C1072.695435,1475.354980 1116.808838,1478.107666 1161.664062,1470.669678 
	C1198.813599,1464.509399 1230.860718,1447.924194 1257.390015,1420.743652 
	C1279.898560,1397.682617 1295.629395,1370.462891 1307.325684,1340.853271 
	C1337.893921,1263.468750 1367.999512,1185.901733 1398.338257,1108.426514 
	C1433.408203,1018.868774 1468.540405,929.335449 1503.617065,839.780334 
	C1508.075562,828.396912 1512.362061,816.946045 1517.082397,804.600586 
	C1464.378296,804.600586 1412.906616,804.600586 1360.729492,804.600586 
	C1326.033325,910.706116 1291.356567,1016.752441 1256.679688,1122.798706 
	C1255.919678,1122.766846 1255.159668,1122.734863 1254.399536,1122.702881 
	C1251.534180,1115.015869 1248.650024,1107.335815 1245.806152,1099.640991 
	C1210.625977,1004.450012 1175.404907,909.274170 1140.339233,814.041077 
	C1136.300049,803.071167 1137.309448,804.021362 1126.505005,804.013306 
	C1079.840820,803.978577 1033.176636,803.998535 986.512390,803.998596 
	C983.255493,803.998596 979.998657,803.998535 974.773987,803.998535 
	C1010.434204,888.451721 1045.720459,971.283081 1081.622681,1055.507935 
M4437.292480,787.681458 
	C4423.752930,767.507568 4410.920410,746.813232 4396.523926,727.270630 
	C4368.603516,689.369324 4336.272461,655.356995 4301.596680,623.561829 
	C4266.963867,591.806274 4228.644531,565.631775 4185.200195,547.404236 
	C4161.093262,537.290100 4136.319336,530.411255 4109.681641,530.869690 
	C4070.375000,531.546143 4041.844727,553.421265 4031.834717,591.436157 
	C4026.594971,611.336060 4026.368164,631.486450 4027.923828,651.736694 
	C4028.910645,664.580505 4030.562988,677.382751 4035.056152,689.669678 
	C4035.580811,686.732910 4036.026367,683.754150 4035.506592,680.954590 
	C4032.641846,665.522217 4034.970947,650.322876 4038.541016,635.497498 
	C4045.281006,607.512512 4061.279541,587.402893 4090.695557,581.209839 
	C4099.672852,579.319946 4109.261230,578.900818 4118.428711,579.616272 
	C4147.219727,581.863281 4173.314453,592.845093 4198.234375,606.670654 
	C4252.850098,636.971802 4297.739258,678.833130 4338.096680,725.861145 
	C4365.948730,758.317139 4389.343262,793.803528 4409.381836,831.630249 
	C4433.097168,876.397156 4451.859375,922.732971 4457.020508,973.600098 
	C4459.155273,994.639709 4458.162109,1015.632690 4449.841309,1035.477539 
	C4441.865234,1054.502563 4428.538574,1068.109741 4408.334961,1074.438599 
	C4387.783203,1080.876587 4367.550293,1078.362183 4347.333984,1073.062622 
	C4341.965332,1071.655151 4336.645020,1070.061401 4331.302734,1068.553223 
	C4339.208008,1074.102417 4347.585938,1078.117310 4356.221191,1081.468506 
	C4378.427734,1090.086426 4401.210938,1096.003540 4425.335449,1094.975708 
	C4454.709961,1093.724243 4478.199707,1081.883789 4492.865234,1055.804199 
	C4502.676270,1038.357422 4505.916016,1018.967712 4506.364746,999.063416 
	C4507.327148,956.319641 4496.145020,916.052368 4481.186523,876.636353 
	C4469.585938,846.066772 4454.703613,817.044983 4437.292480,787.681458 
z"/>
<path fill="#035BA9" opacity="1.000000" stroke="none" 
	d="
M1572.294922,879.999878 
	C1572.294922,806.396484 1572.294922,733.793152 1572.294922,660.167603 
	C1576.227539,659.730347 1579.381714,659.074890 1582.536377,659.072998 
	C1678.860840,659.014343 1775.189697,658.477356 1871.507690,659.266602 
	C1913.646851,659.611877 1955.018921,666.635437 1994.310791,682.913818 
	C2037.525879,700.817505 2072.107666,728.740173 2094.517578,770.472961 
	C2107.605469,794.845886 2114.499268,821.088440 2117.694824,848.437195 
	C2121.555908,881.479797 2119.332031,914.184509 2111.993652,946.527344 
	C2103.478760,984.056213 2086.216797,1017.112793 2059.153564,1044.584351 
	C2046.287109,1057.644897 2031.618408,1068.682739 2015.484863,1077.614014 
	C2012.339355,1079.355347 2009.308960,1081.304810 2005.352783,1083.682861 
	C2049.367432,1152.820923 2093.067871,1221.465698 2137.541992,1291.325684 
	C2075.487793,1291.325684 2015.064697,1291.325684 1953.749756,1291.325684 
	C1922.715576,1232.614380 1891.477295,1173.516724 1860.251831,1114.443359 
	C1818.312622,1114.443359 1777.095825,1114.443359 1734.532104,1114.443359 
	C1734.107788,1144.057007 1734.397095,1173.263550 1734.344482,1202.462769 
	C1734.291626,1231.761230 1734.333008,1261.059937 1734.333008,1290.140015 
	C1726.485840,1292.408203 1593.174194,1293.261230 1574.161621,1291.377930 
	C1573.928467,1291.148193 1573.690674,1290.922241 1573.471436,1290.679688 
	C1573.249634,1290.434204 1572.861206,1290.172363 1572.860840,1289.917358 
	C1572.654419,1153.611572 1572.474854,1017.305725 1572.294922,879.999878 
M1734.330811,928.999878 
	C1734.330811,947.851562 1734.330811,966.703247 1734.330811,986.129700 
	C1738.966309,986.498535 1742.224854,986.978943 1745.484009,986.983398 
	C1782.455078,987.034058 1819.427124,987.178772 1856.396484,986.926392 
	C1871.045654,986.826416 1885.573120,985.117432 1899.733887,980.918518 
	C1932.442383,971.219910 1953.501099,950.221069 1961.981079,917.007141 
	C1966.312378,900.041870 1966.867554,882.867371 1964.291870,865.567322 
	C1959.086792,830.605347 1940.723999,806.277710 1906.956665,794.226746 
	C1890.119263,788.217773 1872.611084,786.281189 1854.969971,786.108337 
	C1818.335571,785.749207 1781.695190,785.985413 1745.057251,786.024902 
	C1741.837158,786.028381 1738.617432,786.385071 1734.330811,786.641479 
	C1734.330811,833.907898 1734.330811,880.453857 1734.330811,928.999878 
z"/>
<path fill="#035BA9" opacity="1.000000" stroke="none" 
	d="
M3100.100830,1232.066895 
	C3091.869141,1240.245972 3084.088379,1248.947754 3075.324707,1256.510376 
	C3043.576904,1283.906616 3006.203613,1296.703003 2964.576904,1298.016846 
	C2938.787598,1298.830688 2913.313721,1296.650879 2888.474854,1289.477051 
	C2833.441650,1273.582642 2791.602295,1240.718994 2763.043213,1191.029297 
	C2743.469971,1156.973389 2733.536865,1119.975586 2729.685791,1081.145874 
	C2725.712158,1041.081055 2727.958496,1001.435059 2738.367676,962.448181 
	C2749.593750,920.402039 2769.657471,883.295715 2801.720459,853.424133 
	C2825.233154,831.518372 2852.729004,816.334045 2883.714600,807.552917 
	C2923.205811,796.361389 2962.957031,794.602661 3003.068604,803.936829 
	C3041.721680,812.931580 3073.392090,833.112549 3099.505371,864.047485 
	C3100.615967,864.351990 3100.969482,864.070740 3101.322754,863.789429 
	C3101.434570,859.464355 3101.642822,855.139282 3101.644043,850.814209 
	C3101.664062,779.192566 3101.658447,707.570862 3101.658447,635.949219 
	C3101.658447,631.665161 3101.658447,627.381104 3101.658447,624.105774 
	C3102.714844,622.847107 3102.905273,622.565613 3103.149902,622.344116 
	C3103.385010,622.131714 3103.659180,621.864868 3103.945557,621.822998 
	C3105.910645,621.535278 3107.883057,621.081360 3109.853271,621.080872 
	C3157.489258,621.070129 3205.125488,621.103699 3252.761475,621.170837 
	C3254.055176,621.172668 3255.348145,621.634399 3256.554688,621.865112 
	C3258.787598,629.355103 3259.234131,1280.029907 3256.951660,1291.416260 
	C3205.901855,1291.416260 3154.730713,1291.416260 3102.109619,1291.416260 
	C3101.054199,1272.351807 3102.030518,1253.177979 3101.460938,1232.805420 
	C3101.362793,1231.556396 3100.592529,1231.267334 3100.592529,1231.267334 
	C3100.592529,1231.267334 3100.100830,1232.066895 3100.100830,1232.066895 
M3063.337402,949.633301 
	C3042.944824,931.601257 3019.163330,923.250305 2991.938965,923.944153 
	C2950.958008,924.988708 2920.747803,943.542480 2901.801270,979.663147 
	C2882.976074,1015.552368 2881.289062,1053.543823 2890.890869,1092.233521 
	C2896.190186,1113.587524 2906.234375,1132.834473 2922.343262,1148.089966 
	C2942.534180,1167.211304 2966.716309,1176.647827 2994.832764,1176.072388 
	C3039.061523,1175.167358 3069.855713,1153.756226 3088.356445,1114.493530 
	C3101.297119,1087.030029 3103.975586,1057.713867 3100.297119,1027.725220 
	C3096.665527,998.116272 3085.827393,971.880249 3063.337402,949.633301 
z"/>
<path fill="#035BA9" opacity="1.000000" stroke="none" 
	d="
M748.455078,654.866150 
	C750.381531,654.925781 752.307983,654.985413 755.548401,655.332764 
	C757.287537,655.672546 757.712708,655.724548 758.137878,655.776611 
	C796.201172,659.664368 832.471436,670.221130 867.354309,685.634888 
	C903.833435,701.754150 936.905701,723.202881 966.236694,750.297302 
	C969.616516,753.419373 972.697388,756.865173 976.407104,760.662720 
	C945.145203,797.687561 914.348877,834.161072 882.940430,871.359497 
	C878.121887,866.364502 874.023132,862.137268 869.947815,857.887451 
	C835.788330,822.265259 795.057556,798.654053 745.942566,790.861816 
	C736.156860,789.309265 726.075134,789.623413 714.897339,789.011230 
	C713.076843,789.242249 712.488953,789.538757 711.901062,789.835205 
	C673.626892,791.737793 639.891846,805.429749 610.956787,830.227234 
	C574.356628,861.593811 554.802429,902.092712 549.606323,949.728638 
	C544.603455,995.592041 552.865051,1038.835571 578.240723,1077.617676 
	C612.002075,1129.216064 660.114807,1155.994751 722.157715,1157.045410 
	C752.149170,1157.553223 779.997375,1149.372070 806.834229,1136.827026 
	C832.395813,1124.878296 855.372620,1109.184082 875.598328,1089.470947 
	C877.714722,1087.408325 880.271179,1085.797119 883.197449,1083.532104 
	C914.621460,1116.758789 945.832703,1149.760498 977.701660,1183.457642 
	C967.315186,1192.904297 958.136902,1202.035522 948.161926,1210.192383 
	C897.843689,1251.339355 841.204956,1279.622070 777.363892,1292.881836 
	C748.168701,1298.945557 718.697021,1300.188599 688.956848,1298.152344 
	C648.394104,1295.375244 609.438843,1286.304932 572.232422,1269.891357 
	C534.347656,1253.178467 500.983795,1230.082397 472.096191,1200.263916 
	C441.746582,1168.936401 418.922272,1133.051880 403.863190,1092.187012 
	C391.704224,1059.192139 385.136475,1025.207275 383.374847,989.969543 
	C381.594330,954.353821 385.349487,919.602112 394.911316,885.457825 
	C409.387848,833.763794 435.592285,788.907776 473.876038,751.018921 
	C531.157288,694.328674 600.638367,664.451233 681.565796,655.648926 
	C683.527771,655.299561 683.953308,655.151123 684.378906,655.002625 
	C704.272278,654.680847 724.165588,654.359009 745.357788,654.380493 
	C746.656616,654.723816 747.541565,654.975403 747.541565,654.975403 
	C747.541565,654.975403 748.455078,654.866150 748.455078,654.866150 
z"/>
<path fill="#035BA8" opacity="1.000000" stroke="none" 
	d="
M1081.321899,1054.808105 
	C1045.720459,971.283081 1010.434204,888.451721 974.773987,803.998535 
	C979.998657,803.998535 983.255493,803.998596 986.512390,803.998596 
	C1033.176636,803.998535 1079.840820,803.978577 1126.505005,804.013306 
	C1137.309448,804.021362 1136.300049,803.071167 1140.339233,814.041077 
	C1175.404907,909.274170 1210.625977,1004.450012 1245.806152,1099.640991 
	C1248.650024,1107.335815 1251.534180,1115.015869 1254.399536,1122.702881 
	C1255.159668,1122.734863 1255.919678,1122.766846 1256.679688,1122.798706 
	C1291.356567,1016.752441 1326.033325,910.706116 1360.729492,804.600586 
	C1412.906616,804.600586 1464.378296,804.600586 1517.082397,804.600586 
	C1512.362061,816.946045 1508.075562,828.396912 1503.617065,839.780334 
	C1468.540405,929.335449 1433.408203,1018.868774 1398.338257,1108.426514 
	C1367.999512,1185.901733 1337.893921,1263.468750 1307.325684,1340.853271 
	C1295.629395,1370.462891 1279.898560,1397.682617 1257.390015,1420.743652 
	C1230.860718,1447.924194 1198.813599,1464.509399 1161.664062,1470.669678 
	C1116.808838,1478.107666 1072.695435,1475.354980 1030.372437,1457.115723 
	C1011.046814,1448.787109 993.114258,1438.112305 975.931519,1424.179077 
	C997.611450,1388.619995 1019.032532,1353.485352 1041.024536,1317.414307 
	C1044.147461,1319.457642 1046.833862,1321.126953 1049.428589,1322.928101 
	C1061.260986,1331.141357 1073.505493,1338.668579 1087.893066,1341.322021 
	C1108.526001,1345.127563 1128.386108,1343.999146 1145.889648,1330.463501 
	C1153.987549,1324.201782 1159.829834,1316.190308 1164.319214,1307.161255 
	C1168.465088,1298.823486 1175.040771,1290.439087 1175.430054,1281.843506 
	C1175.815308,1273.339478 1170.133301,1264.405518 1166.541260,1255.901489 
	C1138.312500,1189.071045 1109.946533,1122.298340 1081.321899,1054.808105 
z"/>
<path fill="#035BA9" opacity="1.000000" stroke="none" 
	d="
M2501.148193,1241.286865 
	C2489.247314,1254.391968 2476.016602,1265.799683 2460.488281,1274.543945 
	C2435.702393,1288.501587 2408.957764,1295.735107 2380.822510,1297.883301 
	C2367.259033,1298.918823 2353.598145,1298.680908 2338.785400,1298.798828 
	C2336.999512,1298.352295 2336.394043,1298.296631 2335.772705,1298.410767 
	C2304.771484,1295.876831 2275.494873,1287.885864 2249.604980,1270.049683 
	C2215.045654,1246.241333 2195.722412,1212.950317 2189.739746,1171.685669 
	C2186.314941,1148.064941 2187.312500,1124.661255 2193.830811,1101.601807 
	C2202.749512,1070.050903 2221.500488,1045.879395 2249.217529,1028.693604 
	C2278.156006,1010.750549 2310.329590,1003.088196 2343.812988,1000.078247 
	C2352.410156,999.305420 2361.077637,999.314392 2371.082764,998.973511 
	C2373.097900,998.909546 2373.647217,998.640503 2374.100586,998.175598 
	C2416.975342,998.175598 2459.850342,998.175598 2503.056396,998.175598 
	C2503.197998,977.037292 2499.868164,958.472900 2486.429688,942.977905 
	C2473.530029,928.104370 2456.356689,921.310852 2437.642090,918.099304 
	C2406.895508,912.823059 2376.631836,916.566772 2346.725098,924.330566 
	C2321.200439,930.956787 2296.599609,940.097473 2272.935303,951.758789 
	C2269.995361,953.207581 2266.860107,954.260803 2262.839111,955.893677 
	C2247.998047,921.401428 2233.346680,887.349426 2218.320801,852.427246 
	C2228.889893,847.750244 2238.502930,843.325439 2248.248047,839.213440 
	C2292.888184,820.377563 2338.898193,806.456238 2387.168213,800.657837 
	C2430.032715,795.508789 2472.800537,795.002991 2515.217773,804.184570 
	C2551.987305,812.143616 2585.340332,827.011414 2612.265625,854.249146 
	C2634.745605,876.989319 2647.782471,904.518921 2653.882812,935.610168 
	C2654.584473,939.186401 2655.101318,942.798828 2655.653320,947.452637 
	C2655.526367,949.125122 2655.724854,949.620605 2656.198242,949.997192 
	C2656.241699,952.622437 2656.285400,955.247620 2656.433838,959.122681 
	C2656.779541,960.961426 2657.092041,961.509705 2657.476074,962.017273 
	C2657.542480,993.977112 2657.653564,1025.937012 2657.666016,1057.896851 
	C2657.694336,1131.142090 2657.674316,1204.387451 2657.674072,1277.632690 
	C2657.674072,1281.898682 2657.674316,1286.164673 2657.674316,1290.165894 
	C2649.470947,1292.378296 2523.509521,1293.160522 2504.950684,1291.306641 
	C2502.342773,1283.769897 2503.985596,1275.788086 2503.701660,1267.980103 
	C2503.411133,1259.999756 2503.597900,1252.001953 2503.622559,1242.693115 
	C2502.829102,1241.345093 2501.988770,1241.316040 2501.148193,1241.286865 
M2397.076172,1083.989258 
	C2390.139404,1084.693970 2383.058350,1084.742188 2376.293457,1086.228516 
	C2357.324951,1090.395386 2342.014404,1099.429688 2337.222168,1119.967651 
	C2335.882080,1125.710693 2335.713379,1131.828125 2335.738281,1137.770508 
	C2335.833984,1160.493042 2347.891846,1177.663208 2369.086670,1186.322388 
	C2382.970703,1191.994751 2397.332031,1193.102051 2412.100586,1192.046265 
	C2434.912354,1190.416016 2455.844482,1183.737549 2473.891602,1169.359253 
	C2488.047852,1158.080811 2499.681396,1144.335815 2502.437256,1126.189697 
	C2504.496582,1112.630615 2502.843750,1098.507690 2502.843750,1083.878418 
	C2498.687988,1083.564819 2494.777100,1083.027710 2490.864502,1083.014282 
	C2467.546143,1082.934082 2444.226318,1082.897461 2420.908203,1083.020508 
	C2413.600830,1083.058960 2406.295898,1083.636108 2397.076172,1083.989258 
z"/>
<path fill="#035BA9" opacity="1.000000" stroke="none" 
	d="
M3661.725586,1241.818237 
	C3637.864990,1269.154785 3607.722412,1285.834106 3572.516357,1293.263916 
	C3532.862793,1301.632324 3493.142334,1302.392578 3454.037354,1290.264404 
	C3400.466309,1273.650024 3365.397949,1238.777100 3353.328125,1183.332397 
	C3345.509766,1147.417236 3347.457520,1111.945190 3364.316162,1078.298950 
	C3376.545898,1053.890625 3395.560547,1036.392212 3419.339844,1023.620667 
	C3446.234863,1009.175842 3475.346680,1002.526550 3505.416748,1000.118530 
	C3553.952393,996.231750 3602.620850,998.523926 3651.230469,998.010132 
	C3655.153076,997.968689 3659.076416,998.004639 3662.805908,998.004639 
	C3667.865234,966.082642 3650.455322,939.791809 3631.112549,929.220886 
	C3616.131348,921.033569 3600.110352,917.154297 3583.392334,916.109131 
	C3554.161377,914.281860 3525.660400,918.871887 3497.651611,927.105835 
	C3474.918457,933.788818 3452.959473,942.404724 3431.705322,952.854309 
	C3429.630371,953.874451 3427.493408,954.767700 3424.211426,956.250061 
	C3409.439697,921.883850 3394.779541,887.777405 3379.641846,852.560425 
	C3439.094727,824.462524 3500.135254,803.984558 3567.090332,798.976990 
	C3569.097900,798.909058 3569.647217,798.640198 3570.100830,798.175476 
	C3597.712158,796.413513 3625.299805,796.284607 3652.774414,800.026611 
	C3686.757080,804.655029 3719.104736,814.023682 3747.988770,833.338806 
	C3786.121582,858.838989 3808.261963,894.586731 3815.650146,939.537720 
	C3817.421387,950.314819 3818.204834,961.370911 3818.225342,972.300964 
	C3818.416016,1074.253296 3818.340088,1176.206177 3818.341797,1278.158813 
	C3818.341797,1282.395996 3818.342041,1286.633057 3818.342041,1291.412720 
	C3767.241211,1291.412720 3717.396484,1291.412720 3667.019287,1291.412720 
	C3664.342285,1283.807861 3666.015625,1275.818481 3665.726074,1268.008911 
	C3665.430176,1260.022949 3665.622070,1252.018921 3665.629639,1242.606812 
	C3663.837402,1238.200317 3662.737549,1239.733887 3661.725586,1241.818237 
M3562.086426,1083.956543 
	C3549.255615,1083.386353 3536.819336,1085.472900 3524.895752,1090.112305 
	C3511.322266,1095.393433 3501.959229,1105.014038 3498.461670,1119.254272 
	C3490.465820,1151.808838 3505.512207,1182.231079 3541.919922,1189.994263 
	C3571.484863,1196.298706 3599.420166,1191.305054 3625.479248,1176.034790 
	C3639.270264,1167.953369 3649.800049,1156.751831 3657.735352,1142.821899 
	C3668.440186,1124.030151 3662.923584,1103.939087 3664.395508,1083.124023 
	C3630.955811,1083.124023 3598.700684,1083.124023 3565.527100,1083.020752 
	C3564.888672,1083.093750 3564.345215,1083.360474 3562.086426,1083.956543 
z"/>
<path fill="#035BA9" opacity="1.000000" stroke="none" 
	d="
M4090.112305,878.069580 
	C4107.134277,853.270508 4128.055664,832.794800 4154.899414,818.623962 
	C4177.634766,806.622253 4201.837402,800.076660 4227.338867,798.062378 
	C4232.533691,797.652039 4237.789062,798.002991 4243.678711,798.002991 
	C4243.678711,844.691711 4243.678711,891.128418 4243.678711,938.453552 
	C4241.023926,938.453552 4238.797363,938.569702 4236.584961,938.436096 
	C4204.823242,936.518311 4174.033203,940.240173 4145.411621,955.103088 
	C4112.403809,972.243652 4093.362793,999.751770 4086.787109,1036.099121 
	C4086.142090,1039.663452 4086.344971,1043.401489 4086.343994,1047.058960 
	C4086.321777,1124.034424 4086.326416,1201.010010 4086.326172,1277.985474 
	C4086.326172,1282.230713 4086.326172,1286.475952 4086.326172,1291.354492 
	C4033.406250,1291.354492 3981.609375,1291.354492 3929.068848,1291.354492 
	C3929.068848,1129.275269 3929.068848,967.506348 3929.068848,805.759216 
	C3936.297363,803.545715 4063.497803,802.620972 4085.922363,804.747498 
	C4086.851562,828.349915 4086.019775,852.181030 4086.306152,877.380676 
	C4086.662598,879.656067 4087.104248,880.530090 4087.546143,881.404053 
	C4088.401367,880.292542 4089.256836,879.181030 4090.112305,878.069580 
z"/>
<path fill="#009244" opacity="1.000000" stroke="none" 
	d="
M4543.705078,1136.823120 
	C4495.896973,1139.311157 4452.386719,1124.798096 4410.333984,1102.601807 
	C4409.997559,1102.012817 4409.930176,1102.092407 4409.930176,1102.092407 
	C4414.415039,1103.109375 4418.886719,1104.190186 4423.387207,1105.131592 
	C4437.672852,1108.119873 4451.969238,1111.056274 4467.479004,1114.317017 
	C4468.696289,1114.621216 4469.553711,1114.876587 4469.553711,1114.876587 
	C4469.553711,1114.876587 4470.447754,1114.860596 4470.447754,1114.860596 
	C4482.038086,1114.067139 4493.882812,1114.528564 4505.171387,1112.243530 
	C4538.230469,1105.551636 4559.997070,1085.208008 4571.755371,1053.835327 
	C4580.971680,1029.244141 4581.602539,1003.609680 4579.952637,977.951843 
	C4577.562500,940.801941 4568.108398,905.058777 4555.091797,870.360596 
	C4528.480469,799.419861 4491.616699,734.020508 4445.688965,673.852844 
	C4415.344238,634.099426 4381.553223,597.442810 4344.275391,563.931885 
	C4310.466309,533.539001 4274.606445,506.153351 4234.853027,484.043060 
	C4206.493652,468.269867 4176.858398,455.555389 4144.835938,449.304871 
	C4124.407227,445.317322 4103.929199,444.188934 4083.527100,450.144348 
	C4054.144043,458.721161 4034.925049,478.007996 4024.021729,506.098175 
	C4017.322266,523.358093 4014.542969,541.391174 4014.366699,559.839783 
	C4014.249268,572.109741 4014.344482,584.381775 4014.344482,596.797241 
	C4012.682861,588.976013 4010.746338,581.037720 4009.334229,573.007202 
	C4003.593262,540.362488 4001.553711,507.589233 4007.913086,474.812744 
	C4012.623779,450.532959 4021.891357,428.496918 4040.093262,410.711975 
	C4054.949219,396.196350 4072.501953,387.586090 4092.651367,384.040436 
	C4122.156250,378.848541 4151.011719,382.781128 4179.433105,391.178558 
	C4224.281250,404.429779 4264.757324,426.581085 4303.515137,452.235474 
	C4332.487793,471.412292 4358.428711,494.276886 4383.851074,517.801758 
	C4433.637207,563.871704 4478.051758,614.669189 4516.894043,670.231812 
	C4560.587402,732.733643 4596.744629,799.277039 4621.576660,871.603577 
	C4634.045410,907.917908 4642.959473,945.174438 4645.311035,983.552124 
	C4647.361328,1017.021790 4644.704590,1050.043823 4629.158203,1080.864990 
	C4614.866699,1109.198242 4592.119629,1126.390015 4561.586914,1133.739990 
	C4557.072266,1134.826782 4552.410156,1135.298828 4546.352539,1136.218750 
	C4544.494141,1136.529297 4544.099609,1136.676270 4543.705078,1136.823120 
z"/>
<path fill="#009144" opacity="1.000000" stroke="none" 
	d="
M4437.634766,788.323792 
	C4454.703613,817.044983 4469.585938,846.066772 4481.186523,876.636353 
	C4496.145020,916.052368 4507.327148,956.319641 4506.364746,999.063416 
	C4505.916016,1018.967712 4502.676270,1038.357422 4492.865234,1055.804199 
	C4478.199707,1081.883789 4454.709961,1093.724243 4425.335449,1094.975708 
	C4401.210938,1096.003540 4378.427734,1090.086426 4356.221191,1081.468506 
	C4347.585938,1078.117310 4339.208008,1074.102417 4331.302734,1068.553223 
	C4336.645020,1070.061401 4341.965332,1071.655151 4347.333984,1073.062622 
	C4367.550293,1078.362183 4387.783203,1080.876587 4408.334961,1074.438599 
	C4428.538574,1068.109741 4441.865234,1054.502563 4449.841309,1035.477539 
	C4458.162109,1015.632690 4459.155273,994.639709 4457.020508,973.600098 
	C4451.859375,922.732971 4433.097168,876.397156 4409.381836,831.630249 
	C4389.343262,793.803528 4365.948730,758.317139 4338.096680,725.861145 
	C4297.739258,678.833130 4252.850098,636.971802 4198.234375,606.670654 
	C4173.314453,592.845093 4147.219727,581.863281 4118.428711,579.616272 
	C4109.261230,578.900818 4099.672852,579.319946 4090.695557,581.209839 
	C4061.279541,587.402893 4045.281006,607.512512 4038.541016,635.497498 
	C4034.970947,650.322876 4032.641846,665.522217 4035.506592,680.954590 
	C4036.026367,683.754150 4035.580811,686.732910 4035.056152,689.669678 
	C4030.562988,677.382751 4028.910645,664.580505 4027.923828,651.736694 
	C4026.368164,631.486450 4026.594971,611.336060 4031.834717,591.436157 
	C4041.844727,553.421265 4070.375000,531.546143 4109.681641,530.869690 
	C4136.319336,530.411255 4161.093262,537.290100 4185.200195,547.404236 
	C4228.644531,565.631775 4266.963867,591.806274 4301.596680,623.561829 
	C4336.272461,655.356995 4368.603516,689.369324 4396.523926,727.270630 
	C4410.920410,746.813232 4423.752930,767.507568 4437.634766,788.323792 
z"/>
<path fill="#009144" opacity="1.000000" stroke="none" 
	d="
M4316.058594,1020.129456 
	C4337.298340,1017.368225 4350.749023,999.838989 4354.195801,977.216675 
	C4357.490723,955.589111 4353.440430,934.683777 4346.952637,914.380127 
	C4331.555176,866.194092 4306.326172,823.449951 4273.255371,785.231262 
	C4252.044434,760.717957 4228.515137,738.804688 4201.583984,720.698364 
	C4182.407227,707.805664 4162.169922,697.079407 4139.111328,692.925110 
	C4133.583984,691.929321 4127.840820,691.107178 4122.283691,691.483521 
	C4094.480957,693.366028 4080.659424,709.459595 4076.567383,737.924500 
	C4075.494385,745.386780 4076.405273,753.134338 4075.654297,760.829224 
	C4071.260986,752.992554 4071.287354,744.174377 4070.594482,735.789307 
	C4069.441650,721.836853 4070.255127,707.865601 4075.166504,694.427856 
	C4083.402100,671.895081 4100.208496,659.653809 4124.300781,659.057983 
	C4139.476074,658.682678 4154.025879,661.852295 4168.151367,667.242615 
	C4200.643066,679.641602 4228.746582,698.836609 4254.279785,722.202576 
	C4287.393066,752.505127 4315.882324,786.607849 4339.390137,824.821594 
	C4360.632324,859.351685 4377.321289,895.825073 4384.952148,935.938171 
	C4388.202637,953.024658 4389.433594,970.272095 4385.728027,987.452393 
	C4379.365723,1016.946594 4359.277832,1034.795288 4324.901367,1032.524414 
	C4306.303711,1031.295776 4289.287598,1024.772339 4272.636230,1017.011108 
	C4271.786133,1016.614746 4271.016113,1016.045776 4270.572266,1014.901062 
	C4284.282715,1018.584534 4297.746582,1022.088745 4313.162109,1020.903442 
	C4315.044434,1020.779053 4315.586426,1020.530762 4316.058594,1020.129456 
z"/>
<path fill="#01172A" opacity="1.000000" stroke="none" 
	d="
M4089.517578,878.040466 
	C4089.256836,879.181030 4088.401367,880.292542 4087.546143,881.404053 
	C4087.104248,880.530090 4086.662598,879.656067 4086.384766,878.304077 
	C4087.340088,877.887878 4088.131592,877.949646 4089.517578,878.040466 
z"/>
<path fill="#01172A" opacity="1.000000" stroke="none" 
	d="
M3662.346436,1241.868042 
	C3662.737549,1239.733887 3663.837402,1238.200317 3665.551270,1241.683594 
	C3664.618164,1242.090210 3663.792725,1242.004028 3662.346436,1241.868042 
z"/>
<path fill="#012D54" opacity="1.000000" stroke="none" 
	d="
M2656.340332,949.749573 
	C2655.724854,949.620605 2655.526367,949.125122 2655.735840,948.262268 
	C2656.364746,948.382385 2656.569092,948.878479 2656.340332,949.749573 
z"/>
<path fill="#01172A" opacity="1.000000" stroke="none" 
	d="
M2501.700195,1241.545776 
	C2501.988770,1241.316040 2502.829102,1241.345093 2503.543701,1241.769043 
	C2503.029297,1242.044067 2502.640625,1241.924438 2501.700195,1241.545776 
z"/>
<path fill="#009244" opacity="1.000000" stroke="none" 
	d="
M4410.031250,1101.973389 
	C4409.451172,1101.817383 4408.830078,1101.723755 4408.231934,1101.552246 
	C4408.163086,1101.532593 4408.219727,1101.076660 4408.217773,1100.822998 
	C4408.767578,1100.956787 4409.317383,1101.090454 4409.898438,1101.658203 
	C4409.930176,1102.092407 4409.997559,1102.012817 4410.031250,1101.973389 
z"/>
<path fill="#012D54" opacity="1.000000" stroke="none" 
	d="
M748.081543,654.606079 
	C748.455078,654.866150 747.541565,654.975403 747.541565,654.975403 
	C747.541565,654.975403 746.656616,654.723816 746.287598,654.451050 
	C746.532837,654.045349 747.129272,654.101318 748.081543,654.606079 
z"/>
<path fill="#012D54" opacity="1.000000" stroke="none" 
	d="
M2336.143066,1298.716553 
	C2336.394043,1298.296631 2336.999512,1298.352295 2337.984131,1298.813965 
	C2338.378906,1299.050049 2337.442627,1299.268433 2337.442627,1299.268433 
	C2337.442627,1299.268433 2336.513184,1299.022461 2336.143066,1298.716553 
z"/>
<path fill="#01172A" opacity="1.000000" stroke="none" 
	d="
M3100.399902,1232.161865 
	C3100.100830,1232.066895 3100.592529,1231.267334 3100.592529,1231.267334 
	C3100.592529,1231.267334 3101.362793,1231.556396 3101.344238,1231.888672 
	C3101.325684,1232.220825 3100.699219,1232.256836 3100.399902,1232.161865 
z"/>
<path fill="#004922" opacity="1.000000" stroke="none" 
	d="
M4544.027832,1136.932617 
	C4544.099609,1136.676270 4544.494141,1136.529297 4545.514648,1136.296143 
	C4545.543457,1136.487549 4544.947266,1136.764893 4544.027832,1136.932617 
z"/>
<path fill="#004922" opacity="1.000000" stroke="none" 
	d="
M4470.072266,1114.620605 
	C4470.447754,1114.860596 4469.553711,1114.876587 4469.553711,1114.876587 
	C4469.553711,1114.876587 4468.696289,1114.621216 4468.322266,1114.377441 
	C4468.553223,1114.060303 4469.136230,1114.142700 4470.072266,1114.620605 
z"/>
<path fill="#012D54" opacity="1.000000" stroke="none" 
	d="
M684.039856,654.822388 
	C683.953308,655.151123 683.527771,655.299561 682.430786,655.520386 
	C682.406555,655.275879 683.053650,654.958984 684.039856,654.822388 
z"/>
<path fill="#01172A" opacity="1.000000" stroke="none" 
	d="
M3100.974121,863.792480 
	C3100.969482,864.070740 3100.615967,864.351990 3100.114746,864.328857 
	C3099.967041,864.024353 3100.625732,863.795593 3100.974121,863.792480 
z"/>
<path fill="#012D54" opacity="1.000000" stroke="none" 
	d="
M757.903809,655.501953 
	C757.712708,655.724548 757.287537,655.672546 756.270203,655.372925 
	C756.341980,655.159302 757.005859,655.193237 757.903809,655.501953 
z"/>
<path fill="#012D54" opacity="1.000000" stroke="none" 
	d="
M712.524902,789.768555 
	C712.488953,789.538757 713.076843,789.242249 713.982605,789.075073 
	C713.916504,789.370178 713.532593,789.536072 712.524902,789.768555 
z"/>
<path fill="#004922" opacity="1.000000" stroke="none" 
	d="
M4315.607422,1020.134644 
	C4315.586426,1020.530762 4315.044434,1020.779053 4313.978516,1020.868225 
	C4313.998535,1020.462585 4314.542480,1020.221802 4315.607422,1020.134644 
z"/>
<path fill="#012D54" opacity="1.000000" stroke="none" 
	d="
M2373.639648,998.148254 
	C2373.647217,998.640503 2373.097900,998.909546 2371.989258,998.929749 
	C2371.986572,998.427368 2372.537598,998.175476 2373.639648,998.148254 
z"/>
<path fill="#01457F" opacity="1.000000" stroke="none" 
	d="
M2657.534668,961.507935 
	C2657.092041,961.509705 2656.779541,960.961426 2656.428711,959.910156 
	C2656.743652,959.964783 2657.168457,960.481628 2657.534668,961.507935 
z"/>
<path fill="#012D54" opacity="1.000000" stroke="none" 
	d="
M3569.640137,798.148010 
	C3569.647217,798.640198 3569.097900,798.909058 3567.989258,798.928772 
	C3567.986816,798.426636 3568.538086,798.174927 3569.640137,798.148010 
z"/>
<path fill="#000000" opacity="1.000000" stroke="none" 
	d="
M1734.330811,927.999817 
	C1734.330811,880.453857 1734.330811,833.907898 1734.330811,786.641479 
	C1738.617432,786.385071 1741.837158,786.028381 1745.057251,786.024902 
	C1781.695190,785.985413 1818.335571,785.749207 1854.969971,786.108337 
	C1872.611084,786.281189 1890.119263,788.217773 1906.956665,794.226746 
	C1940.723999,806.277710 1959.086792,830.605347 1964.291870,865.567322 
	C1966.867554,882.867371 1966.312378,900.041870 1961.981079,917.007141 
	C1953.501099,950.221069 1932.442383,971.219910 1899.733887,980.918518 
	C1885.573120,985.117432 1871.045654,986.826416 1856.396484,986.926392 
	C1819.427124,987.178772 1782.455078,987.034058 1745.484009,986.983398 
	C1742.224854,986.978943 1738.966309,986.498535 1734.330811,986.129700 
	C1734.330811,966.703247 1734.330811,947.851562 1734.330811,927.999817 
z"/>
<path fill="#000001" opacity="1.000000" stroke="none" 
	d="
M3063.886230,950.084106 
	C3085.827393,971.880249 3096.665527,998.116272 3100.297119,1027.725220 
	C3103.975586,1057.713867 3101.297119,1087.030029 3088.356445,1114.493530 
	C3069.855713,1153.756226 3039.061523,1175.167358 2994.832764,1176.072388 
	C2966.716309,1176.647827 2942.534180,1167.211304 2922.343262,1148.089966 
	C2906.234375,1132.834473 2896.190186,1113.587524 2890.890869,1092.233521 
	C2881.289062,1053.543823 2882.976074,1015.552368 2901.801270,979.663147 
	C2920.747803,943.542480 2950.958008,924.988708 2991.938965,923.944153 
	C3019.163330,923.250305 3042.944824,931.601257 3063.886230,950.084106 
z"/>
<path fill="#000101" opacity="1.000000" stroke="none" 
	d="
M2398.033203,1083.977905 
	C2406.295898,1083.636108 2413.600830,1083.058960 2420.908203,1083.020508 
	C2444.226318,1082.897461 2467.546143,1082.934082 2490.864502,1083.014282 
	C2494.777100,1083.027710 2498.687988,1083.564819 2502.843750,1083.878418 
	C2502.843750,1098.507690 2504.496582,1112.630615 2502.437256,1126.189697 
	C2499.681396,1144.335815 2488.047852,1158.080811 2473.891602,1169.359253 
	C2455.844482,1183.737549 2434.912354,1190.416016 2412.100586,1192.046265 
	C2397.332031,1193.102051 2382.970703,1191.994751 2369.086670,1186.322388 
	C2347.891846,1177.663208 2335.833984,1160.493042 2335.738281,1137.770508 
	C2335.713379,1131.828125 2335.882080,1125.710693 2337.222168,1119.967651 
	C2342.014404,1099.429688 2357.324951,1090.395386 2376.293457,1086.228516 
	C2383.058350,1084.742188 2390.139404,1084.693970 2398.033203,1083.977905 
z"/>
<path fill="#000101" opacity="1.000000" stroke="none" 
	d="
M3566.445312,1083.124023 
	C3598.700684,1083.124023 3630.955811,1083.124023 3664.395508,1083.124023 
	C3662.923584,1103.939087 3668.440186,1124.030151 3657.735352,1142.821899 
	C3649.800049,1156.751831 3639.270264,1167.953369 3625.479248,1176.034790 
	C3599.420166,1191.305054 3571.484863,1196.298706 3541.919922,1189.994263 
	C3505.512207,1182.231079 3490.465820,1151.808838 3498.461670,1119.254272 
	C3501.959229,1105.014038 3511.322266,1095.393433 3524.895752,1090.112305 
	C3536.819336,1085.472900 3549.255615,1083.386353 3563.447266,1083.915039 
	C3565.442627,1083.817993 3565.988525,1083.568115 3566.445312,1083.124023 
z"/>
<path fill="#012D54" opacity="1.000000" stroke="none" 
	d="
M3565.986328,1083.072388 
	C3565.988525,1083.568115 3565.442627,1083.817993 3564.352295,1083.847168 
	C3564.345215,1083.360474 3564.888672,1083.093750 3565.986328,1083.072388 
z"/>
</svg>