<?xml version="1.0" encoding="UTF-8" standalone="no"?>
<!DOCTYPE svg PUBLIC "-//W3C//DTD SVG 1.1//EN" "http://www.w3.org/Graphics/SVG/1.1/DTD/svg11.dtd">
<svg xmlns="http://www.w3.org/2000/svg" xmlns:xlink="http://www.w3.org/1999/xlink" version="1.1" width="5555.555pt" height="5555.555pt" viewBox="0 0 5555.555 5555.555">
<g enable-background="new">
<clipPath id="cp0">
<path transform="matrix(2.7777777,0,0,-2.7777777,0,5555.555)" d="M 0 0 L 2000 0 L 2000 2000 L 0 2000 Z "/>
</clipPath>
<g clip-path="url(#cp0)">
<path transform="matrix(2.7777777,0,0,-2.7777777,0,5555.555)" d="M 0 0 L 2000 0 L 2000 2000 L 0 2000 Z " fill="#1e262c"/>
<path transform="matrix(2.7777777,0,0,-2.7777777,0,5555.555)" d="M 665.021 664.571 L 594.896 664.571 L 594.896 685.967 L 665.021 685.967 Z M 670.595 612.966 L 564.508 612.966 L 564.508 735.775 L 670.595 735.775 L 670.595 714.378 L 585.905 714.378 L 585.905 634.363 L 670.595 634.363 Z " fill="#ffffff"/>
<path transform="matrix(2.7777777,0,0,-2.7777777,0,5555.555)" d="M 882.4067 735.7754 L 821.4517 653.6024 L 821.4517 612.9654 L 800.2337 612.9654 L 800.2337 653.9624 L 737.6607 735.7754 L 765.1717 735.7754 L 811.3827 675.3594 L 854.7157 735.7754 Z " fill="#ffffff"/>
<path transform="matrix(2.7777777,0,0,-2.7777777,0,5555.555)" d="M 1066.168 673.9209 C 1066.168 685.7879 1062.361 695.4979 1054.751 703.0499 C 1047.137 710.6019 1037.457 714.3779 1025.711 714.3779 L 977.7025 714.3779 L 977.7025 634.3629 L 1025.711 634.3629 C 1037.457 634.3629 1047.137 638.0189 1054.751 645.3309 C 1062.361 652.6419 1066.168 662.1719 1066.168 673.9209 M 1087.564 675.7189 C 1087.564 657.6169 1081.722 642.6339 1070.034 630.7669 C 1058.347 618.8999 1043.571 612.9659 1025.711 612.9659 L 956.4845 612.9659 L 956.4845 735.7749 L 1025.711 735.7749 C 1043.811 735.7749 1058.645 730.2599 1070.214 719.2329 C 1081.781 708.2019 1087.564 693.6999 1087.564 675.7189 " fill="#ffffff"/>
<path transform="matrix(2.7777777,0,0,-2.7777777,0,5555.555)" d="M 1259.46 612.9658 L 1153.553 612.9658 L 1153.553 735.7758 L 1174.95 735.7758 L 1174.95 634.3628 L 1259.46 634.3628 Z " fill="#ffffff"/>
<path transform="matrix(2.7777777,0,0,-2.7777777,0,5555.555)" d="M 1429.917 664.571 L 1359.792 664.571 L 1359.792 685.967 L 1429.917 685.967 Z M 1435.492 612.966 L 1329.405 612.966 L 1329.405 735.775 L 1435.492 735.775 L 1435.492 714.378 L 1350.802 714.378 L 1350.802 634.363 L 1435.492 634.363 Z " fill="#ffffff"/>
<path transform="matrix(2.7777777,0,0,-2.7777777,0,5555.555)" d="M 1123.925 1214.035 C 1115.433 1214.035 1106.951 1214.045 1098.459 1214.035 C 1098.44 1214.035 1098.422 1214.038 1098.402 1214.038 C 1097.951 1214.049 1097.502 1214.049 1097.051 1214.038 C 1097.03 1214.038 1097.007 1214.035 1096.986 1214.035 C 1068.049 1214.055 1039.112 1214.055 1010.175 1214.055 L 989.8253 1214.055 C 951.9043 1214.055 913.9853 1214.055 876.0753 1214.035 C 849.9253 1214.024 839.6053 1200.335 847.2453 1175.184 C 861.6753 1127.684 891.2853 1090.064 926.0053 1055.955 C 939.8353 1042.365 954.8953 1030.215 971.2653 1019.715 C 979.8653 1014.205 984.4653 1006.734 985.1253 999.0952 C 984.4653 991.4552 979.8653 983.9842 971.2653 978.4742 C 954.8953 967.9842 939.8353 955.8252 926.0053 942.2342 C 891.2853 908.1252 861.6753 870.5052 847.2453 823.0142 C 839.6053 797.8652 849.9253 784.1752 876.0753 784.1552 C 895.7653 784.1442 915.4553 784.1442 935.1543 784.1442 C 935.1543 784.1442 1013.675 784.2052 1027.505 784.2342 C 1034.475 784.2452 1038.425 788.2642 1038.545 795.2342 C 1038.655 802.2452 1034.705 806.2242 1027.795 806.5352 C 1019.257 806.9182 961.5273 807.0022 961.5273 807.0022 C 956.2863 807.0022 952.0373 811.2512 952.0373 816.4912 L 952.0373 816.9132 C 952.0373 822.1532 956.2863 826.4022 961.5273 826.4022 C 961.5273 826.4022 1089.507 826.6792 1151.625 826.6042 C 1145.535 845.4652 1137.035 862.7642 1126.765 878.9052 C 1121.945 886.5052 1116.725 893.8542 1111.185 900.9842 C 1110.955 901.3352 1110.715 901.6942 1110.475 902.0552 C 1115.045 902.0552 1118.372 901.9252 1121.762 902.0852 C 1128.622 902.4052 1133.191 907.0472 1133.191 913.6742 C 1133.191 920.3912 1126.219 925.4132 1119.495 925.4132 C 1116.104 925.4132 1026.593 925.4392 1026.593 925.4392 C 1021.352 925.4392 1017.104 929.6882 1017.104 934.9292 C 1017.104 940.1702 1021.352 944.4182 1026.593 944.4182 C 1026.593 944.4182 1062.748 944.4152 1071.745 944.4152 C 1070.615 945.5052 1069.475 946.5852 1068.325 947.6552 C 1056.075 959.0752 1042.895 969.3942 1028.735 978.4742 C 1020.125 983.9842 1015.535 991.4552 1014.865 999.0952 C 1015.535 1006.734 1020.125 1014.205 1028.735 1019.715 C 1044.225 1029.655 1058.535 1041.064 1071.755 1053.785 C 1071.935 1053.955 1072.105 1054.125 1072.285 1054.305 C 1072.855 1054.845 1073.435 1055.394 1073.995 1055.955 C 1075.455 1057.385 1076.905 1058.825 1078.335 1060.274 C 1078.342 1060.282 1078.351 1060.29 1078.359 1060.298 C 1079.18 1060.917 1080.032 1061.382 1081.011 1061.679 L 1095.495 1061.679 C 1098.585 1061.679 1101.395 1062.868 1103.525 1064.799 C 1104.575 1065.679 1105.425 1066.749 1106.035 1068.028 C 1106.925 1069.698 1107.435 1071.598 1107.435 1073.618 C 1107.435 1075.509 1106.995 1077.288 1106.205 1078.879 C 1104.265 1082.839 1100.196 1085.558 1095.495 1085.558 L 1004.362 1085.558 C 1004.356 1085.559 1004.35 1085.56 1004.344 1085.561 L 1003.118 1085.561 C 997.8783 1085.561 993.6293 1089.81 993.6293 1095.051 C 993.6293 1100.292 997.8783 1104.54 1003.118 1104.54 L 1089.691 1104.54 C 1090.284 1104.526 1090.847 1104.527 1091.391 1104.54 L 1093.221 1104.54 C 1099.048 1105.277 1102.19 1108.484 1104.435 1115.194 C 1105.135 1117.285 1106.645 1127.604 1106.945 1129.115 C 1109.935 1129.115 1115.513 1129.155 1115.513 1129.165 C 1125.453 1129.264 1129.902 1133.072 1129.832 1140.532 C 1129.801 1143.81 1128.963 1146.521 1127.175 1148.537 C 1124.877 1151.129 1121.009 1152.571 1115.27 1152.589 C 1089.78 1152.639 1076.641 1152.631 1076.641 1152.631 C 1071.401 1152.631 1067.153 1156.879 1067.153 1162.119 L 1067.153 1162.416 C 1067.153 1167.656 1071.401 1171.905 1076.641 1171.905 C 1076.641 1171.905 1139.435 1171.894 1151.735 1171.925 C 1151.945 1172.585 1152.155 1173.245 1152.355 1173.905 C 1152.495 1174.325 1152.625 1174.755 1152.755 1175.184 C 1160.395 1200.335 1150.075 1214.024 1123.925 1214.035 " fill="#14bcc4"/>
</g>
</g>
</svg>
