<svg xmlns="http://www.w3.org/2000/svg" id="SvgjsSvg515730" width="4096" height="2439.823607355135" version="1.1" xmlns:xlink="http://www.w3.org/1999/xlink" xmlns:svgjs="http://svgjs.com/svgjs"><defs id="SvgjsDefs515731"></defs><g id="SvgjsG515732" transform="translate(328, 328.0000000000001) scale(34.4)" opacity="1"><defs id="SvgjsDefs125256"></defs><g id="SvgjsG125257" transform="scale(0.1929570670525808)" opacity="1"><g id="SvgjsG125258" class="rJ3GD1l9L" transform="translate(190.89842120610066, -6.82265787938994) scale(1.3645315758779866)" light-content="false" non-strokable="false" fill="#522376"><path d="M5 70.48l19.108-19.108a2.029 2.029 0 0 0 0-2.87L5.058 29.45l7.545-7.546 21.89 21.89a8.685 8.685 0 0 1 0 12.283L12.659 77.912 5 70.48zm90-41.03L75.892 48.559a2.029 2.029 0 0 0 0 2.87l19.05 19.051-7.545 7.546-21.89-21.89a8.685 8.685 0 0 1 0-12.283l21.834-21.834L95 29.45zM29.428 5l19.108 19.108a2.029 2.029 0 0 0 2.87 0l19.052-19.05 7.546 7.545-21.89 21.89a8.685 8.685 0 0 1-12.283 0L21.997 12.659 29.428 5zm41.144 90L51.463 75.892a2.029 2.029 0 0 0-2.87 0l-19.051 19.05-7.546-7.545 21.89-21.89a8.685 8.685 0 0 1 12.283 0l21.834 21.834L70.572 95z"></path></g><g id="SvgjsG125259" class="text" transform="translate(256.2689178009074, 212.2704501378881) scale(1)" light-content="false" fill="#522376"><path d="M-148.68 0L-120.7 0L-120.7 -4.03L-144.12 -4.03L-144.12 -53.07L-148.68 -53.07Z M-109.15 -53.07L-113.71 -53.07L-113.71 -21.29C-113.71 -17.39 -113.4 -14.04 -112.8 -11.25C-112.19 -8.47 -111.17 -6.17 -109.76 -4.37C-108.34 -2.57 -106.46 -1.24 -104.13 -0.38C-101.8 0.48 -98.93 0.91 -95.54 0.91C-92.14 0.91 -89.26 0.48 -86.91 -0.38C-84.55 -1.24 -82.65 -2.57 -81.2 -4.37C-79.76 -6.17 -78.71 -8.47 -78.05 -11.25C-77.39 -14.04 -77.06 -17.39 -77.06 -21.29L-77.06 -53.07L-81.62 -53.07L-81.62 -20.3C-81.62 -17.36 -81.85 -14.81 -82.31 -12.66C-82.76 -10.51 -83.54 -8.73 -84.63 -7.34C-85.72 -5.94 -87.14 -4.9 -88.88 -4.22C-90.63 -3.54 -92.8 -3.19 -95.38 -3.19C-97.97 -3.19 -100.15 -3.54 -101.92 -4.22C-103.7 -4.9 -105.12 -5.94 -106.18 -7.34C-107.25 -8.73 -108.01 -10.51 -108.46 -12.66C-108.92 -14.81 -109.15 -17.36 -109.15 -20.3Z M-27.94 -8.14L-27.94 0L-23.68 0L-23.68 -26.46L-40.56 -26.46L-40.56 -22.51L-28.17 -22.51L-28.17 -16.12C-28.17 -13.94 -28.56 -12.04 -29.35 -10.42C-30.13 -8.79 -31.21 -7.45 -32.58 -6.39C-33.95 -5.32 -35.53 -4.52 -37.33 -3.99C-39.13 -3.46 -41.05 -3.19 -43.07 -3.19C-48.45 -3.19 -52.67 -4.95 -55.73 -8.48C-58.8 -12 -60.33 -16.96 -60.33 -23.34L-60.33 -29.81C-60.33 -32.95 -59.94 -35.76 -59.15 -38.25C-58.37 -40.73 -57.24 -42.83 -55.77 -44.56C-54.3 -46.28 -52.53 -47.6 -50.45 -48.51C-48.37 -49.42 -46.04 -49.88 -43.45 -49.88C-39.96 -49.88 -36.94 -49.04 -34.41 -47.37C-31.87 -45.7 -29.94 -43.39 -28.63 -40.45L-24.9 -42.66C-26.52 -46.05 -28.88 -48.79 -31.97 -50.87C-35.06 -52.95 -38.89 -53.98 -43.45 -53.98C-46.8 -53.98 -49.82 -53.39 -52.5 -52.2C-55.19 -51.01 -57.47 -49.26 -59.34 -46.95C-61.22 -44.64 -62.66 -41.78 -63.68 -38.36C-64.69 -34.94 -65.2 -31 -65.2 -26.54C-65.2 -22.02 -64.69 -18.07 -63.68 -14.67C-62.66 -11.28 -61.23 -8.41 -59.38 -6.08C-57.53 -3.75 -55.29 -2 -52.65 -0.84C-50.02 0.33 -47.05 0.91 -43.76 0.91C-39.65 0.91 -36.27 0.09 -33.61 -1.56C-30.95 -3.21 -29.13 -5.4 -28.17 -8.14Z M22.77 0L27.56 0L8.71 -53.07L2.85 -53.07L-15.93 0L-11.37 0L-5.59 -16.5L16.99 -16.5ZM5.82 -48.74L15.78 -20.45L-4.45 -20.45L5.51 -48.74Z M37.07 0L41.63 0L41.63 -23.34L57.9 -23.34C62.51 -23.34 66.04 -24.67 68.47 -27.33C70.9 -30 72.12 -33.63 72.12 -38.25C72.12 -42.81 70.9 -46.42 68.47 -49.08C66.04 -51.74 62.51 -53.07 57.9 -53.07L37.07 -53.07ZM41.63 -27.37L41.63 -49.04L57.9 -49.04C60.94 -49.04 63.26 -48.19 64.86 -46.49C66.45 -44.8 67.25 -42.66 67.25 -40.07L67.25 -36.42C67.25 -33.78 66.45 -31.62 64.86 -29.92C63.26 -28.22 60.94 -27.37 57.9 -27.37Z M82.76 0L113.79 0L113.79 -4.03L87.33 -4.03L87.33 -24.94L112.49 -24.94L112.49 -28.97L87.33 -28.97L87.33 -49.04L113.79 -49.04L113.79 -53.07L82.76 -53.07Z M126.41 0L154.39 0L154.39 -4.03L130.97 -4.03L130.97 -53.07L126.41 -53.07Z"></path></g><g id="SvgjsG125260" class="text" transform="translate(259.2, 268.3102868056419) scale(1)" light-content="false" fill="#522376"><path d="M-257.09 -2.11L-259.2 -1.61L-259.2 0L-251.51 0L-251.51 -1.61L-253.93 -2.14L-252.63 -6.04L-243.89 -6.04L-242.65 -2.11L-244.97 -1.58L-244.97 0L-236.11 0L-236.11 -1.58L-238.49 -2.11L-245.9 -23.5L-249.37 -23.5ZM-246.86 -15.38L-244.6 -8.21L-251.95 -8.21L-248.2 -19.81Z M-225.28 -2.11L-228.07 -1.61L-228.07 0L-217.56 0L-217.56 -1.61L-221.47 -2.11L-221.47 -8.99C-221.18 -9.03 -220.65 -9.05 -219.88 -9.05L-218.33 -9.05C-216.76 -9.05 -215.32 -9.36 -213.99 -9.98C-212.67 -10.6 -211.62 -11.5 -210.83 -12.66C-210.05 -13.83 -209.65 -15.2 -209.65 -16.77C-209.65 -19.29 -210.37 -21.08 -211.81 -22.13C-213.25 -23.19 -215.31 -23.71 -217.99 -23.71C-218.86 -23.71 -219.98 -23.67 -221.34 -23.59C-222.11 -23.53 -222.77 -23.5 -223.33 -23.5L-227.79 -23.5L-227.79 -21.48L-225.28 -21.14ZM-218.52 -10.97C-219.82 -10.97 -220.8 -11.03 -221.47 -11.13L-221.47 -21.48C-220.99 -21.59 -220.16 -21.68 -218.99 -21.76C-217.25 -21.8 -215.9 -21.4 -214.94 -20.55C-213.98 -19.71 -213.5 -18.46 -213.5 -16.8C-213.5 -14.74 -213.95 -13.25 -214.86 -12.34C-215.77 -11.43 -216.99 -10.97 -218.52 -10.97Z M-198.42 -2.11L-201.21 -1.61L-201.21 0L-190.7 0L-190.7 -1.61L-194.61 -2.11L-194.61 -8.99C-194.32 -9.03 -193.79 -9.05 -193.03 -9.05L-191.48 -9.05C-189.91 -9.05 -188.46 -9.36 -187.14 -9.98C-185.82 -10.6 -184.76 -11.5 -183.98 -12.66C-183.19 -13.83 -182.8 -15.2 -182.8 -16.77C-182.8 -19.29 -183.52 -21.08 -184.95 -22.13C-186.39 -23.19 -188.45 -23.71 -191.14 -23.71C-192.01 -23.71 -193.12 -23.67 -194.49 -23.59C-195.25 -23.53 -195.91 -23.5 -196.47 -23.5L-200.93 -23.5L-200.93 -21.48L-198.42 -21.14ZM-191.67 -10.97C-192.97 -10.97 -193.95 -11.03 -194.61 -11.13L-194.61 -21.48C-194.13 -21.59 -193.31 -21.68 -192.13 -21.76C-190.39 -21.8 -189.05 -21.4 -188.08 -20.55C-187.12 -19.71 -186.64 -18.46 -186.64 -16.8C-186.64 -14.74 -187.1 -13.25 -188.01 -12.34C-188.92 -11.43 -190.14 -10.97 -191.67 -10.97Z M-171.57 -2.08L-173.95 -1.61L-173.95 0L-157.8 0L-156.78 -5.3L-158.49 -6.04L-160.59 -2.42L-167.69 -1.98L-167.66 -21.14L-165 -21.42L-165 -23.5L-173.89 -23.5L-173.89 -21.42L-171.57 -21.17Z M-145.49 -2.11L-148.28 -1.61L-148.28 0L-138.82 0L-138.82 -1.61L-141.64 -2.11L-141.64 -21.36L-139.01 -21.64L-139.01 -23.5L-148.25 -23.5L-148.25 -21.64L-145.49 -21.36Z M-113.98 -23.47C-114.85 -23.63 -115.81 -23.71 -116.87 -23.71C-119.14 -23.71 -121.24 -23.18 -123.17 -22.1C-125.11 -21.03 -126.64 -19.52 -127.78 -17.58C-128.91 -15.63 -129.48 -13.43 -129.48 -10.97C-129.48 -8.72 -129.01 -6.73 -128.06 -5.01C-127.11 -3.28 -125.78 -1.94 -124.09 -0.99C-122.39 -0.04 -120.46 0.43 -118.29 0.43C-117.05 0.43 -115.96 0.34 -115.02 0.16C-114.08 -0.03 -113.12 -0.28 -112.15 -0.59C-111.39 -0.84 -110.84 -0.97 -110.51 -0.99L-110.51 -5.7L-112.31 -5.7L-113.3 -3.13C-114 -2.08 -115.47 -1.55 -117.7 -1.55C-119.31 -1.55 -120.69 -2.03 -121.84 -2.99C-122.99 -3.95 -123.86 -5.23 -124.44 -6.84C-125.03 -8.44 -125.33 -10.18 -125.33 -12.06C-125.33 -13.96 -125.01 -15.63 -124.37 -17.07C-123.73 -18.5 -122.85 -19.61 -121.75 -20.4C-120.64 -21.18 -119.4 -21.58 -118.01 -21.58C-116.94 -21.58 -116.11 -21.49 -115.52 -21.31C-114.93 -21.14 -114.39 -20.85 -113.89 -20.46L-112.96 -17.76L-110.82 -17.76L-110.54 -22.66L-111.29 -22.85C-112.22 -23.09 -113.11 -23.3 -113.98 -23.47Z M-100.02 -2.11L-102.13 -1.61L-102.13 0L-94.44 0L-94.44 -1.61L-96.86 -2.14L-95.56 -6.04L-86.82 -6.04L-85.58 -2.11L-87.9 -1.58L-87.9 0L-79.04 0L-79.04 -1.58L-81.42 -2.11L-88.83 -23.5L-92.3 -23.5ZM-89.79 -15.38L-87.53 -8.21L-94.88 -8.21L-91.13 -19.81Z M-63.65 -2.08L-67.28 -1.61L-67.28 0L-56.09 0L-56.09 -1.61L-59.84 -2.11L-59.84 -21.51L-54.94 -21.17L-54.01 -18.14L-52.43 -18.32L-52.43 -23.5L-71.21 -23.5L-71.59 -18.29L-69.73 -18.35L-68.67 -21.14L-63.65 -21.51Z M-40.98 -2.11L-43.77 -1.61L-43.77 0L-34.32 0L-34.32 -1.61L-37.14 -2.11L-37.14 -21.36L-34.5 -21.64L-34.5 -23.5L-43.74 -23.5L-43.74 -21.64L-40.98 -21.36Z M-8.36 -22.23C-9.89 -23.22 -11.67 -23.71 -13.69 -23.71C-15.74 -23.71 -17.65 -23.18 -19.43 -22.1C-21.1 -21.09 -22.44 -19.62 -23.44 -17.7C-24.44 -15.78 -24.94 -13.58 -24.94 -11.1C-24.94 -8.89 -24.51 -6.91 -23.64 -5.16C-22.77 -3.42 -21.54 -2.05 -19.95 -1.05C-18.36 -0.06 -16.53 0.43 -14.47 0.43C-12.4 0.43 -10.54 -0.09 -8.89 -1.13C-7.23 -2.18 -5.94 -3.65 -5 -5.56C-4.06 -7.48 -3.59 -9.7 -3.59 -12.24C-3.59 -14.44 -4 -16.4 -4.83 -18.14C-5.65 -19.87 -6.83 -21.23 -8.36 -22.23ZM-19.04 -19.02C-17.93 -20.87 -16.31 -21.79 -14.16 -21.79C-12.87 -21.79 -11.75 -21.35 -10.79 -20.46C-9.83 -19.57 -9.1 -18.37 -8.59 -16.86C-8.09 -15.36 -7.83 -13.7 -7.83 -11.9C-7.83 -8.62 -8.34 -6.06 -9.37 -4.23C-10.39 -2.4 -11.97 -1.49 -14.09 -1.49C-15.46 -1.49 -16.64 -1.96 -17.63 -2.9C-18.62 -3.84 -19.38 -5.07 -19.91 -6.59C-20.43 -8.11 -20.7 -9.71 -20.7 -11.41C-20.7 -14.63 -20.14 -17.17 -19.04 -19.02Z M28.79 -21.45L28.79 -23.5L21.22 -23.5L21.22 -21.45L23.77 -21.14L23.77 -3.29L21.94 -7.22L12.2 -23.5L5.97 -23.5L5.97 -21.42L8.39 -21.14L8.39 -2.14L5.88 -1.61L5.88 0L14.03 0L14.03 -1.61L11.06 -2.14L11.03 -19.22L12.95 -15.03L22.28 0L26.43 0L26.43 -21.17Z M55.76 -0.03C57.2 0.24 58.6 0.37 59.96 0.37C62.34 0.37 64.31 -0.18 65.87 -1.29C67.43 -2.39 68.21 -4.01 68.21 -6.14C68.21 -7.21 67.92 -8.17 67.34 -9.01C66.76 -9.84 66.03 -10.57 65.14 -11.19C64.25 -11.81 63.14 -12.47 61.82 -13.17C59.98 -14.15 58.61 -15.02 57.71 -15.81C56.82 -16.6 56.37 -17.54 56.37 -18.63C56.37 -19.75 56.78 -20.58 57.61 -21.13C58.43 -21.67 59.36 -21.95 60.4 -21.95C61.06 -21.95 61.7 -21.87 62.33 -21.72C62.96 -21.56 63.43 -21.35 63.74 -21.08L64.98 -18.07L66.75 -18.07L66.75 -22.6C66.19 -22.89 65.3 -23.15 64.07 -23.37C62.84 -23.6 61.6 -23.71 60.36 -23.71C59.15 -23.71 57.95 -23.49 56.78 -23.03C55.62 -22.58 54.66 -21.9 53.9 -20.99C53.15 -20.08 52.77 -18.97 52.77 -17.67C52.77 -16.53 53.07 -15.54 53.67 -14.68C54.27 -13.82 55.03 -13.07 55.96 -12.43C56.89 -11.79 58.13 -11.06 59.68 -10.23C61.23 -9.36 62.42 -8.55 63.23 -7.8C64.05 -7.04 64.46 -6.18 64.46 -5.21C64.46 -3.99 64.05 -3.06 63.23 -2.42C62.42 -1.78 61.42 -1.46 60.24 -1.46C59.21 -1.46 58.29 -1.57 57.5 -1.8C56.7 -2.03 56.05 -2.44 55.53 -3.04L54.38 -6.26L52.71 -6.26L52.71 -0.93C53.31 -0.6 54.32 -0.3 55.76 -0.03Z M80.37 -2.11L77.95 -1.61L77.95 0L95.34 0L96.06 -4.9L94.01 -5.33L92.34 -2.26L84.21 -1.92L84.21 -11.19L89.2 -11.1L89.79 -8.77L91.78 -8.77L91.78 -15.59L89.79 -15.59L89.2 -13.27L84.21 -13.11L84.21 -21.61L91.56 -21.36L92.52 -18.88L94.69 -18.88L94.26 -23.5L78.01 -23.5L78.01 -21.64L80.37 -21.36Z M120.49 -23.47C119.62 -23.63 118.66 -23.71 117.61 -23.71C115.34 -23.71 113.23 -23.18 111.3 -22.1C109.37 -21.03 107.83 -19.52 106.7 -17.58C105.56 -15.63 104.99 -13.43 104.99 -10.97C104.99 -8.72 105.47 -6.73 106.42 -5.01C107.37 -3.28 108.69 -1.94 110.39 -0.99C112.08 -0.04 114.01 0.43 116.18 0.43C117.42 0.43 118.51 0.34 119.45 0.16C120.39 -0.03 121.35 -0.28 122.32 -0.59C123.09 -0.84 123.63 -0.97 123.96 -0.99L123.96 -5.7L122.17 -5.7L121.17 -3.13C120.47 -2.08 119 -1.55 116.77 -1.55C115.16 -1.55 113.78 -2.03 112.63 -2.99C111.49 -3.95 110.62 -5.23 110.03 -6.84C109.44 -8.44 109.15 -10.18 109.15 -12.06C109.15 -13.96 109.47 -15.63 110.11 -17.07C110.75 -18.5 111.62 -19.61 112.73 -20.4C113.83 -21.18 115.08 -21.58 116.46 -21.58C117.54 -21.58 118.37 -21.49 118.96 -21.31C119.55 -21.14 120.09 -20.85 120.59 -20.46L121.52 -17.76L123.65 -17.76L123.93 -22.66L123.19 -22.85C122.26 -23.09 121.36 -23.3 120.49 -23.47Z M155.9 -21.64L155.9 -23.5L148.22 -23.5L148.22 -21.64L150.88 -21.33L150.91 -10.29C150.91 -4.46 149.05 -1.55 145.33 -1.55C143.31 -1.55 141.76 -2.19 140.68 -3.47C139.61 -4.75 139.07 -6.83 139.07 -9.7L139.07 -21.33L141.74 -21.64L141.74 -23.5L132.84 -23.5L132.84 -21.64L135.26 -21.36L135.2 -9.83C135.2 -6.38 135.96 -3.8 137.47 -2.11C138.99 -0.41 141.43 0.43 144.77 0.43C147.59 0.43 149.76 -0.46 151.28 -2.26C152.81 -4.06 153.58 -6.74 153.58 -10.29L153.58 -21.33Z M180.05 -22.29C178.57 -23.24 176.52 -23.71 173.89 -23.71C173.15 -23.71 172.14 -23.67 170.85 -23.59C170.52 -23.57 170.16 -23.55 169.77 -23.53C169.38 -23.51 168.96 -23.5 168.53 -23.5L164.75 -23.5L164.75 -21.48L167.17 -21.2L167.17 -2.11L164.41 -1.61L164.41 0L174.08 0L174.08 -1.61L171.01 -2.11L171.01 -10.01L173.3 -10.04C174.11 -10.04 174.86 -9.51 175.55 -8.43C176.24 -7.36 177.02 -5.86 177.89 -3.94C178.51 -2.57 179.01 -1.58 179.38 -0.95C179.75 -0.32 180.1 0 180.43 0L185.55 0L185.55 -1.61L183.78 -2.08C183.47 -2.18 183.14 -2.5 182.79 -3.02C182.44 -3.55 181.97 -4.33 181.39 -5.36C180.61 -6.75 179.95 -7.83 179.43 -8.62C178.9 -9.4 178.33 -9.99 177.71 -10.38C177.44 -10.55 177.27 -10.64 177.21 -10.66C178.8 -11.2 180.04 -12.06 180.93 -13.25C181.82 -14.44 182.26 -15.86 182.26 -17.51C182.26 -19.75 181.52 -21.34 180.05 -22.29ZM172.68 -21.76C172.97 -21.76 173.2 -21.77 173.37 -21.79C175.1 -21.83 176.38 -21.44 177.19 -20.61C178.01 -19.79 178.42 -18.61 178.42 -17.08C178.42 -15.26 177.98 -13.94 177.12 -13.13C176.25 -12.31 174.97 -11.9 173.27 -11.9C172.24 -11.9 171.49 -11.93 171.01 -12L171.01 -21.54C171.3 -21.65 171.86 -21.72 172.68 -21.76Z M196.22 -2.11L193.43 -1.61L193.43 0L202.89 0L202.89 -1.61L200.07 -2.11L200.07 -21.36L202.7 -21.64L202.7 -23.5L193.46 -23.5L193.46 -21.64L196.22 -21.36Z M219.51 -2.08L215.89 -1.61L215.89 0L227.08 0L227.08 -1.61L223.33 -2.11L223.33 -21.51L228.22 -21.17L229.15 -18.14L230.73 -18.32L230.73 -23.5L211.95 -23.5L211.58 -18.29L213.44 -18.35L214.49 -21.14L219.51 -21.51Z M247.17 -2.14L243.86 -1.61L243.86 0L254.55 0L254.55 -1.61L250.99 -2.17L250.99 -9.14L257.06 -21.17L259.05 -21.64L259.05 -23.5L251.51 -23.5L251.51 -21.64L254.02 -21.33L250.12 -12.86L249.5 -11.28L248.85 -12.8L244.41 -21.39L246.49 -21.67L246.49 -23.5L238.28 -23.5L238.28 -21.64L239.98 -21.39L247.17 -8.99Z"></path></g></g></g></svg>