<?xml version="1.0" encoding="UTF-8"?>
<svg id="Layer_1" data-name="Layer 1" xmlns="http://www.w3.org/2000/svg" viewBox="0 0 841.89 256.52">
  <defs>
    <style>
      .cls-1 {
        fill: #000;
        stroke-width: 0px;
      }
    </style>
  </defs>
  <path class="cls-1" d="M731.68,139.69c-1,8.85-7.34,14.69-16.69,14.69-12.35,0-21.2-9.51-21.2-26.2s8.85-25.87,21.2-25.87c9.18,0,15.52,5.34,16.52,14.02h23.2c-2-19.86-17.19-31.88-39.72-31.88-27.71,0-44.4,17.69-44.4,43.73s16.69,44.06,44.4,44.06c22.7,0,37.88-12.52,39.89-32.55h-23.2Z"/>
  <path class="cls-1" d="M615.02,84.45c-26.87,0-43.22,16.69-43.22,43.73s16.35,43.9,43.22,43.9c20.7,0,34.88-9.85,40.89-27.37h-23.53c-2.67,5.51-6.68,9.51-17.36,9.51s-17.65-6.99-19.63-18.86h61.69v-7.34c0-24.2-14.02-43.56-42.06-43.56ZM595.6,119.83c2.25-11.11,9.23-17.52,19.41-17.52,11.74,0,16.65,7.2,18.79,17.52h-38.2Z"/>
  <path class="cls-1" d="M531.57,120.33l-16.69-2.67c-6.34-1-9.51-4.17-9.51-7.84,0-4.01,4.34-7.51,12.18-7.51,8.34,0,13.35,3,13.35,7.84h23.2c0-15.86-13.85-25.7-36.72-25.7-20.86,0-35.05,8.35-35.05,24.37,0,13.52,9.18,22.03,27.04,25.03l16.52,2.84c6.18,1.17,9.68,3.84,9.68,8.51,0,5.51-6.01,9.01-14.85,9.01s-17.69-4.01-18.69-11.52h-23.2c1.67,18.36,19.19,29.37,41.72,29.37s37.55-10.18,37.55-27.04c0-15.19-10.68-22.03-26.54-24.7Z"/>
  <path class="cls-1" d="M450.79,46.23c-7.68,0-13.52,6.01-13.52,13.52s5.84,13.52,13.52,13.52,13.52-5.84,13.52-13.52-5.84-13.52-13.52-13.52Z"/>
  <rect class="cls-1" x="439.28" y="86.12" width="23.03" height="84.28"/>
  <path class="cls-1" d="M383.2,84.45c-11.03,0-20.71,4.22-26.7,11.73v-36.43h-23.03v68.43c0,24.53,16.69,43.89,44.73,43.89s44.73-19.36,44.73-43.89-16.69-43.73-39.72-43.73ZM378.19,154.22c-14.19,0-21.53-12.85-21.53-26.04s7.35-25.87,21.53-25.87,21.53,12.68,21.53,25.87-7.51,26.04-21.53,26.04Z"/>
  <path class="cls-1" d="M273.55,84.45c-28.04,0-44.73,19.19-44.73,43.73s16.69,43.89,44.73,43.89,44.73-19.36,44.73-43.89-16.69-43.73-44.73-43.73ZM273.55,154.22c-14.19,0-21.53-12.85-21.53-26.04s7.35-25.87,21.53-25.87,21.53,12.68,21.53,25.87-7.51,26.04-21.53,26.04Z"/>
  <path class="cls-1" d="M179.58,84.28c-11.44,0-24.01,4.86-29.37,16.23-5.36-11.37-17.94-16.23-29.37-16.23-26.87,0-34.71,18.53-34.71,40.72v45.4h23.03v-45.4c0-17.86,5.84-22.7,14.52-22.7s15.02,6.68,15.02,22.7v45.4h23.03v-45.4c0-16.02,6.18-22.7,15.02-22.7s14.52,4.84,14.52,22.7v45.4h23.03v-45.4c0-22.2-7.85-40.72-34.72-40.72Z"/>
</svg>