<svg width="988" height="218" viewBox="0 0 988 218" fill="none" xmlns="http://www.w3.org/2000/svg">
<path d="M103.826 57.2526C100.351 56.4334 96.7272 56 93.002 56C88.9544 56 85.0263 56.5117 81.2789 57.4738C79.5017 55.1238 78.4476 52.1966 78.4476 49.0231C78.4476 41.2784 84.7259 35 92.4707 35C100.215 35 106.494 41.2784 106.494 49.0231C106.494 52.0977 105.504 54.9412 103.826 57.2526Z" fill="#331670"/>
<path d="M52.8953 78.4829C56.8416 72.0411 62.2964 66.6233 68.7681 62.7212C68.3731 59.7812 67.0459 56.9424 64.7863 54.6829C59.31 49.2065 50.431 49.2065 44.9546 54.6829C39.4782 60.1593 39.4782 69.0382 44.9546 74.5146C47.1891 76.7491 49.9901 78.0719 52.8953 78.4829Z" fill="#331670"/>
<path d="M138.625 114.341C140.69 115.539 143.089 116.224 145.648 116.224C153.393 116.224 159.672 109.946 159.672 102.201C159.672 94.4565 153.393 88.1781 145.648 88.1781C142.937 88.1781 140.406 88.9475 138.26 90.2799C139.395 94.3255 140.002 98.5919 140.002 103C140.002 106.91 139.524 110.709 138.625 114.341Z" fill="#331670"/>
<path d="M116.589 143.662C123.755 139.496 129.719 133.49 133.834 126.292C136.088 126.917 138.217 128.115 139.989 129.888C145.466 135.364 145.466 144.243 139.989 149.719C134.513 155.196 125.634 155.196 120.158 149.719C118.411 147.973 117.221 145.88 116.589 143.662Z" fill="#331670"/>
<path d="M93.002 150C88.6268 150 84.3912 149.402 80.3725 148.284C79.1491 150.365 78.4476 152.79 78.4476 155.379C78.4476 163.124 84.7259 169.402 92.4707 169.402C100.215 169.402 106.494 163.124 106.494 155.379C106.494 152.892 105.846 150.555 104.71 148.53C100.967 149.49 97.0443 150 93.002 150Z" fill="#331670"/>
<path d="M52.0421 126.067C55.9859 133.055 61.6663 138.933 68.4976 143.114C67.912 145.535 66.6744 147.83 64.7847 149.719C59.3083 155.196 50.4294 155.196 44.953 149.719C39.4766 144.243 39.4766 135.364 44.953 129.888C46.9683 127.872 49.4443 126.599 52.0421 126.067Z" fill="#331670"/>
<path d="M120.156 54.6827C118.043 56.7957 116.745 59.4153 116.263 62.1505C123.104 66.0541 128.869 71.6266 133.004 78.3134C135.563 77.7687 138 76.5024 139.988 74.5145C145.464 69.0381 145.464 60.1591 139.988 54.6827C134.511 49.2064 125.632 49.2064 120.156 54.6827Z" fill="#331670"/>
<path d="M41.0231 88.1782C43.4971 88.1782 45.8214 88.8189 47.8393 89.9433C46.643 94.0886 46.002 98.4695 46.002 103C46.002 107.026 46.5081 110.934 47.4604 114.663C45.5326 115.661 43.3437 116.225 41.0231 116.225C33.2784 116.225 27 109.946 27 102.201C27 94.4566 33.2784 88.1782 41.0231 88.1782Z" fill="#2400FF"/>
<path d="M312.489 90.749C313.743 88.5156 315.486 86.4275 317.709 84.4827C320.118 82.3625 322.91 80.6311 326.079 79.2867C329.27 77.9329 332.745 77.259 336.498 77.259C342.817 77.259 348.167 78.5996 352.524 81.3104C356.883 84.0227 360.165 88.038 362.377 93.3281C364.587 98.6122 365.682 105.024 365.682 112.549C365.682 119.818 364.103 126.34 360.934 132.102L360.932 132.105C357.768 137.763 353.495 142.229 348.117 145.494C344.162 147.896 339.893 149.415 335.314 150.051L334.746 150.13V141.136L335.162 141.065C339.344 140.353 342.477 138.024 344.582 134.027C346.701 130.005 347.784 124.281 347.784 116.809C347.784 107.378 346.177 100.599 343.054 96.3742L343.05 96.3685C340.02 92.1457 335.912 90.045 330.676 90.045C327.614 90.045 324.695 90.6013 321.916 91.7132L321.909 91.7159L321.902 91.7184C319.204 92.7079 316.756 94.4524 314.562 96.973V163.909C316.079 164.702 317.681 165.454 319.368 166.164L319.378 166.169L319.388 166.173C321.177 167.021 322.917 167.773 324.609 168.431L325.045 168.601L323.224 174.394L322.83 174.366C320.189 174.177 317.406 174.036 314.48 173.941H298.738C296.758 174.036 294.446 174.177 291.804 174.366L291.42 174.393L289.437 168.61L289.878 168.433C291.277 167.874 292.629 167.221 293.934 166.475L293.946 166.468L293.958 166.462C295.184 165.849 296.37 165.111 297.516 164.248V91.045L288.712 88.205V82.2862L289.151 82.2326C293.017 81.7612 296.74 81.1486 300.321 80.395C303.896 79.548 307.281 78.5135 310.475 77.2919L310.673 77.2162L313.314 78.4484L312.195 90.749H312.489Z" fill="#331670"/>
<path fill-rule="evenodd" clip-rule="evenodd" d="M189.236 127.973C193.161 135.536 198.675 141.199 205.777 144.941L205.784 144.945C212.967 148.585 221.426 150.395 231.144 150.395C241.066 150.395 249.542 148.152 256.549 143.641L256.553 143.639C263.544 139.042 268.904 132.769 272.633 124.834C276.456 116.901 278.362 107.975 278.362 98.065C278.362 86.2768 276.414 76.5824 272.485 69.0105C268.653 61.4448 263.137 55.8284 255.939 52.1807C248.848 48.4443 240.388 46.587 230.576 46.587C220.839 46.587 212.411 48.879 205.313 53.483C198.32 57.9853 192.912 64.2111 189.088 72.1459L189.086 72.1482C185.358 79.9877 183.5 88.9142 183.5 98.917C183.5 110.611 185.401 120.303 189.233 127.967L189.236 127.973ZM256.087 79.7614L256.089 79.7683C258.718 87.3713 260.038 96.3543 260.038 106.727C260.038 117.552 257.825 126.004 253.457 132.139C249.115 138.236 242.699 141.301 234.126 141.301C227.425 141.301 221.674 139.211 216.847 135.034C212.101 130.846 208.403 124.917 205.773 117.216C203.144 109.421 201.824 100.39 201.824 90.113C201.824 79.2882 204.037 70.8355 208.405 64.701C212.747 58.6041 219.163 55.539 227.736 55.539C234.435 55.539 240.185 57.6749 245.013 61.9455L245.017 61.9491C249.856 66.1365 253.552 72.0629 256.087 79.7614Z" fill="#331670"/>
<path fill-rule="evenodd" clip-rule="evenodd" d="M439.779 133.819L437.11 129.738L436.209 129.437L435.99 129.679C433.294 132.654 430.288 134.683 426.972 135.789L426.968 135.79C423.697 136.911 420.629 137.467 417.759 137.467C413.572 137.467 409.771 136.584 406.345 134.825C403.047 133.084 400.37 130.235 398.327 126.243C396.431 122.268 395.4 116.981 395.263 110.351H440.828L441.691 109.487L441.688 109.276C441.593 102.403 440.257 96.5913 437.653 91.8638C435.152 87.1523 431.777 83.5322 427.527 81.0205C423.276 78.5086 418.405 77.259 412.931 77.259C406.03 77.259 399.877 78.9375 394.49 82.305C389.114 85.6648 384.889 90.1786 381.819 95.8386L381.816 95.8444C378.841 101.506 377.357 107.74 377.357 114.537C377.357 121.707 378.839 127.994 381.821 133.381C384.796 138.755 388.785 142.94 393.788 145.922L393.792 145.925C398.892 148.907 404.613 150.395 410.943 150.395C415.259 150.395 419.296 149.675 423.05 148.232L423.056 148.229C426.888 146.697 430.203 144.729 432.995 142.322L432.996 142.321C435.877 139.824 438.097 137.077 439.645 134.078L439.779 133.819ZM420.042 89.9672L420.048 89.9753C422.178 92.9926 423.391 97.3961 423.63 103.245H395.44C395.958 97.5112 397.484 93.1638 399.969 90.1468C402.604 86.9662 406.287 85.359 411.085 85.359C414.999 85.359 417.963 86.8935 420.042 89.9672Z" fill="#331670"/>
<path d="M532.172 148.718L533.99 142.933L533.566 142.759C531.959 142.097 530.211 141.388 528.321 140.632C526.628 139.83 524.976 139.028 523.367 138.226V102.467C523.367 97.4927 522.555 93.1167 520.914 89.3505C519.361 85.5676 516.881 82.6 513.481 80.4618C510.157 78.3121 505.842 77.259 500.573 77.259C497.65 77.259 494.645 77.9896 491.563 79.4334C488.494 80.777 485.525 82.5974 482.658 84.891C480.185 86.7866 477.891 88.8603 475.774 91.1119L476.819 78.4381L474.046 77.2248L473.865 77.2832C470.656 78.3216 467.162 79.3604 463.383 80.3997C459.722 81.3382 455.966 81.9485 452.115 82.2303L451.651 82.2642V88.205L460.455 91.045V138.572C459.304 139.444 458.112 140.232 456.879 140.938C455.672 141.587 454.322 142.192 452.828 142.753L452.373 142.923L454.359 148.716L454.742 148.69C457.477 148.501 460.116 148.407 462.659 148.407H462.668L462.677 148.407C465.322 148.312 467.872 148.265 470.327 148.265C472.877 148.265 475.379 148.312 477.834 148.407L477.844 148.407H477.853C480.397 148.407 483.036 148.501 485.771 148.69L486.164 148.717L487.982 142.933L487.558 142.759C485.948 142.096 484.196 141.386 482.303 140.628C480.617 139.918 479.017 139.125 477.501 138.248V98.2729C479.98 95.8224 482.632 93.9172 485.455 92.551C488.323 91.1635 491.325 90.471 494.467 90.471C498.42 90.471 501.336 91.7512 503.304 94.2559L503.31 94.2628C505.282 96.6838 506.321 100.706 506.321 106.443V138.572C505.173 139.446 504.026 140.236 502.88 140.941C501.679 141.587 500.288 142.19 498.703 142.749L498.224 142.919L500.377 148.715L500.75 148.69C503.484 148.501 506.124 148.407 508.667 148.407H508.677L508.686 148.407C511.236 148.312 513.738 148.265 516.193 148.265C518.743 148.265 521.293 148.312 523.843 148.407L523.852 148.407H523.861C526.5 148.407 529.139 148.501 531.778 148.69L532.172 148.718Z" fill="#331670"/>
<path d="M737.506 149.537L737.9 149.564L739.717 143.78L739.293 143.606C737.683 142.943 735.932 142.233 734.038 141.475C732.353 140.765 730.752 139.972 729.237 139.095V47.07L726.919 46L726.729 46.0648C723.147 47.2902 719.471 48.3744 715.699 49.3174C711.932 50.1649 707.594 50.9195 702.684 51.5804L702.251 51.6387V57.56L712.191 60.5419V139.419C711.04 140.291 709.848 141.08 708.614 141.785C707.408 142.434 706.058 143.039 704.563 143.6L704.108 143.77L706.094 149.563L706.477 149.537C709.212 149.348 711.851 149.254 714.395 149.254H714.404L714.413 149.254C716.963 149.159 719.466 149.112 721.921 149.112C724.471 149.112 727.021 149.159 729.57 149.254L729.58 149.254H729.589C732.133 149.254 734.772 149.348 737.506 149.537Z" fill="#2400FF"/>
<path fill-rule="evenodd" clip-rule="evenodd" d="M633.753 142.018L633.756 142.021C640.402 148.185 649.386 151.242 660.65 151.242C667.827 151.242 674.166 149.614 679.648 146.344C685.211 143.083 689.535 138.713 692.608 133.24C695.778 127.762 697.36 121.617 697.36 114.816C697.36 102.614 694.07 93.4173 687.402 87.3274C680.849 81.1617 671.911 78.1059 660.65 78.1059C653.471 78.1059 647.087 79.7339 641.511 83.0026L641.508 83.0045C636.039 86.2664 631.718 90.6351 628.551 96.1054L628.548 96.1112C625.473 101.588 623.94 107.732 623.94 114.532C623.94 126.641 627.183 135.835 633.753 142.018ZM674.744 137.364L674.743 137.366C671.822 141.017 667.715 142.858 662.354 142.858C658.794 142.858 655.449 141.584 652.308 138.998C649.264 136.414 646.751 132.705 644.785 127.84C642.92 122.894 641.98 116.994 641.98 110.13C641.98 101.649 643.539 95.6397 646.551 91.9881L646.555 91.9834C649.576 88.2308 653.687 86.3479 658.946 86.3479C662.604 86.3479 665.947 87.6244 668.988 90.2052C672.031 92.7866 674.497 96.5408 676.37 101.502L676.374 101.513C678.332 106.361 679.32 112.211 679.32 119.076C679.32 127.555 677.761 133.616 674.744 137.364Z" fill="#2400FF"/>
<path d="M781.029 149.558L782.844 143.78L782.42 143.606C780.812 142.943 779.109 142.234 777.312 141.477C775.62 140.765 773.971 139.968 772.364 139.087V79.138L770.059 78.0742L769.88 78.1252C765.909 79.2599 761.985 80.3473 758.108 81.3875C754.247 82.3288 750.149 83.0825 745.813 83.6481L745.378 83.7049V89.4809L755.318 92.6049V139.517C754.072 140.219 752.701 140.923 751.203 141.627C749.601 142.381 748.096 143.04 746.686 143.604L746.245 143.78L748.227 149.563L748.61 149.537C751.344 149.348 754.125 149.254 756.954 149.254H756.962L756.97 149.254C759.806 149.159 762.451 149.112 764.906 149.112C766.696 149.112 768.438 149.159 770.132 149.253L770.146 149.254H770.16C771.855 149.254 773.549 149.301 775.244 149.395L775.258 149.396H775.272C777.062 149.396 778.852 149.443 780.642 149.537L781.029 149.558Z" fill="#2400FF"/>
<path d="M751.484 59.8052L762.565 71.1779H763.973L774.636 60.8071V59.5406L763.413 48.0259H762.147L751.484 58.3967V59.8052Z" fill="#2400FF"/>
<path d="M850.106 134.873L850.193 134.643L847.601 130.43L846.513 130.702L846.407 130.835C844.278 133.52 841.789 135.452 838.941 136.647C836.161 137.759 833.29 138.314 830.327 138.314C826.149 138.314 822.454 137.34 819.226 135.405C816.111 133.479 813.616 130.489 811.755 126.399C809.9 122.224 808.959 116.81 808.959 110.13C808.959 102.223 810.326 96.3294 812.99 92.3781C815.713 88.4766 820.035 86.4899 826.067 86.4899C827.189 86.4899 828.262 86.5367 829.287 86.6299L829.31 86.6319H829.333C830.346 86.6319 831.316 86.7491 832.245 86.9822L841.511 106.796H847.287L847.299 106.308C847.393 102.351 847.723 98.2994 848.288 94.1515L848.288 94.15C848.856 89.8961 849.422 86.3577 849.987 83.532L850.015 83.392L849.461 81.9142L849.254 81.8327C846.094 80.5878 842.652 79.6799 838.93 79.1069C835.304 78.4394 831.584 78.1059 827.771 78.1059C820.588 78.1059 814.2 79.8308 808.623 83.292C803.153 86.6506 798.834 91.1628 795.668 96.8218L795.667 96.8244C792.593 102.395 791.061 108.633 791.061 115.526C791.061 122.883 792.542 129.265 795.525 134.654L795.527 134.657C798.503 139.938 802.495 144.028 807.499 146.915C812.5 149.8 817.983 151.242 823.937 151.242C827.978 151.242 831.785 150.472 835.353 148.929C838.907 147.392 841.987 145.372 844.59 142.866C847.188 140.364 849.034 137.701 850.106 134.873Z" fill="#2400FF"/>
<path d="M920.453 80.2359C918.283 80.2359 916.304 80.1887 914.516 80.0946C912.809 79.9998 910.723 79.905 908.261 79.8103L907.908 79.7967L905.596 85.5762L906.085 85.7508C907.396 86.2188 908.898 86.8291 910.594 87.5828L910.605 87.5876L910.616 87.5919C911.461 87.9205 912.294 88.2966 913.117 88.7206C913.806 89.0763 914.488 89.4657 915.162 89.8888L911.085 101.24L898.944 135.048H898.379L883.419 89.8895C884.731 89.0451 886.206 88.2771 887.845 87.5867C889.639 86.8317 891.192 86.2201 892.506 85.7508L892.971 85.5847L890.983 79.7871L890.602 79.8109C889.093 79.9052 887.489 79.9996 885.792 80.0939C884.181 80.0942 882.525 80.1415 880.822 80.2359H875.297C872.368 80.2359 869.391 80.1887 866.367 80.0942C863.339 79.9995 860.547 79.9049 857.992 79.8103L857.64 79.7972L855.336 85.5585L855.8 85.7442C856.731 86.1166 857.759 86.5839 858.886 87.1471L858.907 87.1579L858.93 87.1666C860.098 87.6158 861.726 88.4252 863.825 89.6063L886.89 145.704H894.937C892.108 151.297 888.899 155.835 885.314 159.33C881.558 162.992 877.669 165.848 873.65 167.905C869.608 169.973 865.618 171.521 861.681 172.552L861.307 172.65V175.596L877.743 185.134L878.006 184.942C880.508 183.114 883.138 180.576 885.899 177.34C888.672 174.184 891.53 170.037 894.473 164.91C897.517 159.773 900.651 153.361 903.874 145.681L927.388 89.873C929.023 88.792 930.512 87.9862 931.857 87.4482L931.865 87.4452L931.872 87.442C933.385 86.7801 934.707 86.2133 935.84 85.7415L936.272 85.5612L934.296 79.796L933.924 79.8103C931.462 79.905 929.189 79.9997 927.105 80.0944L927.104 80.0945C925.125 80.1887 922.909 80.2359 920.453 80.2359Z" fill="#2400FF"/>
<path d="M572.117 174.394L573.938 168.601L573.501 168.431C571.809 167.773 570.069 167.021 568.28 166.173L568.27 166.169L568.26 166.165C566.573 165.454 564.971 164.702 563.454 163.909V96.973C565.648 94.4524 568.096 92.7079 570.794 91.7184L570.801 91.7159L570.808 91.7132C573.588 90.6014 576.506 90.045 579.568 90.045C584.804 90.045 588.913 92.1458 591.942 96.3685L591.946 96.3742C595.069 100.599 596.676 107.378 596.676 116.809C596.676 124.281 595.593 130.005 593.474 134.027C591.369 138.024 588.237 140.353 584.054 141.065L583.638 141.136V150.131L584.207 150.051C588.785 149.415 593.054 147.896 597.01 145.494C602.387 142.229 606.66 137.763 609.825 132.105L609.826 132.102C612.995 126.34 614.574 119.818 614.574 112.549C614.574 105.024 613.479 98.6122 611.269 93.3281C609.057 88.0381 605.775 84.0227 601.416 81.3105C597.06 78.5997 591.709 77.259 585.39 77.259C581.637 77.259 578.162 77.9329 574.971 79.2867C571.802 80.6312 569.01 82.3627 566.6 84.4832C564.378 86.4279 562.635 88.5158 561.381 90.749H561.088L562.206 78.4484L559.566 77.2163L559.368 77.292C556.173 78.5135 552.788 79.548 549.213 80.395C545.632 81.1486 541.909 81.7612 538.044 82.2327L537.604 82.2863V88.2051L546.408 91.0451V164.248C545.262 165.111 544.076 165.849 542.851 166.462L542.838 166.468L542.826 166.475C541.521 167.221 540.169 167.874 538.771 168.433L538.329 168.61L540.312 174.393L540.696 174.366C543.339 174.177 545.65 174.036 547.63 173.941H563.372C566.298 174.036 569.081 174.177 571.723 174.366L572.117 174.394Z" fill="#2400FF"/>
</svg>
