<svg version="1.2" xmlns="http://www.w3.org/2000/svg" viewBox="0 0 596 556" width="596" height="556">
	<title>logo Ostorlab (1) (2) (1)-svg-svg</title>
	<style>
		.s0 { fill: #004d69 } 
		.s1 { fill: #969593 } 
	</style>
	<g id="Layer 1">
		<g id="&lt;Group&gt;">
			<g id="Folder 2">
				<path id="&lt;Compound Path&gt;" fill-rule="evenodd" class="s0" d="m364.8 472.9q9.9 0 15.2 1.2 5.4 1.5 9.4 4.8 3.6 3.3 5.1 8.1 1.1 4.8 1.1 14.1v7.8h-14.6v-7.8q0-8.7-3-11.7-3.3-3.3-11.4-3.3h-6.4v66.6h-15.9v-79.8zm-71.1-0.9q18.9 0 29.1 10.8 10.2 10.4 10.2 30.3 0 19.2-10.5 29.7-10.8 10.5-30 10.5-19.8 0-30.4-9.9-10.4-10.2-10.4-28.8 0-9.3 2.7-17.4 2.6-7.8 7.5-13.5 5.4-6 13.2-8.8 7.5-2.9 18.6-2.9zm-1.8 13.2q-11.4 0-17.7 7.2-6 7.4-6 21 0 13.5 6 20.1 6 6.9 17.7 6.9 24.9 0 24.9-27 0-13.8-6.6-21-6.3-7.2-18.3-7.2zm-81.4-41.8h16v29.5h23.1v12.6h-23.1v42q0 4.2 0.5 6.6 0.3 2.4 1.8 4 1.5 1.1 4.3 1.4 2.7 0.6 7.2 0.6h9.3v12.6h-15.3q-7.5 0-11.4-1.1-4-1-6.9-3.7-2.7-2.7-4.2-7.2-1.3-4.5-1.3-12v-43.2h-15v-12.6h15zm-21.6 42h-36q-4.2 0-6.6 0.3-2.7 0-4.2 0.3-1.2 0-2 0.6-1 0.6-1.8 1.2-2.5 3-2.5 8.7 0 3 0.7 4.8 0.3 2.1 2 3 1.8 1.2 4.9 1.5 3.3 0.6 8.1 0.6h10.7q6.9 0 10.9 0 3.8 0.3 5.9 0.3 2.2 0.3 3.3 0.9 1 0.6 2.5 1.5 3.6 2.4 5.6 7.5 1.8 5.1 1.8 12.1 0 8.4-2.6 13.7-2.7 5.7-8.1 8.1-1.5 0.6-2.8 0.9-1.5 0.7-3.5 0.9-2.1 0-5.1 0.3-3.3 0-7.9 0h-42v-12.5h38.2q6.3 0 9.6-0.4 2.9-0.3 4.1-0.9 3.9-1.5 3.9-8.6 0-8.1-5.1-9.1-1.1-0.3-3.6-0.6-2.3 0-7.8 0h-6.6q-6.2 0-10.5-0.2-4.1 0-6.9-0.7-3-0.3-4.8-1.5-1.8-0.9-3.3-2.4-3.9-3.3-6-8.4-2.1-5.1-2.1-10.8 0-7.2 3-12.6 2.8-5.4 8.1-8.1 3.1-1.5 7.2-2.4 4.5-0.6 11.1-0.6h40.2zm-126.9-43.5q51 0 51 55.8 0 16.2-3.9 26.7-3.9 10.8-12 18-14.1 11.7-37.8 11.7-14.2 0-24.6-4.2-10.5-4.2-16.8-12.3-2.5-3.3-4.6-7.5-1.7-4.5-3.3-9.6-1.5-5.1-2-10.8-1-5.7-1-11.4 0-12.6 3.7-23.4 3.3-11.1 9.3-17.7 7.2-7.8 17.4-11.7 10.2-3.6 24.6-3.6zm-1.9 13.8q-11 0-18.8 4.2-7.6 4.2-11.4 12.3-1.8 4.5-3.1 11.1-1.1 6.9-1.1 14.7 0 22.2 8.4 32.1 8.1 10.2 26.4 10.2 23.1 0 30.3-16.8 1.8-3.9 2.7-10.5 0.9-6.9 0.9-14.4 0-9.9-1.5-18-1.8-8.1-4.8-12.7-8.1-12.2-28-12.2z"/>
				<path id="&lt;Compound Path&gt;" fill-rule="evenodd" class="s1" d="m558.9 472.9q10.2 0 16 2 5.9 2.2 10.7 7.6 4.6 4.8 6.9 12.3 2.2 7.5 2.2 16.8 0 9.9-2.2 17.7-2.3 7.8-6.6 12.9-2.3 3-5.4 5.1-3 1.8-6.6 3-3.8 1.3-9.2 1.8-5.2 0.6-12.4 0.6h-31.5v-109.3h16v29.5zm-22.3 67.2h18.7q7.7 0 12.2-2 4.6-1.9 6.9-6.4 3.9-7.2 3.9-18.9 0-14.7-5.1-21-5.1-6.3-17.4-6.3h-19.2zm-47.4-36q0-6.1-0.6-9.7-0.3-3.8-2.4-5.6-1.8-2.1-5.4-2.8-3.6-0.5-9.6-0.5h-37.5v-12.7h41.1q10.5 0 16.2 1.8 5.7 1.5 9 5.8 3 3.3 4.2 8.1 0.9 4.7 0.9 13.8v50.4h-40.2q-6.1 0-9.9-0.3-3.9-0.3-6.9-0.6-2.7-0.7-4.8-1.8-2.1-0.9-4.3-2.4-8.1-6.9-8.1-18.9 0-7.2 2.8-12.9 2.7-5.7 7.8-8.4 2.6-1.8 7.4-2.8 4.6-0.5 12.1-0.5zm-26.4 12.6q-8.8 0-12.4 2.7-3.3 2.7-3.3 9 0 6.6 3.3 9 3.6 2.7 12.4 2.7h26.4v-23.4zm-44.1-73.3v109.3h-16v-109.3z"/>
				<path id="&lt;Compound Path&gt; copy" fill-rule="evenodd" class="s0" d="m364.8 472.9q9.9 0 15.2 1.2 5.4 1.5 9.4 4.8 3.6 3.3 5.1 8.1 1.1 4.8 1.1 14.1v7.8h-14.6v-7.8q0-8.7-3-11.7-3.3-3.3-11.4-3.3h-6.4v66.6h-15.9v-79.8zm-71.1-0.9q18.9 0 29.1 10.8 10.2 10.4 10.2 30.3 0 19.2-10.5 29.7-10.8 10.5-30 10.5-19.8 0-30.4-9.9-10.4-10.2-10.4-28.8 0-9.3 2.7-17.4 2.6-7.8 7.5-13.5 5.4-6 13.2-8.8 7.5-2.9 18.6-2.9zm-1.8 13.2q-11.4 0-17.7 7.2-6 7.4-6 21 0 13.5 6 20.1 6 6.9 17.7 6.9 24.9 0 24.9-27 0-13.8-6.6-21-6.3-7.2-18.3-7.2zm-81.4-41.8h16v29.5h23.1v12.6h-23.1v42q0 4.2 0.5 6.6 0.3 2.4 1.8 4 1.5 1.1 4.3 1.4 2.7 0.6 7.2 0.6h9.3v12.6h-15.3q-7.5 0-11.4-1.1-4-1-6.9-3.7-2.7-2.7-4.2-7.2-1.3-4.5-1.3-12v-43.2h-15v-12.6h15zm-21.6 42h-36q-4.2 0-6.6 0.3-2.7 0-4.2 0.3-1.2 0-2 0.6-1 0.6-1.8 1.2-2.5 3-2.5 8.7 0 3 0.7 4.8 0.3 2.1 2 3 1.8 1.2 4.9 1.5 3.3 0.6 8.1 0.6h10.7q6.9 0 10.9 0 3.8 0.3 5.9 0.3 2.2 0.3 3.3 0.9 1 0.6 2.5 1.5 3.6 2.4 5.6 7.5 1.8 5.1 1.8 12.1 0 8.4-2.6 13.7-2.7 5.7-8.1 8.1-1.5 0.6-2.8 0.9-1.5 0.7-3.5 0.9-2.1 0-5.1 0.3-3.3 0-7.9 0h-42v-12.5h38.2q6.3 0 9.6-0.4 2.9-0.3 4.1-0.9 3.9-1.5 3.9-8.6 0-8.1-5.1-9.1-1.1-0.3-3.6-0.6-2.3 0-7.8 0h-6.6q-6.2 0-10.5-0.2-4.1 0-6.9-0.7-3-0.3-4.8-1.5-1.8-0.9-3.3-2.4-3.9-3.3-6-8.4-2.1-5.1-2.1-10.8 0-7.2 3-12.6 2.8-5.4 8.1-8.1 3.1-1.5 7.2-2.4 4.5-0.6 11.1-0.6h40.2zm-126.9-43.5q51 0 51 55.8 0 16.2-3.9 26.7-3.9 10.8-12 18-14.1 11.7-37.8 11.7-14.2 0-24.6-4.2-10.5-4.2-16.8-12.3-2.5-3.3-4.6-7.5-1.7-4.5-3.3-9.6-1.5-5.1-2-10.8-1-5.7-1-11.4 0-12.6 3.7-23.4 3.3-11.1 9.3-17.7 7.2-7.8 17.4-11.7 10.2-3.6 24.6-3.6zm-1.9 13.8q-11 0-18.8 4.2-7.6 4.2-11.4 12.3-1.8 4.5-3.1 11.1-1.1 6.9-1.1 14.7 0 22.2 8.4 32.1 8.1 10.2 26.4 10.2 23.1 0 30.3-16.8 1.8-3.9 2.7-10.5 0.9-6.9 0.9-14.4 0-9.9-1.5-18-1.8-8.1-4.8-12.7-8.1-12.2-28-12.2z"/>
				<path id="&lt;Compound Path&gt; copy 2" fill-rule="evenodd" class="s1" d="m558.9 472.9q10.2 0 16 2 5.9 2.2 10.7 7.6 4.6 4.8 6.9 12.3 2.2 7.5 2.2 16.8 0 9.9-2.2 17.7-2.3 7.8-6.6 12.9-2.3 3-5.4 5.1-3 1.8-6.6 3-3.8 1.3-9.2 1.8-5.2 0.6-12.4 0.6h-31.5v-109.3h16v29.5zm-22.3 67.2h18.7q7.7 0 12.2-2 4.6-1.9 6.9-6.4 3.9-7.2 3.9-18.9 0-14.7-5.1-21-5.1-6.3-17.4-6.3h-19.2zm-47.4-36q0-6.1-0.6-9.7-0.3-3.8-2.4-5.6-1.8-2.1-5.4-2.8-3.6-0.5-9.6-0.5h-37.5v-12.7h41.1q10.5 0 16.2 1.8 5.7 1.5 9 5.8 3 3.3 4.2 8.1 0.9 4.7 0.9 13.8v50.4h-40.2q-6.1 0-9.9-0.3-3.9-0.3-6.9-0.6-2.7-0.7-4.8-1.8-2.1-0.9-4.3-2.4-8.1-6.9-8.1-18.9 0-7.2 2.8-12.9 2.7-5.7 7.8-8.4 2.6-1.8 7.4-2.8 4.6-0.5 12.1-0.5zm-26.4 12.6q-8.8 0-12.4 2.7-3.3 2.7-3.3 9 0 6.6 3.3 9 3.6 2.7 12.4 2.7h26.4v-23.4zm-44.1-73.3v109.3h-16v-109.3z"/>
			</g>
			<g id="Folder 1">
				<path id="&lt;Compound Path&gt;" fill-rule="evenodd" class="s0" d="m300.8 419.7c-114.7 0-207.4-92.6-207.4-207.3 0-114.7 92.7-207.4 207.4-207.4 114.7 0 207.4 92.7 207.4 207.4 0 114.7-92.7 207.3-207.4 207.3zm194.8-207.3c0 53.7-21.6 102.6-57.1 137.7-35.1 35.1-83.6 57-137.7 57-53.7 0-102.4-21.9-137.5-57-35.3-35.1-57-84-57-137.7 0-53.8 21.7-102.4 57-137.8 35.1-35.2 83.8-57.1 137.5-57.1 54.1 0 102.6 21.9 137.7 57.1 35.5 35.4 57.1 84 57.1 137.8zm-229-19v-20.1h-22.2v3.3h-22.5c5.7-16.8 15.3-32.1 27.6-44.4q6.6-6.6 14.4-12.3v39.9 2.5l1.5 1.8 15.6 17.6v61.5l-15.6 17.5-1.5 1.8v2.7 39.6q-7.8-5.4-14.4-12c-12.3-12.6-21.9-27.6-27.6-44.8h22.5v3.3h22.2v-20.1h-22.2v3.3h-26.2q-1.5-7.4-1.8-15.2h28v3.3h22.2v-20.1h-22.2v3.3h-28q0.3-8.1 1.8-15.7h26.2v3.3zm-121.5-73.5h33.3 4.1l1.8 3.6 13.2 26.4h21.6q4-6.6 8.5-12.6h-22-4.1l-1.8-3.9-13.2-26.1h-33q-4.6 6-8.4 12.6zm67.4 43.5h-19.1-3.9l-1.9-3.9-13.2-26.1h-36.6q-3.3 6.6-6 13.2h33.1 4.1l1.8 3.9 12.9 26.1h24.4q1.8-6.9 4.4-13.2zm-74.7 128.2h36.6l13.2-26.4 1.9-3.6h3.9 19.1q-2.6-6.6-4.4-13.6h-24.4l-12.9 26.5-1.8 3.5h-4.1-33.1q2.7 7 6 13.6zm81.3-16.5h-21.6l-13.2 26.1-1.8 3.6h-4.1-33.3q3.8 6.6 8.4 12.9h33l13.2-26.5 1.8-3.5h4.1 22q-4.5-6.4-8.5-12.6zm-99.3-69.3h83.2q0.6-8.1 1.8-15.7h-24.9-4.3l-1.8-3.6-13.2-26.4h-33.3c-4.2 14.4-6.9 29.7-7.5 45.7zm83.2 13.5h-83.2c0.6 15.5 3.3 30.9 7.5 45.2h33.3l13.2-26 1.8-4h4.3 24.9q-1.2-7.4-1.8-15.2zm191.1-25.9v-20.1h21.9v3.3h21.6c-5.6-16.8-15-32.1-27.5-44.4q-6.6-6.6-14.2-12.3v39.9 2.5l-1.8 1.8-15.3 17.6v61.5l15.3 17.5 1.8 1.8v2.7 39.6q7.6-5.4 14.2-12c12.5-12.6 21.9-27.6 27.5-44.8h-21.6v3.3h-21.9v-20.1h21.9v3.3h25.3q1.5-7.4 1.8-15.2h-27.1v3.3h-21.9v-20.1h21.9v3.3h27.1q-0.3-8.1-1.8-15.7h-25.3v3.3zm-160.2 187.4v-20.5-3.9l3.6-2 26.7-13.2v-20.2c-8.7-5.4-16.8-11.7-24.1-18.9q-0.5-0.6-1.1-1.2h-29.1l-13.2 26.4-1.8 3.6h-4.3-26.3q4.1 5.1 8.7 9.6c17.3 17.5 37.8 30.9 60.9 40.3zm72-43.6v21.9 4.2l-3.9 1.8-26.4 13.2v13.5q12.6 1.8 25.5 1.8 11.4 0 22.3-1.1v-53.2q-9.1-0.6-17.5-2.1zm-43.8 52.3v-15.3-4.3l3.9-1.8 26.4-13.2v-21.3q-7.8-2.3-15-5.7v17.4 4.3l-3.6 1.7-26.4 13.3v20.9q7.2 2.2 14.7 4zm105.6-52.3v17.7l26.4 13.2q5.8-3.5 11.2-7.5l-18.9-9.3-3.6-1.7v-4.3-17.4q-7.3 3.4-15.1 5.7zm12.1 38.7l-21.6-10.8-4-1.8v-4.2-21.9q-8.4 1.5-17.3 2.1v51c15-3 29.4-8.1 42.9-14.4zm-115.6-271.9v-20.4l-26.7-13.2-3.6-1.8v-4.2-20.4c-23.1 9.3-43.6 23.1-60.9 40.2q-4.6 4.5-8.7 9.6h26.3 4.3l1.8 3.6 13.2 26.4h29.1q0.6-0.6 1.1-1.2c7.3-7.2 15.4-13.5 24.1-18.6zm28.2-12.9v-21.4l-26.4-13.1-3.9-1.9v-4.1-15.3q-7.5 1.8-14.7 3.9v21l26.4 13.2 3.6 1.8v4.2 17.4q7.2-3.3 15-5.7zm124.8-18.1l-21.3 10.6v20.4c8.8 5.1 16.9 11.4 24.1 18.6 22.8 23.1 37.1 54.6 37.1 89.8 0 35.1-14.3 66.9-37.1 89.7-7.2 7.2-15.3 13.5-24.1 18.9v20.1l21.3 10.5q6.4-5.1 12.4-11.1c32.7-32.7 53.1-78 53.1-128.1 0-50.2-20.4-95.5-53.1-128.2q-6-5.7-12.4-11.2zm-23.1-16.4l-26.4 13.1v17.8 3.6q7.8 2.4 15.1 5.7v-17.4-4.2l3.6-1.8 18.9-9.3q-5.4-3.9-11.2-7.5zm-70.7 29.1v-53.4q-10.9-1.2-22.3-1.2-12.9 0-25.5 1.7v13.9l26.4 12.8 3.9 1.8v4.3 21.9 0.3q8.4-1.8 17.5-2.1zm13.5-51.1v51.1q8.9 0.3 17.3 2.1v-0.3-21.9-4.3l4-1.8 21.6-10.7c-13.5-6.3-27.9-11.1-42.9-14.2zm-16.8 84.1h3.3v-19.5q-9.1 0.3-17.5 2.1v48.1l15.3 17.3 1.8 2.1v2.5 82.1 2.8l-1.8 1.8-15.3 17.4v48q8.4 1.8 17.5 2.4v-25.2h-3.3v-22.2h20.1v22.2h-3.3v25.2q8.9-0.6 17.3-2.4v-48l-15.3-17.4-1.8-1.8v-2.8-82.1-2.5l1.8-2.1 15.3-17.3v-48.1q-8.4-1.8-17.3-2.1v19.5h3.3v21.9h-20.1zm-42.7-6.6v2.7 42.7l15.6 17.3 1.5 2.1v2.5 66.6 2.4l-1.5 1.8-15.6 17.7v42.6 2.7q7.2 3.9 15 6.6v-46.5-2.7l1.8-1.8 15.3-17.5v-77.3l-15.3-17.5-1.8-1.8v-2.7-46.5q-7.8 2.7-15 6.6zm105.4 201.1v-2.7-42.6l-15.7-17.7-1.5-1.8v-2.4-66.6-2.5l1.5-2.1 15.7-17.3v-42.7-2.7q-7.3-3.9-15.1-6.6v46.5 2.7l-1.8 1.8-15.3 17.5v77.3l15.3 17.5 1.8 1.8v2.7 46.5q7.8-2.7 15.1-6.6z"/>
				<path id="&lt;Compound Path&gt; copy 3" fill-rule="evenodd" class="s0" d="m299.9 419.7c-114.7 0-207.4-92.6-207.4-207.3 0-114.7 92.7-207.4 207.4-207.4 114.6 0 207.3 92.7 207.3 207.4 0 114.7-92.7 207.3-207.3 207.3zm194.8-207.3c0 53.7-21.7 102.6-57.1 137.7-35.1 35.1-83.8 57-137.7 57-53.8 0-102.4-21.9-137.5-57-35.5-35.1-57.1-84-57.1-137.7 0-53.8 21.6-102.4 57.1-137.8 35.1-35.2 83.7-57.1 137.5-57.1 53.9 0 102.6 21.9 137.7 57.1 35.4 35.4 57.1 84 57.1 137.8zm-229.1-19v-20.1h-22.2v3.3h-22.5c5.7-16.8 15.3-32.1 27.6-44.4q6.6-6.6 14.5-12.3v39.9 2.5l1.4 1.8 15.6 17.6v61.5l-15.6 17.5-1.4 1.8v2.7 39.6q-7.9-5.4-14.5-12c-12.3-12.6-21.9-27.6-27.6-44.8h22.5v3.3h22.2v-20.1h-22.2v3.3h-26.1q-1.5-7.4-1.8-15.2h27.9v3.3h22.2v-20.1h-22.2v3.3h-27.9q0.3-8.1 1.8-15.7h26.1v3.3zm-121.6-73.5h33.3 4.3l1.8 3.6 13.2 26.4h21.6q3.8-6.6 8.4-12.6h-21.9-4.3l-1.8-3.9-13.2-26.1h-33q-4.4 6-8.4 12.6zm67.6 43.5h-19.2-3.9l-1.8-3.9-13.2-26.1h-36.7q-3.3 6.6-6 13.2h33 4.3l1.8 3.9 12.9 26.1h24.2q1.8-6.9 4.6-13.2zm-74.8 128.2h36.7l13.2-26.4 1.8-3.6h3.9 19.2q-2.8-6.6-4.6-13.6h-24.2l-12.9 26.5-1.8 3.5h-4.3-33q2.7 7 6 13.6zm81.4-16.5h-21.6l-13.2 26.1-1.8 3.6h-4.3-33.3q4 6.6 8.4 12.9h33l13.2-26.5 1.8-3.5h4.3 21.9q-4.6-6.4-8.4-12.6zm-99.4-69.3h83.1q0.7-8.1 1.8-15.7h-24.9-4.1l-1.8-3.6-13.2-26.4h-33.3c-4.3 14.4-7 29.7-7.6 45.7zm83.1 13.5h-83.1c0.6 15.5 3.3 30.9 7.6 45.2h33.3l13.2-26 1.8-4h4.1 24.9q-1.1-7.4-1.8-15.2zm191.3-25.9v-20.1h21.9v3.3h21.6c-5.7-16.8-15-32.1-27.7-44.4q-6.6-6.6-14-12.3v39.9 2.5l-1.8 1.8-15.3 17.6v61.5l15.3 17.5 1.8 1.8v2.7 39.6q7.4-5.4 14-12c12.7-12.6 22-27.6 27.7-44.8h-21.6v3.3h-21.9v-20.1h21.9v3.3h25.2q1.5-7.4 1.8-15.2h-27v3.3h-21.9v-20.1h21.9v3.3h27q-0.3-8.1-1.8-15.7h-25.2v3.3zm-160.3 187.4v-20.5-3.9l3.6-2 26.8-13.2v-20.2c-8.8-5.4-16.9-11.7-24.1-18.9q-0.6-0.6-1.2-1.2h-29.1l-13.2 26.4-1.8 3.6h-4.2-26.4q4.2 5.1 8.6 9.6c17.5 17.5 37.9 30.9 61 40.3zm72.1-43.6v21.9 4.2l-4 1.8-26.4 13.2v13.5q12.6 1.8 25.6 1.8 11.4 0 22.1-1.1v-53.2q-8.9-0.6-17.3-2.1zm-43.9 52.3v-15.3-4.3l4-1.8 26.4-13.2v-21.3q-7.9-2.3-15-5.7v17.4 4.3l-3.7 1.7-26.4 13.3v20.9q7.2 2.2 14.7 4zm105.7-52.3v17.7l26.4 13.2q5.6-3.5 11.1-7.5l-19-9.3-3.5-1.7v-4.3-17.4q-7.2 3.4-15 5.7zm11.9 38.7l-21.6-10.8-3.8-1.8v-4.2-21.9q-8.4 1.5-17.5 2.1v51c15-3 29.5-8.1 42.9-14.4zm-115.4-271.9v-20.4l-26.8-13.2-3.6-1.8v-4.2-20.4c-23.1 9.3-43.5 23.1-61 40.2q-4.4 4.5-8.6 9.6h26.4 4.2l1.8 3.6 13.2 26.4h29.1q0.6-0.6 1.2-1.2c7.2-7.2 15.3-13.5 24.1-18.6zm28.2-12.9v-21.4l-26.4-13.1-4-1.9v-4.1-15.3q-7.5 1.8-14.7 3.9v21l26.4 13.2 3.7 1.8v4.2 17.4q7.1-3.3 15-5.7zm124.8-18.1l-21.3 10.6v20.4c8.7 5.1 16.8 11.4 24 18.6 22.8 23.1 37.2 54.6 37.2 89.8 0 35.1-14.4 66.9-37.2 89.7-7.2 7.2-15.3 13.5-24 18.9v20.1l21.3 10.5q6.3-5.1 12.3-11.1c32.7-32.7 53.2-78 53.2-128.1 0-50.2-20.5-95.5-53.2-128.2q-6-5.7-12.3-11.2zm-23.1-16.4l-26.4 13.1v17.8 3.6q7.8 2.4 15 5.7v-17.4-4.2l3.5-1.8 19-9.3q-5.5-3.9-11.1-7.5zm-70.9 29.1v-53.4q-10.7-1.2-22.1-1.2-13 0-25.6 1.7v13.9l26.4 12.8 4 1.8v4.3 21.9 0.3q8.4-1.8 17.3-2.1zm13.5-51.1v51.1q9.1 0.3 17.5 2.1v-0.3-21.9-4.3l3.8-1.8 21.6-10.7c-13.4-6.3-27.9-11.1-42.9-14.2zm-16.8 84.1h3.3v-19.5q-8.9 0.3-17.3 2.1v48.1l15.2 17.3 1.8 2.1v2.5 82.1 2.8l-1.8 1.8-15.2 17.4v48q8.4 1.8 17.3 2.4v-25.2h-3.3v-22.2h20.1v22.2h-3.3v25.2q9.1-0.6 17.5-2.4v-48l-15.3-17.4-1.8-1.8v-2.8-82.1-2.5l1.8-2.1 15.3-17.3v-48.1q-8.4-1.8-17.5-2.1v19.5h3.3v21.9h-20.1zm-42.5-6.6v2.7 42.7l15.5 17.3 1.5 2.1v2.5 66.6 2.4l-1.5 1.8-15.5 17.7v42.6 2.7q7.1 3.9 15 6.6v-46.5-2.7l1.8-1.8 15.2-17.5v-77.3l-15.2-17.5-1.8-1.8v-2.7-46.5q-7.9 2.7-15 6.6zm105.3 201.1v-2.7-42.6l-15.6-17.7-1.5-1.8v-2.4-66.6-2.5l1.5-2.1 15.6-17.3v-42.7-2.7q-7.2-3.9-15-6.6v46.5 2.7l-1.8 1.8-15.3 17.5v77.3l15.3 17.5 1.8 1.8v2.7 46.5q7.8-2.7 15-6.6z"/>
			</g>
			<g id="Folder 2 copy">
			</g>
		</g>
		<g id="&lt;Group&gt;">
		</g>
		<g id="&lt;Group&gt;">
		</g>
		<g id="&lt;Group&gt;">
		</g>
		<g id="&lt;Group&gt;">
		</g>
		<g id="&lt;Group&gt;">
		</g>
		<g id="C 41, M 11,Y 0, K 59">
		</g>
		<g id="C 0, M 0, Y 1, K 41">
		</g>
	</g>
</svg>