<?xml version="1.0" encoding="UTF-8"?>
<svg id="Layer_2" data-name="Layer 2" xmlns="http://www.w3.org/2000/svg" viewBox="0 0 94.8 72.3">
  <defs>
    <style>
      .cls-1 {
        fill: #ad2b24;
      }

      .cls-2 {
        fill: #0d1739;
      }

      .cls-3 {
        fill: #fff;
      }

      .cls-4 {
        fill: #221f1f;
      }
    </style>
  </defs>
  <g id="Layer_1-2" data-name="Layer 1">
    <g>
      <g>
        <path class="cls-1" d="M27.28,28.21c.77-.48,2.17-1.27,2.94-1.75-1.1-2.55-2.54-5.75-3.34-9.53-.65-3.11-.94-5.93-1.03-8.34,2.62-1.3,6.03-2.71,10.17-3.73,3.89-.96,7.36-1.33,10.17-1.43.08,1.88.16,3.76.24,5.64,2.67-.06,6.08.12,9.93.95,3.03.66,5.62,1.57,7.7,2.46-.1,1.89-.41,4.31-1.27,6.99-.52,1.62-1.4,3.31-2.01,4.49.77.61,1.69,1.15,2.56,1.55,1.1-2.15,2.28-4.98,3.1-8.42.57-2.42.84-4.63.95-6.51-2.24-1.36-5.65-3.05-10.09-3.97-2.95-.61-5.56-.71-7.62-.64l-.24-5.96c-3.71-.1-8.76.15-14.53,1.59-5.48,1.36-9.86,3.35-13.02,5.08,0,3.06.32,7.28,1.75,12.07,1.13,3.78,2.31,7.16,3.65,9.45Z"/>
        <path class="cls-1" d="M44.09,6.24v2.91c-2.17.36-4.55.88-7.09,1.61-1.78.52-3.43,1.08-4.95,1.67.21,2.21.67,5.02,1.69,8.15,1.06,3.24,2.41,5.84,3.6,7.78-1.58.96-3.16,1.92-4.74,2.89,1.41,2.52,3.53,5.75,6.67,9.03,3.13,3.27,6.25,5.53,8.71,7.04,2.24-1.37,4.97-3.3,7.76-5.98,2.79-2.69,4.83-5.35,6.27-7.54l2.51,1.72c-1.83,2.71-4.47,6.05-8.15,9.34-3.05,2.73-6.02,4.73-8.52,6.17-3.42-1.98-8.11-5.24-12.57-10.35-3.25-3.73-5.45-7.38-6.94-10.32,1.61-.95,3.23-1.91,4.84-2.86-1.11-2.29-2.29-5.2-3.18-8.68-.8-3.12-1.17-5.93-1.32-8.29,1.88-.98,4.28-2.03,7.15-2.86,3.16-.91,6-1.29,8.26-1.43Z"/>
        <path class="cls-1" d="M51.9.26c-.03,1.03-.05,2.06-.08,3.1,3.16.34,6.99,1.04,11.2,2.46,2.65.9,4.99,1.92,6.99,2.94.15,2.66.07,6.59-1.19,11.12-1.1,3.96-2.72,7.03-4.05,9.13-1.61-.9-3.23-1.8-4.84-2.7-1.2,2.18-2.87,4.78-5.16,7.46-2.36,2.77-4.74,4.88-6.75,6.43-1.66-1.25-3.57-2.89-5.48-5-1.54-1.7-2.77-3.36-3.73-4.84-.93.64-1.85,1.27-2.78,1.91,1.58,2.1,3.56,4.45,6.04,6.83,2.07,2,4.1,3.65,5.96,5,2.45-1.65,5.42-4.02,8.34-7.31,1.98-2.24,3.51-4.42,4.69-6.35l5.24,2.86c1.94-3.08,4.36-7.71,5.88-13.74,1.25-4.98,1.5-9.36,1.43-12.63-2.77-1.72-6.75-3.78-11.83-5.16-3.77-1.02-7.14-1.4-9.85-1.51Z"/>
        <path class="cls-1" d="M48.13,11.77c-5.48.06-9.91,1.19-12.87,2.18.49,3,1.6,7.58,4.37,12.55,2.77,4.97,6.08,8.33,8.38,10.32,2.38-2.07,5.76-5.5,8.62-10.52,2.8-4.92,3.96-9.12,4.54-12.2-2.99-.96-7.46-2.39-13.04-2.33ZM54.12,25.18c-2.01,3.53-4.37,5.93-6.05,7.38-1.61-1.4-3.94-3.76-5.88-7.24-1.94-3.48-2.72-6.7-3.06-8.8,2.07-.7,5.18-1.49,9.03-1.53,3.91-.04,7.05.96,9.15,1.64-.41,2.16-1.22,5.11-3.18,8.56Z"/>
        <polygon class="cls-1" points="36.59 16.74 46.69 21.71 47.73 20.33 37.92 14.4 36.59 16.74"/>
        <polygon class="cls-1" points="59.89 16.75 49.43 21.7 48.42 20.33 58.6 14.38 59.89 16.75"/>
        <polygon class="cls-1" points="46.73 33.54 47.24 22.77 48.88 22.77 49.39 33.55 46.73 33.54"/>
        <circle class="cls-1" cx="37" cy="15.5" r="2.86"/>
        <circle class="cls-1" cx="48.06" cy="33.94" r="2.86"/>
        <circle class="cls-3" cx="37" cy="15.43" r="1.38"/>
        <circle class="cls-1" cx="59.5" cy="15.5" r="2.86"/>
        <circle class="cls-3" cx="59.5" cy="15.43" r="1.38"/>
        <circle class="cls-3" cx="48.06" cy="33.94" r="1.38"/>
        <circle class="cls-1" cx="48.06" cy="21.66" r="2.86"/>
        <circle class="cls-3" cx="48.06" cy="21.66" r="1.38"/>
      </g>
      <g>
        <path class="cls-1" d="M0,61.16h5.36c.11,0,.17-.04.17-.13v-.96s-.02-.06-.05-.08c-.04-.03-.07-.04-.12-.04H0v-1.51h6.46c.1,0,.2.03.31.09s.21.13.3.23.17.19.23.3c.06.11.09.21.09.31v2.08c0,.22-.05.42-.15.58-.1.16-.23.29-.4.39-.16.1-.35.17-.56.22-.21.05-.41.07-.62.07l2.5,2.29h-2.58l-2.56-2.29h-1.16v2.29H0v-3.82Z"/>
        <path class="cls-1" d="M8.32,64.98v-6.54h6.79v1.51h-4.95v1.03h2.6v1.51h-2.6v.98h4.95v1.51h-6.79Z"/>
        <path class="cls-1" d="M23.07,58.53c.11.06.21.13.29.23s.16.19.22.3.09.21.09.31v4.37c0,.22-.03.42-.1.58-.07.16-.16.29-.27.39s-.24.17-.38.21c-.14.05-.29.07-.44.07h-6.44v-3.82h1.85v2.29h3.76c.1,0,.16-.04.16-.13v-3.26s-.02-.06-.05-.08c-.03-.03-.07-.04-.11-.04h-5.62v-1.5h6.7c.1,0,.21.03.32.09Z"/>
        <path class="cls-1" d="M26.48,64.98h-1.85v-6.54h1.85v2.54h3.94v-2.54h1.85v6.54h-1.85v-2.49h-3.94v2.49Z"/>
        <path class="cls-1" d="M35.06,58.44v5.03h3.93v-5.03h1.85v5.37c0,.19-.04.36-.13.5-.09.15-.2.27-.34.37s-.29.18-.46.23-.34.07-.5.07h-4.78c-.18,0-.36-.02-.52-.07-.17-.04-.32-.12-.46-.21-.14-.09-.24-.21-.32-.36-.08-.15-.12-.32-.12-.53v-5.37h1.84Z"/>
        <path class="cls-1" d="M47.45,64.98l-3.8-3.97v3.97h-1.85v-6.54h2.01l3.77,4v-4h1.84v6.54h-1.97Z"/>
        <path class="cls-1" d="M52.81,64.98v-5.03h-2.44v-1.51h6.79v1.51h-2.5v5.03h-1.84Z"/>
        <path class="cls-2" d="M61.66,64.98v-6.54h1.84v5.03h4.95v1.51h-6.79Z"/>
        <path class="cls-2" d="M75.94,64.98l-.5-.88h-3.84l-.49.88h-1.98l3.47-6.54h1.84l3.47,6.54h-1.97ZM73.52,60.43l-1.15,2.15h2.33l-1.17-2.15Z"/>
        <path class="cls-2" d="M78.58,60.97h5.38c.11,0,.17-.04.17-.13v-.78s-.02-.06-.05-.08c-.04-.03-.07-.04-.12-.04h-5.38v-1.51h6.48c.1,0,.2.03.31.09.11.06.21.13.3.23s.17.19.23.3.09.21.09.31v1.66c0,.24,0,.39-.03.47-.02.08-.04.14-.07.18h-.01s.04.06.08.11c.04.04.08.09.12.14.04.05.08.1.12.16.04.05.05.1.05.14v1.84c0,.1-.03.2-.09.31-.06.11-.13.21-.22.3s-.19.17-.29.23c-.11.06-.21.09-.32.09h-6.74v-4ZM80.43,63.47h3.77c.11,0,.17-.04.17-.12v-.73s-.02-.06-.05-.08c-.04-.03-.07-.04-.12-.04h-3.77v.98Z"/>
        <path class="cls-2" d="M89.2,59.95s-.08.01-.12.04c-.04.03-.05.06-.05.08v.75c0,.08.06.13.17.13h4.42c.15,0,.29.02.43.06.14.04.27.11.38.21s.2.22.27.38.1.35.1.58v1.88c0,.1-.03.2-.09.31-.06.11-.13.21-.22.3-.09.09-.19.17-.29.23-.11.06-.21.09-.32.09h-6.7v-1.51h5.6c.11,0,.17-.04.17-.12v-.75s-.02-.06-.05-.08c-.03-.03-.07-.04-.12-.04h-4.51c-.14,0-.28-.04-.41-.08-.13-.05-.25-.12-.35-.21-.1-.09-.18-.22-.24-.37-.06-.15-.09-.34-.09-.56v-1.87c0-.1.03-.2.09-.31s.14-.21.23-.3c.09-.09.2-.17.3-.23.11-.06.21-.09.31-.09h6.69v1.51h-5.61Z"/>
      </g>
      <g>
        <path class="cls-4" d="M16.06,71.94v-2.51s-.01-.08-.03-.1c-.02-.02-.06-.04-.11-.06v-.07h1.66c.36,0,.64.04.83.12.28.12.48.32.62.6.11.22.16.47.16.76,0,.51-.16.9-.47,1.17-.13.11-.29.19-.46.24-.18.05-.4.07-.68.07h-1.66v-.07c.05-.01.09-.03.11-.06.02-.02.03-.06.03-.1ZM16.7,71.68h.81c.26,0,.46-.04.59-.11.28-.15.42-.45.42-.89,0-.32-.08-.56-.23-.73-.08-.09-.19-.16-.3-.2-.12-.04-.28-.06-.47-.06h-.81v1.99Z"/>
        <path class="cls-4" d="M20.32,69.95v1.99s.01.08.03.1c.02.02.06.04.11.06v.06h-.86v-.06c.05-.01.09-.03.11-.06s.03-.06.03-.1v-1.99s-.01-.08-.03-.1c-.02-.02-.06-.04-.11-.06v-.06h.86v.06c-.05.01-.09.03-.11.06-.02.02-.03.06-.03.1Z"/>
        <path class="cls-4" d="M23.23,69.95l-.29.57-.05-.03s-.02-.09-.05-.11c-.08-.07-.2-.13-.37-.18-.16-.05-.32-.07-.49-.07-.14,0-.27.02-.37.06-.16.06-.23.14-.23.25,0,.07.04.12.11.15s.22.05.44.07l.34.03c.3.02.53.08.69.17.09.05.16.12.21.21.07.11.11.23.11.37,0,.25-.11.44-.33.59-.21.14-.5.21-.87.21s-.72-.08-1.06-.23c-.02,0-.04-.01-.06-.01-.03,0-.06.02-.08.05l-.05-.02.25-.6.05.02v.02s.01.07.04.1c.07.06.2.12.38.17s.35.07.53.07c.15,0,.29-.02.41-.06.15-.05.23-.13.23-.24,0-.09-.05-.15-.16-.18-.07-.02-.19-.04-.38-.06l-.34-.03c-.18-.01-.32-.03-.42-.06-.1-.02-.18-.06-.25-.1-.09-.06-.17-.14-.22-.24-.05-.1-.08-.21-.08-.33,0-.27.11-.47.34-.61.21-.13.47-.19.77-.19.17,0,.32.02.47.05.14.04.32.1.52.19.06.03.1.04.12.04s.05-.02.09-.05l.05.03Z"/>
        <path class="cls-4" d="M26.01,71.29l.37.54-.05.04s-.06-.04-.08-.04c-.02,0-.08.03-.17.08-.2.12-.37.2-.53.24s-.33.07-.53.07c-.4,0-.72-.09-.97-.28-.14-.11-.26-.25-.34-.41-.09-.18-.13-.37-.13-.58,0-.29.08-.54.25-.76.26-.34.66-.51,1.19-.51.2,0,.38.02.53.07s.33.12.53.24c.09.05.15.08.17.08.02,0,.05-.01.08-.04l.05.04-.37.53-.05-.04s0-.03,0-.03c0-.01,0-.02,0-.03,0-.07-.1-.15-.29-.24-.19-.08-.37-.13-.56-.13-.26,0-.48.07-.65.21-.2.16-.29.36-.29.6s.1.45.29.6c.17.14.39.21.65.21.21,0,.41-.05.62-.16.16-.08.24-.15.24-.21,0,0,0-.02,0-.06l.05-.04Z"/>
        <path class="cls-4" d="M28.1,69.68c.39,0,.71.1.97.29.31.24.46.57.46.99,0,.4-.15.72-.46.96-.26.2-.58.29-.96.29s-.71-.1-.96-.29c-.31-.24-.47-.56-.47-.97s.16-.74.47-.97c.26-.19.58-.29.96-.29ZM28.1,70.14c-.25,0-.46.08-.61.24-.15.15-.22.34-.22.57s.07.42.22.57c.16.16.36.24.62.24s.46-.08.61-.24c.15-.15.22-.33.22-.55,0-.24-.07-.43-.22-.58-.16-.16-.36-.24-.62-.24Z"/>
        <path class="cls-4" d="M31,71.4l.59-1.29c.04-.07.05-.13.05-.17,0-.07-.05-.12-.14-.15v-.06h.94v.06c-.06.02-.1.04-.13.07-.03.03-.06.08-.1.17l-.85,1.79c-.03.06-.05.11-.05.15,0,.07.05.12.14.14v.06h-.95v-.06c.09-.02.14-.06.14-.14,0-.03-.02-.08-.05-.15l-.85-1.79c-.04-.09-.07-.14-.1-.17-.03-.03-.07-.05-.13-.07v-.06h.98v.06c-.09.03-.14.08-.14.15,0,.03.02.09.05.17l.59,1.29Z"/>
        <path class="cls-4" d="M33.41,71.13v.59h1.55s.08,0,.1-.03c.02-.02.04-.06.06-.11h.06v.72h-.06c-.01-.05-.03-.09-.06-.11-.02-.02-.06-.03-.1-.03h-2.27v-.06c.05-.01.09-.03.11-.06s.03-.06.03-.1v-1.99s-.01-.08-.03-.1c-.02-.02-.06-.04-.11-.06v-.06h2.2s.08,0,.11-.03.04-.06.06-.11h.06v.72h-.06c-.01-.05-.03-.09-.06-.11-.02-.02-.06-.03-.11-.03h-1.48v.53h.92s.08,0,.1-.03c.02-.02.04-.06.06-.11h.06v.7h-.06c-.01-.05-.03-.09-.06-.11s-.06-.03-.11-.03h-.92Z"/>
        <path class="cls-4" d="M36.27,71.17v.78s.01.08.03.1c.02.02.06.04.11.06v.06h-.86v-.06c.05-.01.09-.03.11-.06s.03-.06.03-.1v-1.99s-.01-.08-.03-.1c-.02-.02-.06-.04-.11-.06v-.06h1.6c.21,0,.37.01.47.03.11.02.21.06.29.11.18.11.26.3.26.56,0,.2-.05.35-.16.46-.11.11-.28.19-.52.24l.46.64c.08.12.15.2.2.24.05.04.11.07.17.08v.06h-1.02v-.06c.08-.02.11-.05.11-.1,0-.03-.02-.08-.07-.15l-.49-.7h-.58ZM36.27,70.72h.88c.13,0,.23-.01.3-.04.09-.04.13-.12.13-.23,0-.1-.03-.17-.09-.21-.06-.04-.18-.06-.34-.06h-.88v.55Z"/>
        <path class="cls-4" d="M39.02,71.51c.1,0,.18.04.25.1.07.07.1.15.1.25s-.04.18-.11.25c-.07.07-.15.1-.25.1s-.18-.04-.25-.11c-.07-.07-.1-.15-.1-.25s.03-.18.1-.25c.07-.07.15-.1.25-.11Z"/>
        <path class="cls-4" d="M43.26,71.41h-1.35l-.2.42c-.03.06-.04.1-.04.14,0,.06.05.11.15.13v.07h-.98v-.07c.06-.01.1-.03.13-.06.03-.03.06-.08.1-.17l1.09-2.28c.04-.07.05-.13.05-.17,0-.07-.04-.11-.13-.14v-.07h1.05v.07c-.09.02-.13.07-.13.13,0,.04.01.09.04.14l1.13,2.29c.05.1.09.16.13.2.04.04.08.06.15.07v.07h-1.09v-.07c.1-.02.14-.06.14-.13,0-.03-.01-.08-.04-.13l-.2-.42ZM43.07,71l-.48-1.06-.49,1.06h.97Z"/>
        <path class="cls-4" d="M45.76,70.17v1.77s0,.08.03.1c.02.02.06.04.11.06v.06h-.86v-.06c.05-.01.09-.03.11-.06s.03-.06.03-.1v-1.77h-.72s-.08,0-.11.03c-.02.02-.04.06-.06.11h-.06v-.72h.06c.01.05.03.09.06.11.02.02.06.03.11.03h2.02s.08,0,.11-.03.04-.06.06-.11h.06v.72h-.06c-.01-.05-.03-.09-.06-.11-.02-.02-.06-.03-.11-.03h-.72Z"/>
        <path class="cls-4" d="M48.29,70.17v1.77s0,.08.03.1c.02.02.06.04.11.06v.06h-.86v-.06c.05-.01.09-.03.11-.06s.03-.06.03-.1v-1.77h-.72s-.08,0-.11.03c-.02.02-.04.06-.06.11h-.06v-.72h.06c.01.05.03.09.06.11.02.02.06.03.11.03h2.02s.08,0,.11-.03c.02-.02.04-.06.06-.11h.06v.72h-.06c-.01-.05-.03-.09-.06-.11-.02-.02-.06-.03-.11-.03h-.72Z"/>
        <path class="cls-4" d="M51.06,71.56h-1.12l-.13.26c-.03.06-.05.11-.05.15,0,.07.05.11.14.13v.06h-.89v-.06c.05,0,.1-.03.12-.05.03-.02.06-.07.09-.15l.89-1.8c.03-.07.05-.13.05-.18,0-.06-.04-.11-.12-.14v-.06h.95v.06c-.08.03-.12.08-.12.15,0,.05.02.11.05.18l.92,1.75c.05.09.09.16.12.18s.07.05.13.06v.06h-.99v-.06c.09-.02.14-.06.14-.13,0-.04-.02-.1-.05-.17l-.13-.25ZM50.88,71.22l-.4-.78-.38.78h.78Z"/>
        <path class="cls-4" d="M54.68,71.29l.37.54-.05.04s-.06-.04-.08-.04c-.03,0-.08.03-.17.08-.2.12-.37.2-.53.24s-.33.07-.53.07c-.4,0-.72-.09-.97-.28-.14-.11-.26-.25-.34-.41-.09-.18-.13-.37-.13-.58,0-.29.08-.54.25-.76.26-.34.66-.51,1.19-.51.2,0,.38.02.53.07s.33.12.53.24c.09.05.15.08.17.08.02,0,.05-.01.08-.04l.05.04-.37.53-.05-.04s0-.03,0-.03c0-.01,0-.02,0-.03,0-.07-.1-.15-.29-.24-.19-.08-.37-.13-.56-.13-.26,0-.48.07-.65.21-.2.16-.29.36-.29.6s.1.45.29.6c.17.14.39.21.65.21.21,0,.41-.05.62-.16.16-.08.24-.15.24-.21,0,0,0-.02,0-.06l.05-.04Z"/>
        <path class="cls-4" d="M56.39,71.06l-.35.28v.6s.01.08.03.1c.02.02.06.04.11.06v.06h-.86v-.06c.05-.01.09-.03.11-.06.02-.02.03-.06.03-.1v-1.99s-.01-.08-.03-.1c-.02-.02-.06-.04-.11-.06v-.06h.86v.06c-.05.01-.09.03-.11.06-.02.02-.03.06-.03.1v.8l.92-.73c.07-.05.1-.1.1-.14s-.04-.07-.13-.09v-.06h1.09v.06c-.06,0-.1.03-.14.05s-.13.1-.27.23l-.82.66.9,1.04c.12.13.2.22.25.26.05.04.11.07.17.08v.06h-1.07v-.06c.08-.02.12-.05.12-.09,0-.01,0-.03-.01-.04,0-.01-.04-.05-.1-.12l-.67-.8Z"/>
        <path class="cls-4" d="M58.81,71.51c.1,0,.18.04.25.1.07.07.1.15.1.25s-.04.18-.11.25c-.07.07-.15.1-.25.1s-.18-.04-.25-.11c-.07-.07-.1-.15-.1-.25s.03-.18.1-.25.15-.1.25-.11Z"/>
        <path class="cls-4" d="M61.66,70.96v.99s0,.08.03.1c.02.02.06.04.11.06v.07h-.93v-.07c.05-.01.09-.03.11-.06s.03-.06.03-.1v-2.51s0-.08-.03-.1c-.02-.02-.06-.04-.11-.06v-.07h1.86c.23,0,.41.01.54.04.13.03.25.07.35.14.11.08.2.18.26.31.05.12.08.26.08.4,0,.48-.27.77-.81.85l.58.82c.1.14.18.24.22.28.05.04.1.06.17.07v.07h-1.07v-.07c.07-.01.11-.04.11-.08,0-.03-.03-.09-.1-.19l-.6-.87h-.79ZM61.66,70.47h1c.15,0,.25,0,.31-.01s.12-.03.17-.05c.11-.06.17-.17.17-.32s-.06-.26-.17-.32c-.05-.03-.11-.05-.17-.05s-.16-.01-.31-.01h-1v.78Z"/>
        <path class="cls-4" d="M65.15,71.13v.59h1.55s.08,0,.1-.03c.02-.02.04-.06.06-.11h.06v.72h-.06c-.01-.05-.03-.09-.06-.11-.03-.02-.06-.03-.1-.03h-2.27v-.06c.05-.01.09-.03.11-.06.02-.02.03-.06.03-.1v-1.99s-.01-.08-.03-.1c-.02-.02-.06-.04-.11-.06v-.06h2.2s.08,0,.11-.03c.02-.02.04-.06.06-.11h.06v.72h-.06c-.01-.05-.03-.09-.06-.11-.02-.02-.06-.03-.11-.03h-1.48v.53h.92s.08,0,.1-.03c.02-.02.04-.06.06-.11h.06v.7h-.06c-.01-.05-.03-.09-.06-.11-.02-.02-.06-.03-.1-.03h-.92Z"/>
        <path class="cls-4" d="M68.01,71.17v.78s.01.08.03.1c.02.02.06.04.11.06v.06h-.86v-.06c.05-.01.09-.03.11-.06.02-.02.03-.06.03-.1v-1.99s-.01-.08-.03-.1c-.02-.02-.06-.04-.11-.06v-.06h1.59c.31,0,.55.05.71.14.09.05.17.13.22.23.05.1.08.21.08.34,0,.24-.08.42-.25.54s-.42.18-.76.18h-.87ZM68.01,70.72h.83c.15,0,.26-.01.32-.04.09-.04.13-.12.13-.23s-.04-.19-.13-.23c-.06-.03-.16-.04-.32-.04h-.83v.55Z"/>
        <path class="cls-4" d="M70.91,71.13v.59h1.55s.08,0,.1-.03c.02-.02.04-.06.06-.11h.06v.72h-.06c-.01-.05-.03-.09-.06-.11-.03-.02-.06-.03-.1-.03h-2.27v-.06c.05-.01.09-.03.11-.06.02-.02.03-.06.03-.1v-1.99s-.01-.08-.03-.1c-.02-.02-.06-.04-.11-.06v-.06h2.2s.08,0,.11-.03c.02-.02.04-.06.06-.11h.06v.72h-.06c-.01-.05-.03-.09-.06-.11-.02-.02-.06-.03-.11-.03h-1.48v.53h.92s.08,0,.1-.03c.02-.02.04-.06.06-.11h.06v.7h-.06c-.01-.05-.03-.09-.06-.11-.02-.02-.06-.03-.1-.03h-.92Z"/>
        <path class="cls-4" d="M74.89,71.56h-1.12l-.13.26c-.03.06-.04.11-.04.15,0,.07.05.11.14.13v.06h-.89v-.06c.06,0,.1-.03.12-.05.03-.02.06-.07.09-.15l.89-1.8c.03-.07.05-.13.05-.18,0-.06-.04-.11-.12-.14v-.06h.95v.06c-.08.03-.12.08-.12.15,0,.05.02.11.05.18l.92,1.75c.05.09.09.16.12.18.03.03.07.05.13.06v.06h-.99v-.06c.09-.02.14-.06.14-.13,0-.04-.02-.1-.05-.17l-.13-.25ZM74.72,71.22l-.4-.78-.38.78h.78Z"/>
        <path class="cls-4" d="M77.48,70.17v1.77s0,.08.03.1c.02.02.06.04.11.06v.06h-.86v-.06c.05-.01.09-.03.11-.06.02-.02.03-.06.03-.1v-1.77h-.72s-.08,0-.11.03c-.02.02-.04.06-.06.11h-.06v-.72h.06c.01.05.03.09.06.11.02.02.06.03.11.03h2.02s.08,0,.11-.03c.02-.02.04-.06.06-.11h.06v.72h-.06c-.01-.05-.03-.09-.06-.11-.02-.02-.06-.03-.11-.03h-.72Z"/>
        <path class="cls-4" d="M79.14,71.51c.1,0,.18.04.25.1.07.07.1.15.1.25s-.04.18-.11.25c-.07.07-.15.1-.25.1s-.18-.04-.25-.11c-.07-.07-.1-.15-.1-.25s.03-.18.1-.25.15-.1.25-.11Z"/>
      </g>
    </g>
  </g>
</svg>