<?xml version="1.0" standalone="no"?>
<!DOCTYPE svg PUBLIC "-//W3C//DTD SVG 20010904//EN"
 "http://www.w3.org/TR/2001/REC-SVG-20010904/DTD/svg10.dtd">
<svg version="1.0" xmlns="http://www.w3.org/2000/svg"
 width="320.000000pt" height="89.000000pt" viewBox="0 0 320.000000 89.000000"
 preserveAspectRatio="xMidYMid meet">

<g transform="translate(0.000000,89.000000) scale(0.100000,-0.100000)"
fill="#000000" stroke="none">
<path d="M230 881 c-74 -5 -85 -8 -85 -24 0 -18 17 -19 295 -24 318 -6 333 -8
367 -60 16 -24 18 -57 18 -319 0 -409 26 -384 -397 -384 -251 0 -288 -2 -288
-15 0 -30 52 -35 331 -35 319 0 334 3 386 82 l28 42 0 305 c0 270 -2 310 -17
337 -23 43 -71 81 -116 94 -38 10 -368 11 -522 1z"/>
<path d="M2380 625 l0 -175 40 0 40 0 0 90 c0 78 2 91 19 100 44 23 61 -13 61
-133 l0 -58 38 3 37 3 3 77 c4 99 -10 151 -43 166 -34 16 -50 15 -85 -3 l-30
-16 0 61 0 60 -40 0 -40 0 0 -175z"/>
<path d="M2944 787 c-2 -7 -3 -85 -2 -172 l3 -160 38 -3 37 -3 0 175 0 176
-35 0 c-20 0 -38 -6 -41 -13z"/>
<path d="M3084 787 c-2 -7 -3 -85 -2 -172 l3 -160 38 -3 37 -3 0 175 0 176
-35 0 c-20 0 -38 -6 -41 -13z"/>
<path d="M1060 615 l0 -165 40 0 40 0 0 60 c0 80 20 80 78 0 43 -59 44 -60 93
-60 45 0 62 11 40 24 -4 3 -27 30 -51 61 l-43 55 26 24 c34 32 45 88 23 121
-24 36 -54 45 -157 45 l-89 0 0 -165z m160 90 c17 -21 9 -47 -21 -64 -39 -22
-59 -9 -59 39 0 39 1 40 34 40 18 0 39 -7 46 -15z"/>
<path d="M1960 740 c0 -18 -6 -33 -15 -36 -8 -4 -15 -16 -15 -29 0 -13 7 -25
15 -29 12 -4 15 -23 15 -85 0 -96 13 -111 97 -111 51 0 53 1 53 28 0 24 -4 27
-32 27 l-33 0 -3 73 -3 72 36 0 c31 0 35 3 35 25 0 22 -4 25 -35 25 -33 0 -35
2 -35 35 0 34 -1 35 -40 35 -38 0 -40 -2 -40 -30z"/>
<path d="M1433 696 c-41 -19 -63 -62 -63 -127 0 -45 4 -55 34 -85 31 -31 39
-34 96 -34 54 0 65 3 90 28 54 55 48 161 -11 205 -35 25 -105 31 -146 13z
m108 -83 c19 -57 -4 -113 -47 -113 -29 0 -44 27 -44 79 0 79 67 104 91 34z"/>
<path d="M1725 700 c-84 -34 -101 -173 -27 -230 18 -15 40 -20 83 -20 50 0 63
4 90 28 27 24 33 37 37 84 5 68 -14 109 -62 132 -36 17 -88 20 -121 6z m85
-60 c36 -36 24 -126 -18 -137 -19 -5 -30 0 -45 18 -33 41 -9 139 35 139 4 0
17 -9 28 -20z"/>
<path d="M2190 699 c-41 -16 -60 -40 -60 -74 0 -39 23 -61 81 -78 53 -15 59
-41 11 -45 -18 -2 -45 3 -62 11 -35 18 -38 16 -32 -22 5 -33 22 -41 95 -41 77
0 117 28 117 84 0 36 -23 57 -76 71 -30 7 -50 18 -52 28 -5 24 39 31 82 13
l36 -15 0 30 c0 22 -6 32 -26 39 -32 12 -81 12 -114 -1z"/>
<path d="M2730 699 c-39 -16 -59 -39 -70 -81 -14 -49 1 -106 35 -138 27 -26
106 -38 170 -26 32 6 35 10 35 42 l0 35 -30 -16 c-40 -21 -93 -19 -113 3 -32
35 -21 42 63 42 60 0 82 4 86 14 10 26 -16 96 -42 112 -30 20 -101 27 -134 13z
m89 -58 c14 -25 5 -31 -41 -31 -24 0 -38 5 -38 13 0 37 62 51 79 18z"/>
<path d="M393 573 c-8 -35 -12 -38 -46 -41 -32 -3 -37 -7 -37 -28 0 -20 5 -24
30 -24 28 0 30 -2 24 -27 -10 -41 -12 -43 -50 -43 -30 0 -34 -3 -34 -25 0 -21
5 -25 31 -25 26 0 29 -3 25 -20 -3 -11 -9 -29 -12 -40 -4 -17 -1 -20 24 -20
27 0 31 4 37 40 6 36 10 40 37 40 23 0 28 -4 24 -17 -2 -10 -7 -28 -11 -41 -6
-21 -4 -23 22 -20 23 2 30 9 37 41 9 35 12 37 48 37 34 0 38 3 38 25 0 21 -5
25 -31 25 -28 0 -31 3 -25 23 3 12 6 28 6 35 0 7 14 12 35 12 31 0 35 3 35 25
0 20 -5 25 -25 25 -28 0 -29 2 -16 48 9 31 8 32 -19 32 -24 0 -29 -5 -37 -37
-7 -31 -14 -39 -36 -41 -30 -4 -31 -1 -18 46 9 31 8 32 -19 32 -24 0 -29 -5
-37 -37z m81 -120 c-10 -40 -12 -43 -41 -43 -21 0 -24 3 -19 23 3 12 6 28 6
35 0 7 13 12 30 12 28 0 30 -2 24 -27z"/>
</g>
</svg>
