<?xml version="1.0" encoding="UTF-8"?>
<svg xmlns="http://www.w3.org/2000/svg" xmlns:xlink="http://www.w3.org/1999/xlink" width="457.18pt" height="347pt" viewBox="0 0 457.18 347" version="1.1">
<defs>
<clipPath id="clip1">
  <path d="M 452 122 L 457.179688 122 L 457.179688 136 L 452 136 Z M 452 122 "/>
</clipPath>
</defs>
<g id="surface1">
<path style=" stroke:none;fill-rule:nonzero;fill:rgb(74.099731%,8.198547%,12.89978%);fill-opacity:1;" d="M 27.863281 89.597656 L 4.765625 115.992188 L 50.800781 115.992188 "/>
<path style=" stroke:none;fill-rule:nonzero;fill:rgb(74.099731%,8.198547%,12.89978%);fill-opacity:1;" d="M 133.574219 275.203125 L 177.128906 225.261719 L 90.191406 225.261719 "/>
<path style=" stroke:none;fill-rule:nonzero;fill:rgb(74.099731%,8.198547%,12.89978%);fill-opacity:1;" d="M 345.789063 31.886719 L 317.984375 0 L 216.792969 115.992188 L 272.433594 115.992188 Z M 345.789063 31.886719 "/>
<path style=" stroke:none;fill-rule:nonzero;fill:rgb(100%,100%,100%);fill-opacity:1;" d="M 444.296875 129.234375 C 444.296875 132.640625 446.453125 134.714844 449.9375 134.714844 C 451.046875 134.714844 452.003906 134.46875 452.816406 134.050781 L 452.816406 132.71875 L 451.738281 132.71875 L 450.015625 129.78125 L 449.035156 129.78125 L 449.035156 132.71875 L 447.511719 132.71875 L 447.511719 125.238281 L 450.171875 125.238281 C 452.246094 125.238281 452.753906 126.257813 452.753906 127.355469 C 452.753906 128.410156 452.207031 129 451.421875 129.3125 L 452.816406 131.6875 L 452.816406 124.175781 C 451.984375 123.75 451.015625 123.515625 449.9375 123.515625 C 446.765625 123.515625 444.296875 125.632813 444.296875 129.234375 "/>
<path style=" stroke:none;fill-rule:nonzero;fill:rgb(100%,100%,100%);fill-opacity:1;" d="M 449.820313 126.414063 L 449.035156 126.414063 L 449.035156 128.605469 L 449.546875 128.605469 C 450.484375 128.605469 451.191406 128.410156 451.191406 127.433594 C 451.191406 126.609375 450.640625 126.414063 449.820313 126.414063 "/>
<g clip-path="url(#clip1)" clip-rule="nonzero">
<path style=" stroke:none;fill-rule:nonzero;fill:rgb(0%,20.799255%,30.198669%);fill-opacity:1;" d="M 452.816406 122.417969 L 452.816406 124.175781 C 454.464844 125.019531 455.535156 126.671875 455.535156 129.117188 C 455.535156 131.453125 454.527344 133.171875 452.816406 134.050781 L 452.816406 135.757813 C 455.496094 134.734375 457.179688 132.265625 457.179688 129 C 457.179688 125.746094 455.558594 123.371094 452.816406 122.417969 "/>
</g>
<path style=" stroke:none;fill-rule:nonzero;fill:rgb(0%,20.799255%,30.198669%);fill-opacity:1;" d="M 452.816406 131.6875 L 452.816406 132.71875 L 453.421875 132.71875 "/>
<path style=" stroke:none;fill-rule:nonzero;fill:rgb(0%,20.799255%,30.198669%);fill-opacity:1;" d="M 449.546875 128.605469 L 449.035156 128.605469 L 449.035156 126.414063 L 449.820313 126.414063 C 450.640625 126.414063 451.191406 126.609375 451.191406 127.433594 C 451.191406 128.410156 450.484375 128.605469 449.546875 128.605469 M 451.425781 129.3125 C 452.207031 129 452.753906 128.410156 452.753906 127.355469 C 452.753906 126.257813 452.246094 125.238281 450.171875 125.238281 L 447.511719 125.238281 L 447.511719 132.71875 L 449.035156 132.71875 L 449.035156 129.78125 L 450.015625 129.78125 L 451.738281 132.71875 L 452.816406 132.71875 L 452.816406 131.6875 "/>
<path style=" stroke:none;fill-rule:nonzero;fill:rgb(0%,20.799255%,30.198669%);fill-opacity:1;" d="M 449.9375 134.714844 C 446.453125 134.714844 444.296875 132.640625 444.296875 129.234375 C 444.296875 125.632813 446.765625 123.515625 449.9375 123.515625 C 451.011719 123.515625 451.984375 123.753906 452.816406 124.175781 L 452.816406 122.417969 C 451.957031 122.121094 451 121.953125 449.9375 121.953125 C 445.863281 121.953125 442.617188 124.730469 442.617188 129.273438 C 442.617188 133.269531 445.082031 136.28125 449.859375 136.28125 C 450.9375 136.28125 451.929688 136.097656 452.816406 135.757813 L 452.816406 134.050781 C 452.003906 134.46875 451.046875 134.714844 449.9375 134.714844 "/>
<path style=" stroke:none;fill-rule:nonzero;fill:rgb(74.099731%,8.198547%,12.89978%);fill-opacity:1;" d="M 350.660156 147.785156 C 356.011719 147.785156 363.375 148.457031 369.84375 149.574219 L 372.183594 134.960938 C 364.824219 133.398438 358.132813 132.621094 350.660156 132.621094 C 331.921875 132.621094 323.554688 141.878906 323.554688 155.371094 L 323.554688 186.382813 C 323.554688 193.242188 325.726563 198.996094 330.3125 203.007813 C 334.75 206.890625 341.445313 209.136719 350.660156 209.136719 C 358.132813 209.136719 364.824219 208.355469 372.183594 206.796875 L 369.84375 192.183594 C 363.375 193.296875 356.011719 193.96875 350.660156 193.96875 C 345.703125 193.96875 342.988281 192.578125 341.585938 190.085938 C 340.652344 188.425781 340.285156 186.289063 340.285156 183.703125 L 340.285156 158.050781 C 340.285156 151.582031 342.40625 147.785156 350.660156 147.785156 "/>
<path style=" stroke:none;fill-rule:nonzero;fill:rgb(74.099731%,8.198547%,12.89978%);fill-opacity:1;" d="M 419.8125 188.054688 C 419.8125 193.410156 415.6875 194.523438 410.445313 194.523438 L 400.070313 194.523438 L 400.070313 177.234375 L 412.785156 177.234375 C 417.25 177.234375 419.8125 179.355469 419.8125 183.480469 Z M 400.070313 147.230469 L 410.445313 147.230469 C 415.132813 147.230469 417.136719 149.242188 417.136719 152.476563 L 417.136719 158.945313 C 417.136719 161.953125 414.90625 164.1875 410.445313 164.1875 L 400.070313 164.1875 Z M 425.613281 169.316406 C 431.527344 166.753906 433.867188 162.957031 433.867188 157.605469 L 433.867188 150.019531 C 433.867188 139.980469 428.179688 133.734375 412.675781 133.734375 L 383.339844 133.734375 L 383.339844 208.023438 L 415.015625 208.023438 C 429.851563 208.023438 436.546875 200.773438 436.546875 190.285156 L 436.546875 183.035156 C 436.546875 176.117188 431.75 170.765625 425.613281 169.316406 "/>
<path style=" stroke:none;fill-rule:nonzero;fill:rgb(0%,20.799255%,30.198669%);fill-opacity:1;" d="M 0 133.734375 L 0 148.570313 L 19.96875 148.570313 L 19.96875 208.023438 L 36.695313 208.023438 L 36.695313 148.570313 L 56.664063 148.570313 L 56.664063 133.734375 L 10.6875 133.734375 "/>
<path style=" stroke:none;fill-rule:nonzero;fill:rgb(0%,20.799255%,30.198669%);fill-opacity:1;" d="M 95.25 170.433594 L 81.976563 170.433594 L 81.976563 148.570313 L 95.25 148.570313 C 102.054688 148.570313 104.175781 150.804688 104.175781 156.378906 L 104.175781 162.289063 C 104.175781 167.078125 102.835938 169.632813 97.949219 170.261719 C 97.140625 170.367188 96.261719 170.433594 95.25 170.433594 M 110.085938 182.59375 C 117.558594 179.46875 120.902344 173.222656 120.902344 163.964844 L 120.902344 154.816406 C 120.902344 140.871094 114.210938 133.734375 96.144531 133.734375 L 65.242188 133.734375 L 65.242188 208.023438 L 81.976563 208.023438 L 81.976563 184.933594 L 91.792969 184.933594 L 108.1875 208.023438 L 128.042969 208.023438 L 116.269531 191.351563 "/>
<path style=" stroke:none;fill-rule:nonzero;fill:rgb(0%,20.799255%,30.198669%);fill-opacity:1;" d="M 175.667969 163.132813 L 175.667969 184.820313 C 175.667969 190.84375 172.765625 194.300781 164.402344 194.300781 C 157.886719 194.300781 154.714844 192.179688 153.617188 188.410156 C 153.304688 187.339844 153.136719 186.152344 153.136719 184.820313 L 153.136719 133.734375 L 136.402344 133.734375 L 136.402344 186.382813 C 136.402344 191.835938 138.074219 197.328125 142.148438 201.554688 C 146.496094 206.066406 153.582031 209.136719 164.402344 209.136719 C 185.371094 209.136719 192.398438 197.648438 192.398438 186.382813 L 192.398438 133.734375 L 175.667969 133.734375 "/>
<path style=" stroke:none;fill-rule:nonzero;fill:rgb(0%,20.799255%,30.198669%);fill-opacity:1;" d="M 234.222656 163.851563 C 233.148438 163.59375 232.199219 163.367188 231.304688 163.148438 C 222.480469 160.988281 222.175781 160.296875 222.175781 153.8125 C 222.175781 148.347656 223.851563 147.007813 231.320313 147.007813 C 235.847656 147.007813 239.828125 147.324219 244.542969 147.96875 C 246.800781 148.277344 249.214844 148.65625 251.960938 149.128906 L 253.289063 137.941406 L 253.632813 135.074219 C 245.375 133.285156 237.566406 132.621094 231.097656 132.621094 C 210.683594 132.621094 205.445313 138.53125 205.445313 153.367188 C 205.445313 167.578125 207.5625 172.007813 220.492188 175.546875 C 222.171875 176.007813 224.011719 176.453125 226.078125 176.902344 C 238.238281 179.578125 238.570313 180.359375 238.570313 187.050781 C 238.570313 193.296875 236.898438 194.96875 228.308594 194.96875 C 220.613281 194.96875 213.695313 193.519531 206.894531 191.402344 L 204.105469 204.339844 C 210.460938 207.242188 219.5 209.136719 228.085938 209.136719 C 250.507813 209.136719 255.304688 201.886719 255.304688 187.160156 C 255.304688 172.550781 254.300781 168.648438 234.222656 163.851563 "/>
<path style=" stroke:none;fill-rule:nonzero;fill:rgb(0%,20.799255%,30.198669%);fill-opacity:1;" d="M 261.097656 133.734375 L 261.097656 148.570313 L 281.066406 148.570313 L 281.066406 208.023438 L 297.796875 208.023438 L 297.796875 148.570313 L 317.761719 148.570313 L 317.761719 133.734375 "/>
<path style=" stroke:none;fill-rule:nonzero;fill:rgb(0%,20.799255%,30.198669%);fill-opacity:1;" d="M 8.917969 320.15625 L 0 320.15625 L 0 316.707031 L 21.691406 316.707031 L 21.691406 320.15625 L 12.773438 320.15625 L 12.773438 346.550781 L 8.917969 346.550781 "/>
<path style=" stroke:none;fill-rule:nonzero;fill:rgb(0%,20.799255%,30.198669%);fill-opacity:1;" d="M 42.117188 320.15625 L 34.726563 320.15625 L 34.726563 332.347656 L 42.117188 332.347656 C 45.792969 332.347656 47.046875 331.316406 47.046875 328.402344 L 47.046875 324.101563 C 47.046875 321.144531 45.792969 320.15625 42.117188 320.15625 M 42.03125 335.753906 L 34.726563 335.753906 L 34.726563 346.550781 L 30.871094 346.550781 L 30.871094 316.707031 L 42.253906 316.707031 C 48.660156 316.707031 50.902344 319.484375 50.902344 324.054688 L 50.902344 328.359375 C 50.902344 331.898438 49.601563 334.316406 46.152344 335.304688 L 53.90625 346.550781 L 49.46875 346.550781 "/>
<path style=" stroke:none;fill-rule:nonzero;fill:rgb(0%,20.799255%,30.198669%);fill-opacity:1;" d="M 84.058594 316.707031 L 84.058594 338.171875 C 84.058594 343.058594 81.238281 347 73.484375 347 C 65.730469 347 62.90625 343.058594 62.90625 338.171875 L 62.90625 316.707031 L 66.761719 316.707031 L 66.761719 337.949219 C 66.761719 341.621094 68.777344 343.550781 73.484375 343.550781 C 78.1875 343.550781 80.207031 341.621094 80.207031 337.949219 L 80.207031 316.707031 "/>
<path style=" stroke:none;fill-rule:nonzero;fill:rgb(0%,20.799255%,30.198669%);fill-opacity:1;" d="M 103.683594 347 C 100.8125 347 97.363281 346.460938 94.808594 345.433594 L 95.4375 342.292969 C 98.167969 343.144531 101.039063 343.59375 103.773438 343.59375 C 108.566406 343.59375 109.554688 342.339844 109.554688 338.933594 C 109.554688 334.898438 109.507813 334.542969 103.367188 333.152344 C 96.152344 331.539063 95.300781 330.148438 95.300781 323.964844 C 95.300781 318.769531 97.453125 316.257813 104.847656 316.257813 C 107.445313 316.257813 110.539063 316.617188 112.914063 317.242188 L 112.601563 320.515625 C 110.226563 319.976563 107.402344 319.664063 104.9375 319.664063 C 100.054688 319.664063 99.15625 320.648438 99.15625 324.101563 C 99.15625 328.222656 99.15625 328.402344 105.070313 329.882813 C 113.003906 331.855469 113.40625 333.019531 113.40625 338.84375 C 113.40625 344.042969 111.882813 347 103.683594 347 "/>
<path style=" stroke:none;fill-rule:nonzero;fill:rgb(0%,20.799255%,30.198669%);fill-opacity:1;" d="M 130.609375 320.15625 L 121.691406 320.15625 L 121.691406 316.707031 L 143.382813 316.707031 L 143.382813 320.15625 L 134.464844 320.15625 L 134.464844 346.550781 L 130.609375 346.550781 "/>
<path style=" stroke:none;fill-rule:nonzero;fill:rgb(0%,20.799255%,30.198669%);fill-opacity:1;" d="M 176.808594 319.484375 L 171.472656 336.023438 L 182.140625 336.023438 Z M 189.488281 346.550781 L 185.589844 346.550781 L 183.125 339.382813 L 170.441406 339.382813 L 168.023438 346.550781 L 164.125 346.550781 L 174.207031 316.707031 L 179.40625 316.707031 "/>
<path style=" stroke:none;fill-rule:nonzero;fill:rgb(0%,20.799255%,30.198669%);fill-opacity:1;" d="M 202.703125 321.144531 L 202.703125 346.550781 L 199.027344 346.550781 L 199.027344 316.707031 L 204.316406 316.707031 L 217.3125 342.25 L 217.3125 316.707031 L 220.984375 316.707031 L 220.984375 346.550781 L 215.699219 346.550781 "/>
<path style=" stroke:none;fill-rule:nonzero;fill:rgb(0%,20.799255%,30.198669%);fill-opacity:1;" d="M 236.933594 343.101563 L 243.386719 343.101563 C 247.914063 343.101563 249.257813 341.21875 249.257813 337.722656 L 249.257813 325.535156 C 249.257813 322.039063 247.914063 320.15625 243.386719 320.15625 L 236.933594 320.15625 Z M 243.523438 316.707031 C 250.828125 316.707031 253.113281 320.515625 253.113281 325.265625 L 253.113281 337.992188 C 253.113281 342.742188 250.828125 346.550781 243.523438 346.550781 L 233.082031 346.550781 L 233.082031 316.707031 "/>
<path style=" stroke:none;fill-rule:nonzero;fill:rgb(0%,20.799255%,30.198669%);fill-opacity:1;" d="M 275.421875 316.707031 L 279.140625 316.707031 L 287.878906 343.191406 L 296.617188 316.707031 L 300.339844 316.707031 L 290.480469 346.550781 L 285.28125 346.550781 "/>
<path style=" stroke:none;fill-rule:nonzero;fill:rgb(0%,20.799255%,30.198669%);fill-opacity:1;" d="M 309.429688 316.707031 L 326.996094 316.707031 L 326.996094 320.15625 L 313.285156 320.15625 L 313.285156 329.523438 L 326.011719 329.523438 L 326.011719 332.972656 L 313.285156 332.972656 L 313.285156 343.101563 L 327.039063 343.101563 L 327.039063 346.550781 L 309.429688 346.550781 "/>
<path style=" stroke:none;fill-rule:nonzero;fill:rgb(0%,20.799255%,30.198669%);fill-opacity:1;" d="M 349.351563 320.15625 L 341.960938 320.15625 L 341.960938 332.347656 L 349.351563 332.347656 C 353.027344 332.347656 354.28125 331.316406 354.28125 328.402344 L 354.28125 324.101563 C 354.28125 321.144531 353.027344 320.15625 349.351563 320.15625 M 349.261719 335.753906 L 341.960938 335.753906 L 341.960938 346.550781 L 338.105469 346.550781 L 338.105469 316.707031 L 349.488281 316.707031 C 355.894531 316.707031 358.136719 319.484375 358.136719 324.054688 L 358.136719 328.359375 C 358.136719 331.898438 356.835938 334.316406 353.386719 335.304688 L 361.140625 346.550781 L 356.703125 346.550781 "/>
<path style=" stroke:none;fill-rule:nonzero;fill:rgb(0%,20.799255%,30.198669%);fill-opacity:1;" d="M 371.128906 346.550781 L 374.980469 346.550781 L 374.980469 316.707031 L 371.128906 316.707031 Z M 371.128906 346.550781 "/>
<path style=" stroke:none;fill-rule:nonzero;fill:rgb(0%,20.799255%,30.198669%);fill-opacity:1;" d="M 387.304688 346.550781 L 387.304688 316.707031 L 405.046875 316.707031 L 405.046875 320.15625 L 391.15625 320.15625 L 391.15625 330.105469 L 404.105469 330.105469 L 404.105469 333.554688 L 391.15625 333.554688 L 391.15625 346.550781 "/>
<path style=" stroke:none;fill-rule:nonzero;fill:rgb(0%,20.799255%,30.198669%);fill-opacity:1;" d="M 432.515625 316.707031 L 436.546875 316.707031 L 426.644531 337.542969 L 426.644531 346.550781 L 422.789063 346.550781 L 422.789063 337.542969 L 412.886719 316.707031 L 416.917969 316.707031 L 424.714844 333.375 "/>
</g>
</svg>
