<?xml version="1.0" encoding="utf-8"?>
<!-- Generator: Adobe Illustrator 15.0.0, SVG Export Plug-In . SVG Version: 6.00 Build 0)  -->
<!DOCTYPE svg PUBLIC "-//W3C//DTD SVG 1.1//EN" "http://www.w3.org/Graphics/SVG/1.1/DTD/svg11.dtd">
<svg version="1.1" xmlns="http://www.w3.org/2000/svg" xmlns:xlink="http://www.w3.org/1999/xlink" x="0px" y="0px"
	 width="737.008px" height="340.156px" viewBox="0 0 737.008 340.156" enable-background="new 0 0 737.008 340.156"
	 xml:space="preserve">
<g id="HG">
	<rect fill="#FFFFFF" width="737.008" height="340.156"/>
</g>
<g id="VDC_Black">
	<path d="M610.51,151.396c-20.812,0.003-40.845,6.278-42.017,6.647l-0.002-72.996c42.853,0.377,78.169,32.535,83.505,74.067
		C647.014,157.358,628.815,151.401,610.51,151.396z"/>
	<path d="M609.268,153.38c-9.227,0-16.705,7.479-16.705,16.708c0,9.226,7.479,16.706,16.705,16.706s16.708-7.479,16.708-16.706
		C625.976,160.859,618.494,153.38,609.268,153.38z M610.455,183.148h-2.439l-8.574-23.015h2.406l7.42,20.743l7.683-20.743h2.242
		L610.455,183.148z"/>
	<g>
		<polygon points="107.35,158.214 103.778,158.214 96.259,178.969 96.191,178.969 88.876,158.214 85.065,158.214 94.014,181.96 
			98.267,181.96 107.35,158.214 		"/>
		<polygon points="110.549,181.96 113.948,181.96 113.948,158.214 110.549,158.214 110.549,181.96 		"/>
		<path fill-rule="evenodd" clip-rule="evenodd" d="M119.792,181.96h3.398v-10.548h2.042c0.89-0.049,1.647,0.048,2.273,0.289
			c0.625,0.241,1.196,0.915,1.71,2.024l3.64,8.234h3.876l-4.488-9.46c-0.357-0.713-0.704-1.242-1.041-1.584
			c-0.336-0.344-0.761-0.609-1.272-0.795v-0.068c1.41-0.252,2.57-0.852,3.481-1.798c0.912-0.947,1.383-2.15,1.415-3.612
			c-0.027-1.868-0.476-3.265-1.346-4.192c-0.87-0.927-2.002-1.537-3.396-1.833c-1.393-0.295-2.885-0.43-4.478-0.405h-5.815V181.96
			L119.792,181.96z M123.19,161.204h3.268c1.569,0.012,2.755,0.329,3.558,0.95c0.803,0.621,1.206,1.472,1.208,2.557
			c-0.012,1.152-0.464,2.057-1.357,2.711c-0.893,0.655-2.154,0.988-3.783,1h-2.894V161.204L123.19,161.204z"/>
		<polygon points="144.996,181.96 148.395,181.96 148.395,161.204 155.778,161.204 155.778,158.214 137.613,158.214 
			137.613,161.204 144.996,161.204 144.996,181.96 		"/>
		<path d="M177.633,158.214h-3.398v13.475c0.032,2.315-0.39,4.167-1.264,5.555c-0.875,1.388-2.394,2.1-4.557,2.136
			c-2.164-0.036-3.682-0.748-4.557-2.136c-0.875-1.388-1.295-3.239-1.264-5.555v-13.475h-3.398v13.917
			c0.018,3.344,0.823,5.884,2.414,7.619c1.591,1.736,3.859,2.607,6.805,2.617c2.946-0.01,5.214-0.881,6.805-2.617
			c1.591-1.735,2.396-4.275,2.414-7.619V158.214L177.633,158.214z"/>
		<path fill-rule="evenodd" clip-rule="evenodd" d="M181.119,181.96h3.571l2.416-5.988h11.635l2.416,5.988h3.708l-10.036-23.746
			h-3.572L181.119,181.96L181.119,181.96z M197.652,173.186h-9.458l4.729-11.776L197.652,173.186L197.652,173.186z"/>
		<polygon points="208.283,181.96 221.616,181.96 221.616,178.969 211.681,178.969 211.681,158.214 208.283,158.214 208.283,181.96 
					"/>
		<path fill-rule="evenodd" clip-rule="evenodd" d="M236.234,181.96h7.006c3.953-0.006,7.041-1.022,9.264-3.053
			c2.224-2.028,3.354-5.037,3.393-9.024c-0.025-2.448-0.597-4.541-1.715-6.278c-1.118-1.736-2.627-3.067-4.528-3.991
			c-1.901-0.925-4.039-1.391-6.413-1.4h-7.006V181.96L236.234,181.96z M239.633,161.204h3.982c2.506,0.02,4.565,0.796,6.178,2.327
			s2.446,3.693,2.502,6.488c-0.013,3.053-0.795,5.31-2.349,6.773c-1.553,1.462-3.799,2.188-6.739,2.177h-3.574V161.204
			L239.633,161.204z"/>
		<polygon points="261.017,181.96 264.415,181.96 264.415,158.214 261.017,158.214 261.017,181.96 		"/>
		<polygon points="270.498,181.96 273.896,181.96 273.896,161.409 273.964,161.409 281.826,181.96 285.161,181.96 293.023,161.409 
			293.091,161.409 293.091,181.96 296.489,181.96 296.489,158.214 290.878,158.214 283.56,177.949 276.108,158.214 270.498,158.214 
			270.498,181.96 		"/>
		<polygon points="302.739,181.96 316.039,181.96 316.039,178.969 306.138,178.969 306.138,171.14 315.154,171.14 315.154,168.149 
			306.138,168.149 306.138,161.204 316.039,161.204 316.039,158.214 302.739,158.214 302.739,181.96 		"/>
		<polygon points="321.429,181.96 324.827,181.96 324.827,162.429 324.896,162.429 335.651,181.96 340.003,181.96 340.003,158.214 
			336.604,158.214 336.604,177.337 336.536,177.337 326.053,158.214 321.429,158.214 321.429,181.96 		"/>
		<path d="M357.301,158.652c-0.827-0.287-1.68-0.499-2.559-0.638c-0.879-0.139-1.715-0.208-2.509-0.208
			c-2.194,0.006-4,0.555-5.419,1.648c-1.418,1.094-2.152,2.698-2.202,4.813c0.054,1.805,0.585,3.18,1.595,4.124
			c1.01,0.943,2.18,1.7,3.509,2.27c1.33,0.57,2.5,1.196,3.509,1.88c1.01,0.685,1.542,1.669,1.595,2.957
			c-0.022,0.926-0.282,1.675-0.779,2.244c-0.496,0.572-1.102,0.988-1.814,1.248c-0.712,0.263-1.403,0.391-2.072,0.388
			c-0.893-0.019-1.788-0.152-2.683-0.401c-0.896-0.248-1.645-0.5-2.248-0.757l-0.34,3.161c0.782,0.265,1.58,0.493,2.392,0.685
			s1.636,0.292,2.471,0.301c1.607,0.007,3.063-0.229,4.368-0.706c1.304-0.479,2.344-1.238,3.118-2.28
			c0.774-1.041,1.171-2.403,1.19-4.088c-0.053-1.918-0.585-3.395-1.595-4.43c-1.011-1.036-2.18-1.856-3.509-2.461
			c-1.329-0.605-2.499-1.221-3.508-1.847c-1.01-0.627-1.542-1.492-1.595-2.594c0.053-1.219,0.507-2.058,1.362-2.515
			c0.854-0.458,1.784-0.674,2.792-0.651c0.852-0.001,1.599,0.079,2.242,0.238c0.644,0.16,1.381,0.41,2.214,0.749L357.301,158.652
			L357.301,158.652z"/>
		<polygon points="363.015,181.96 366.414,181.96 366.414,158.214 363.015,158.214 363.015,181.96 		"/>
		<path fill-rule="evenodd" clip-rule="evenodd" d="M374.841,170.087c-0.001-1.637,0.287-3.158,0.864-4.564
			c0.576-1.406,1.444-2.542,2.604-3.407c1.159-0.865,2.611-1.305,4.359-1.32c1.746,0.015,3.198,0.455,4.357,1.32
			s2.028,2.001,2.604,3.407c0.577,1.407,0.865,2.928,0.865,4.564c0.004,1.604-0.266,3.108-0.812,4.512s-1.397,2.544-2.552,3.422
			c-1.155,0.877-2.644,1.33-4.464,1.358c-1.822-0.028-3.311-0.481-4.466-1.358c-1.154-0.878-2.005-2.019-2.551-3.422
			C375.105,173.195,374.835,171.69,374.841,170.087L374.841,170.087z M371.237,170.087c0.007,2.423,0.459,4.554,1.353,6.391
			c0.896,1.838,2.192,3.274,3.892,4.31c1.701,1.036,3.764,1.563,6.188,1.58c2.423-0.018,4.484-0.544,6.185-1.58
			c1.7-1.035,2.998-2.472,3.893-4.31c0.896-1.837,1.346-3.968,1.352-6.391c-0.006-2.37-0.46-4.474-1.359-6.315
			c-0.899-1.84-2.199-3.289-3.899-4.347c-1.702-1.058-3.758-1.597-6.17-1.618c-2.413,0.021-4.47,0.56-6.172,1.618
			c-1.7,1.058-3,2.507-3.9,4.347C371.698,165.613,371.245,167.717,371.237,170.087L371.237,170.087z"/>
		<polygon points="398.927,181.96 402.325,181.96 402.325,162.429 402.394,162.429 413.149,181.96 417.501,181.96 417.501,158.214 
			414.103,158.214 414.103,177.337 414.035,177.337 403.551,158.214 398.927,158.214 398.927,181.96 		"/>
		<path d="M448.805,175.941c-0.316,0.233-0.868,0.506-1.656,0.817c-0.787,0.311-1.755,0.48-2.904,0.51
			c-2.018-0.046-3.563-0.738-4.636-2.076c-1.073-1.339-1.615-3.052-1.625-5.139c-0.005-2.329,0.482-4.122,1.463-5.378
			c0.981-1.256,2.49-1.893,4.525-1.907c1.024,0.029,1.953,0.201,2.786,0.516c0.833,0.313,1.446,0.596,1.842,0.846l0.34-5.237
			c-0.299-0.15-0.943-0.361-1.931-0.633c-0.988-0.273-2.262-0.424-3.819-0.455c-2.598,0.02-4.772,0.546-6.521,1.582
			c-1.751,1.035-3.068,2.459-3.952,4.273c-0.884,1.813-1.328,3.899-1.329,6.256c0.018,2.778,0.53,5.09,1.533,6.934
			c1.005,1.844,2.394,3.225,4.165,4.142c1.771,0.918,3.818,1.376,6.139,1.375c0.907,0,1.857-0.076,2.85-0.229
			c0.991-0.152,1.993-0.382,3.002-0.689L448.805,175.941L448.805,175.941z"/>
		<polygon points="452.292,181.96 467.292,181.96 467.292,177.269 458.548,177.269 458.548,172.16 466.44,172.16 466.44,167.469 
			458.548,167.469 458.548,162.906 466.85,162.906 466.85,158.214 452.292,158.214 452.292,181.96 		"/>
		<polygon points="482.221,181.96 489.702,181.96 489.702,158.214 484.126,158.214 484.126,174.578 484.059,174.578 
			477.829,158.214 470.414,158.214 470.414,181.96 475.99,181.96 475.99,165.495 476.126,165.495 482.221,181.96 		"/>
		<polygon points="497.348,181.96 503.74,181.96 503.74,163.041 508.845,163.041 508.845,158.214 492.244,158.214 492.244,163.041 
			497.348,163.041 497.348,181.96 		"/>
		<polygon points="511.493,181.96 526.493,181.96 526.493,177.269 517.749,177.269 517.749,172.16 525.644,172.16 525.644,167.469 
			517.749,167.469 517.749,162.906 526.051,162.906 526.051,158.214 511.493,158.214 511.493,181.96 		"/>
		<path fill-rule="evenodd" clip-rule="evenodd" d="M535.872,168.116v-5.347h1.771c0.933,0.014,1.621,0.275,2.064,0.783
			c0.443,0.509,0.664,1.178,0.66,2.009c-0.023,0.777-0.291,1.395-0.801,1.852c-0.509,0.458-1.116,0.692-1.821,0.703H535.872
			L535.872,168.116z M540.946,181.96h6.597l-2.143-7.417c-0.465-1.6-0.947-2.688-1.445-3.266s-1.082-0.952-1.751-1.122v-0.102
			c0.709-0.163,1.411-0.449,2.103-0.859c0.694-0.411,1.271-0.987,1.734-1.729c0.462-0.743,0.702-1.695,0.72-2.856
			c-0.014-2.187-0.667-3.8-1.96-4.844c-1.292-1.042-3.145-1.559-5.557-1.551h-9.492v23.746h6.393v-9.289h0.341
			c0.521-0.037,1.021,0.104,1.499,0.421c0.478,0.316,0.876,1.026,1.191,2.131L540.946,181.96L540.946,181.96z"/>
	</g>
	<path d="M651.996,181.06c-5.336,41.532-40.652,73.69-83.505,74.067l0.002-72.997c1.172,0.37,21.205,6.645,42.017,6.648
		C628.815,188.773,647.014,182.816,651.996,181.06z"/>
</g>
</svg>
